<svg width="146" height="63" viewBox="0 0 146 63" fill="none" xmlns="http://www.w3.org/2000/svg">
<g filter="url(#filter0_i_4696_6301)">
<path d="M18.9758 56.6942C17.4524 59.4405 13.5034 59.4405 11.98 56.6942L3.79593 41.9403C2.31703 39.2742 4.24503 36 7.29382 36L23.6621 36C26.7108 36 28.6388 39.2742 27.1599 41.9403L18.9758 56.6942Z" fill="#FFD600"/>
</g>
<g filter="url(#filter1_i_4696_6301)">
<path d="M0 5C0 2.23858 2.23858 0 5 0H24.2317C33.59 0 41.1765 7.58645 41.1765 16.9448V16.9448C41.1765 25.3673 34.3487 32.1951 25.9261 32.1951H4.99999C2.23857 32.1951 0 29.9565 0 27.1951V5Z" fill="#FFD600"/>
</g>
<g filter="url(#filter2_i_4696_6301)">
<path d="M29.3486 6.56669C28.7774 5.8111 27.578 5.8111 27.0068 6.56669L26.5845 7.12539C26.2988 7.50333 25.8246 7.71672 25.3302 7.68982L24.5995 7.65006C23.6112 7.59628 22.8634 8.47255 23.1394 9.36098L23.3435 10.0179C23.4815 10.4623 23.3644 10.9418 23.0337 11.2862L22.5448 11.7953C21.8836 12.4838 22.1505 13.5765 23.0659 13.9288L23.7428 14.1892C24.2006 14.3654 24.5288 14.7499 24.6107 15.2063L24.7319 15.8809C24.8957 16.7933 25.9763 17.2796 26.8417 16.8304L27.4817 16.4983C27.9146 16.2736 28.4409 16.2736 28.8738 16.4983L29.5137 16.8304C30.3792 17.2796 31.4598 16.7933 31.6236 15.8809L31.7447 15.2063C31.8267 14.7499 32.1548 14.3654 32.6127 14.1892L33.2896 13.9288C34.205 13.5765 34.4719 12.4838 33.8107 11.7953L33.3218 11.2862C32.991 10.9418 32.8739 10.4623 33.012 10.0179L33.2161 9.36098C33.4921 8.47255 32.7443 7.59628 31.756 7.65006L31.0252 7.68982C30.5309 7.71672 30.0567 7.50333 29.771 7.12539L29.3486 6.56669Z" fill="url(#paint0_radial_4696_6301)"/>
</g>
<g filter="url(#filter3_i_4696_6301)">
<path d="M36 57.5519V37.926C36.0103 37.8464 36.0216 37.6273 36.1758 37.5676C36.33 37.4979 36.4935 37.5974 36.5244 37.5676H44.8218V57.0142C44.7704 57.2233 44.719 57.3677 44.6676 57.4474C44.6265 57.5171 44.5545 57.5519 44.4517 57.5519H36Z" fill="#FFD600"/>
<path d="M57.5919 58C55.8748 58 54.3325 57.7212 52.965 57.1636C51.5975 56.596 50.4768 55.8144 49.6029 54.8186C48.7289 53.8229 48.0606 52.6629 47.5979 51.3386C47.1455 50.0043 46.9193 48.5505 46.9193 46.9772V46.7681C46.9296 46.6984 46.945 46.5292 46.9656 46.2603C46.9964 45.9815 47.0119 45.8023 47.0119 45.7226C47.0221 45.633 47.0427 45.4687 47.0735 45.2297C47.1044 44.9908 47.1301 44.8165 47.1507 44.707C47.1712 44.5974 47.1969 44.4381 47.2278 44.229C47.2689 44.0199 47.31 43.8506 47.3511 43.7212C47.4026 43.5818 47.4591 43.4175 47.5208 43.2283C47.5825 43.0391 47.6493 42.8599 47.7213 42.6906C47.7933 42.5213 47.8755 42.3471 47.9681 42.1679V42.1977C48.441 41.2418 49.0374 40.4154 49.7571 39.7183C50.4768 39.0213 51.2685 38.4836 52.1322 38.1053C52.9959 37.7169 53.8801 37.4381 54.7849 37.2688C55.6897 37.0896 56.6459 37 57.6535 37C58.9285 37 60.0801 37.1245 61.1082 37.3734C62.1364 37.6124 62.9898 37.936 63.6684 38.3442C64.347 38.7525 64.9279 39.2504 65.4112 39.8378C65.8944 40.4154 66.2594 41.0128 66.5062 41.6302C66.753 42.2475 66.9278 42.9147 67.0306 43.6316V44.9161C66.9997 45.0555 66.9226 45.165 66.7992 45.2447C66.6759 45.3144 66.5422 45.3592 66.3982 45.3791C66.2543 45.389 66.0538 45.394 65.7968 45.394H59.1958V44.1095C59.1444 43.771 58.9953 43.4623 58.7486 43.1835C58.5018 42.9047 58.1985 42.7653 57.8386 42.7653C57.5199 42.7653 57.2371 42.83 56.9904 42.9595C56.7539 43.0889 56.5637 43.2632 56.4197 43.4822C56.2861 43.6913 56.173 43.9403 56.0804 44.229C55.9982 44.5078 55.9416 44.8065 55.9108 45.1252C55.8902 45.4339 55.8697 45.7525 55.8491 46.0811C55.8388 46.3997 55.8439 46.7034 55.8645 46.9922C55.8645 47.1913 55.8645 47.3357 55.8645 47.4253V49.0982C55.8645 49.3471 55.8748 49.591 55.8954 49.83C55.9262 50.059 55.9879 50.3578 56.0804 50.7262C56.1832 51.0946 56.358 51.3933 56.6048 51.6223C56.8516 51.8514 57.16 51.9659 57.5302 51.9659C57.9209 51.9659 58.2088 51.8065 58.3938 51.4879C58.5892 51.1693 58.7486 50.7859 58.8719 50.3378C59.0056 49.8898 59.1547 49.5861 59.3192 49.4267C59.7305 49.4267 60.3474 49.4317 61.1699 49.4417C61.9925 49.4516 62.6094 49.4566 63.0207 49.4566C63.3086 49.4566 63.7352 49.4516 64.3007 49.4417C64.8662 49.4317 65.2929 49.4267 65.5808 49.4267H66.7221C67.0614 49.4267 67.2465 49.6259 67.2773 50.0242V50.5918C67.0511 52.5733 66.2954 54.1714 65.0102 55.3862C63.725 56.601 62.1159 57.3727 60.1829 57.7013V57.7909C59.494 57.9303 58.6303 58 57.5919 58Z" fill="#FFD600"/>
<path d="M69.5291 57.5818C69.344 57.2831 69.2206 57.074 69.1589 56.9545V37.3286H75.9758C76.0066 37.3286 76.0889 37.3286 76.2225 37.3286C76.3562 37.3186 76.459 37.3186 76.531 37.3286C76.603 37.3286 76.7006 37.3336 76.824 37.3435C76.9577 37.3535 77.0656 37.3734 77.1479 37.4033C77.2301 37.4232 77.3124 37.458 77.3947 37.5078C77.4872 37.5477 77.5592 37.6074 77.6106 37.6871C77.6723 37.7667 77.7134 37.8563 77.734 37.9559V44.5875C78.0733 43.9303 78.5462 42.9844 79.1528 41.7496C79.7698 40.5149 80.2222 39.6188 80.5101 39.0612L81.2658 37.4929L82.7309 37.4481C82.9366 37.4481 83.245 37.458 83.6563 37.478C84.0779 37.4979 84.3863 37.5078 84.5817 37.5078H85.7538C85.836 37.5078 85.9543 37.5028 86.1085 37.4929C86.273 37.4829 86.3913 37.478 86.4632 37.478H87.3578C87.3989 37.478 87.4709 37.468 87.5737 37.4481C89.2393 37.4481 90.0722 37.5676 90.0722 37.8065C90.0722 37.9459 89.9796 38.1351 89.7946 38.3741C89.3216 39.101 88.5247 40.4303 87.404 42.362C86.2833 44.2838 85.3785 45.7326 84.6896 46.7084L90.7199 56.7752C90.7199 56.7852 90.7199 56.8201 90.7199 56.8798C90.7199 56.9395 90.7199 56.9794 90.7199 56.9993C90.7199 57.0192 90.7148 57.0541 90.7045 57.1038C90.7045 57.1437 90.6994 57.1785 90.6891 57.2084C90.6788 57.2283 90.6634 57.2582 90.6428 57.298C90.6325 57.3279 90.612 57.3578 90.5811 57.3876C90.5606 57.4075 90.5348 57.4324 90.504 57.4623C89.5375 57.4026 88.098 57.3727 86.1856 57.3727C85.9286 57.3727 85.5327 57.3777 84.9981 57.3876C84.4634 57.3976 84.0676 57.4026 83.8105 57.4026H81.713V56.9844C81.5485 56.7155 81.1938 56.1878 80.6489 55.4011C80.1039 54.6145 79.7081 53.9972 79.4613 53.5491L77.734 50.3528V56.9844C77.59 57.3826 77.0245 57.5818 76.0375 57.5818H69.5291Z" fill="#FFD600"/>
<path d="M110.543 37.4182C110.615 37.3983 110.728 37.3834 110.882 37.3734C111.046 37.3535 111.149 37.3385 111.19 37.3286L113.026 46.4246L115.432 37.2987H126.274C126.562 37.2987 126.706 37.8862 126.706 39.0612V56.6558C126.685 56.8151 126.639 56.9445 126.567 57.0441C126.495 57.1437 126.387 57.2134 126.243 57.2532C126.109 57.2831 126.001 57.303 125.919 57.3129C125.847 57.3129 125.719 57.3129 125.534 57.3129C124.886 57.3129 123.899 57.3229 122.572 57.3428C121.256 57.3627 120.269 57.3727 119.611 57.3727C119.097 57.064 118.84 55.9189 118.84 53.9374C118.84 53.4395 118.85 52.7923 118.871 51.9957C118.892 51.1892 118.902 50.5918 118.902 50.2034V48.889C118.902 48.8193 118.897 48.7098 118.886 48.5605C118.876 48.4011 118.871 48.2817 118.871 48.202C118.871 47.8634 118.892 47.3158 118.933 46.559V47.6942C118.789 48.2817 118.511 49.1778 118.1 50.3826C117.689 51.5875 117.411 52.4836 117.267 53.0711L116.342 56.8947C116.177 57.1735 115.663 57.3129 114.799 57.3129C114.378 57.3129 113.828 57.303 113.149 57.2831C112.481 57.2632 111.972 57.2532 111.622 57.2532C111.519 57.2532 111.345 57.2582 111.098 57.2681C110.851 57.2781 110.697 57.2831 110.635 57.2831C110.306 57.2831 110.07 57.2432 109.926 57.1636C109.782 57.0839 109.679 56.9246 109.617 56.6856C108.651 52.5334 107.983 49.596 107.612 47.8734L107.057 45.3044C106.913 48.202 106.841 51.2688 106.841 54.505V57.1337H99.5617C99.5617 57.074 99.5771 56.9445 99.608 56.7454C99.6388 56.5462 99.6542 56.4367 99.6542 56.4168C99.572 54.505 99.5308 52.1451 99.5308 49.3371C99.5308 48.4908 99.5257 47.3656 99.5154 45.9616C99.5051 44.5477 99.5 43.5718 99.5 43.0341V37.7468C99.5 37.6174 99.5206 37.5228 99.5617 37.463C99.6028 37.3933 99.7056 37.2987 99.8701 37.1792H101.289C101.803 37.1792 102.173 37.1693 102.399 37.1494C103.438 37.1494 104.697 37.1942 106.178 37.2838C107.669 37.3734 108.599 37.4182 108.97 37.4182H110.543Z" fill="#FFD600"/>
<path d="M129.605 38.6131C129.605 38.0156 129.631 37.6671 129.682 37.5676C129.775 37.4282 129.924 37.3585 130.13 37.3585H130.5C130.664 37.3585 130.777 37.3684 130.839 37.3883H131.641C132.679 37.3883 134.247 37.3634 136.345 37.3137C138.453 37.2639 140.031 37.239 141.08 37.239H145.182C145.45 37.2688 145.583 37.3983 145.583 37.6273V42.6159C145.573 42.6757 145.552 42.7304 145.521 42.7802C145.501 42.8201 145.48 42.8499 145.46 42.8698C145.45 42.8798 145.403 42.9147 145.321 42.9744C145.239 43.0242 145.182 43.064 145.151 43.0939H137.995V44.9459H138.674C139.27 44.9459 140.18 44.926 141.404 44.8862C142.627 44.8464 143.568 44.8265 144.226 44.8265C144.514 44.8265 144.709 44.8812 144.812 44.9908C144.915 45.1003 144.966 45.2546 144.966 45.4538C144.966 45.5036 144.956 45.5882 144.935 45.7077C144.915 45.8272 144.905 45.9118 144.905 45.9616V46.5292C144.905 46.569 144.91 46.6536 144.92 46.7831C144.93 46.9026 144.935 47.0071 144.935 47.0967V47.5149C144.935 47.734 144.946 47.9531 144.966 48.1721C144.987 48.3912 144.997 48.5804 144.997 48.7397V49.128C144.946 49.2475 144.905 49.3272 144.874 49.367C144.843 49.4068 144.791 49.4267 144.719 49.4267V49.3969C144.339 49.3969 143.681 49.4218 142.745 49.4715C141.82 49.5213 141.08 49.5462 140.525 49.5462H138.057V51.458C138.139 51.458 138.263 51.463 138.427 51.473C138.592 51.4829 138.715 51.4879 138.797 51.4879C139.26 51.4879 139.944 51.473 140.848 51.4431C141.753 51.4132 142.406 51.3983 142.807 51.3983H144.781C145.316 51.3983 145.655 51.458 145.799 51.5775C145.85 51.6373 145.892 51.697 145.922 51.7568V56.5363C145.922 56.7454 145.881 56.9047 145.799 57.0142C145.717 57.1238 145.563 57.1835 145.336 57.1935H130.068L129.605 56.8051V38.6131Z" fill="#FFD600"/>
</g>
<defs>
<filter id="filter0_i_4696_6301" x="3.28711" y="34" width="26.3809" height="24.7539" filterUnits="userSpaceOnUse" color-interpolation-filters="sRGB">
<feFlood flood-opacity="0" result="BackgroundImageFix"/>
<feBlend mode="normal" in="SourceGraphic" in2="BackgroundImageFix" result="shape"/>
<feColorMatrix in="SourceAlpha" type="matrix" values="0 0 0 0 0 0 0 0 0 0 0 0 0 0 0 0 0 0 127 0" result="hardAlpha"/>
<feOffset dx="2" dy="-2"/>
<feGaussianBlur stdDeviation="4"/>
<feComposite in2="hardAlpha" operator="arithmetic" k2="-1" k3="1"/>
<feColorMatrix type="matrix" values="0 0 0 0 0.94902 0 0 0 0 0.627451 0 0 0 0 0.027451 0 0 0 1 0"/>
<feBlend mode="normal" in2="shape" result="effect1_innerShadow_4696_6301"/>
</filter>
<filter id="filter1_i_4696_6301" x="0" y="-3" width="44.1758" height="35.1953" filterUnits="userSpaceOnUse" color-interpolation-filters="sRGB">
<feFlood flood-opacity="0" result="BackgroundImageFix"/>
<feBlend mode="normal" in="SourceGraphic" in2="BackgroundImageFix" result="shape"/>
<feColorMatrix in="SourceAlpha" type="matrix" values="0 0 0 0 0 0 0 0 0 0 0 0 0 0 0 0 0 0 127 0" result="hardAlpha"/>
<feMorphology radius="1" operator="dilate" in="SourceAlpha" result="effect1_innerShadow_4696_6301"/>
<feOffset dx="3" dy="-3"/>
<feGaussianBlur stdDeviation="6"/>
<feComposite in2="hardAlpha" operator="arithmetic" k2="-1" k3="1"/>
<feColorMatrix type="matrix" values="0 0 0 0 0.94902 0 0 0 0 0.627451 0 0 0 0 0.027451 0 0 0 1 0"/>
<feBlend mode="normal" in2="shape" result="effect1_innerShadow_4696_6301"/>
</filter>
<filter id="filter2_i_4696_6301" x="22.1777" y="4" width="14" height="13" filterUnits="userSpaceOnUse" color-interpolation-filters="sRGB">
<feFlood flood-opacity="0" result="BackgroundImageFix"/>
<feBlend mode="normal" in="SourceGraphic" in2="BackgroundImageFix" result="shape"/>
<feColorMatrix in="SourceAlpha" type="matrix" values="0 0 0 0 0 0 0 0 0 0 0 0 0 0 0 0 0 0 127 0" result="hardAlpha"/>
<feOffset dx="2" dy="-2"/>
<feGaussianBlur stdDeviation="2"/>
<feComposite in2="hardAlpha" operator="arithmetic" k2="-1" k3="1"/>
<feColorMatrix type="matrix" values="0 0 0 0 1 0 0 0 0 0.305882 0 0 0 0 0 0 0 0 1 0"/>
<feBlend mode="normal" in2="shape" result="effect1_innerShadow_4696_6301"/>
</filter>
<filter id="filter3_i_4696_6301" x="36" y="37" width="110.922" height="21" filterUnits="userSpaceOnUse" color-interpolation-filters="sRGB">
<feFlood flood-opacity="0" result="BackgroundImageFix"/>
<feBlend mode="normal" in="SourceGraphic" in2="BackgroundImageFix" result="shape"/>
<feColorMatrix in="SourceAlpha" type="matrix" values="0 0 0 0 0 0 0 0 0 0 0 0 0 0 0 0 0 0 127 0" result="hardAlpha"/>
<feOffset dx="1"/>
<feGaussianBlur stdDeviation="2.5"/>
<feComposite in2="hardAlpha" operator="arithmetic" k2="-1" k3="1"/>
<feColorMatrix type="matrix" values="0 0 0 0 0.94902 0 0 0 0 0.627451 0 0 0 0 0.027451 0 0 0 1 0"/>
<feBlend mode="normal" in2="shape" result="effect1_innerShadow_4696_6301"/>
</filter>
<radialGradient id="paint0_radial_4696_6301" cx="0" cy="0" r="1" gradientUnits="userSpaceOnUse" gradientTransform="translate(29.5895 9.88235) rotate(137.49) scale(9.09699 9.06266)">
<stop stop-color="#F29407"/>
<stop offset="1" stop-color="#FF4E00"/>
</radialGradient>
</defs>
</svg>
