<svg width="147" height="63" viewBox="0 0 147 63" fill="none" xmlns="http://www.w3.org/2000/svg">
<g filter="url(#filter0_i_4696_6301)">
<path d="M18.9758 56.6942C17.4524 59.4405 13.5034 59.4405 11.98 56.6942L3.79593 41.9403C2.31703 39.2742 4.24503 36 7.29382 36L23.6621 36C26.7108 36 28.6388 39.2742 27.1599 41.9403L18.9758 56.6942Z" fill="#FFD600"/>
</g>
<g filter="url(#filter1_i_4696_6301)">
<path d="M0 5C0 2.23858 2.23858 0 5 0H24.2317C33.59 0 41.1765 7.58645 41.1765 16.9448V16.9448C41.1765 25.3673 34.3487 32.1951 25.9261 32.1951H4.99999C2.23857 32.1951 0 29.9565 0 27.1951V5Z" fill="#FFD600"/>
</g>
<g filter="url(#filter2_i_4696_6301)">
<path d="M29.3486 6.56669C28.7774 5.8111 27.578 5.8111 27.0068 6.56669L26.5845 7.12539C26.2988 7.50333 25.8246 7.71672 25.3302 7.68982L24.5995 7.65006C23.6112 7.59628 22.8634 8.47255 23.1394 9.36098L23.3435 10.0179C23.4815 10.4623 23.3644 10.9418 23.0337 11.2862L22.5448 11.7953C21.8836 12.4838 22.1505 13.5765 23.0659 13.9288L23.7428 14.1892C24.2006 14.3654 24.5288 14.7499 24.6107 15.2063L24.7319 15.8809C24.8957 16.7933 25.9763 17.2796 26.8417 16.8304L27.4817 16.4983C27.9146 16.2736 28.4409 16.2736 28.8738 16.4983L29.5137 16.8304C30.3792 17.2796 31.4598 16.7933 31.6236 15.8809L31.7447 15.2063C31.8267 14.7499 32.1548 14.3654 32.6127 14.1892L33.2896 13.9288C34.205 13.5765 34.4719 12.4838 33.8107 11.7953L33.3218 11.2862C32.991 10.9418 32.8739 10.4623 33.012 10.0179L33.2161 9.36098C33.4921 8.47255 32.7443 7.59628 31.756 7.65006L31.0252 7.68982C30.5309 7.71672 30.0567 7.50333 29.771 7.12539L29.3486 6.56669Z" fill="url(#paint0_radial_4696_6301)"/>
</g>
<g filter="url(#filter3_i_4696_6301)">
<path d="M32 58.4861V37.9681C32.0108 37.8848 32.0225 37.6558 32.1839 37.5934C32.3453 37.5205 32.5163 37.6246 32.5486 37.5934H41.2293V57.924C41.1755 58.1426 41.1217 58.2935 41.068 58.3768C41.0249 58.4497 40.9496 58.4861 40.8421 58.4861H32Z" fill="#FFD600"/>
<path d="M54.5892 58.9545C52.7928 58.9545 51.1793 58.6631 49.7487 58.0801C48.318 57.4867 47.1455 56.6696 46.2312 55.6286C45.3169 54.5876 44.6177 53.3748 44.1336 51.9903C43.6603 50.5954 43.4237 49.0755 43.4237 47.4308V47.2121C43.4345 47.1393 43.4506 46.9623 43.4721 46.6812C43.5044 46.3898 43.5205 46.2024 43.5205 46.1191C43.5313 46.0254 43.5528 45.8536 43.585 45.6038C43.6173 45.354 43.6442 45.1718 43.6657 45.0573C43.6872 44.9428 43.7141 44.7762 43.7464 44.5576C43.7894 44.339 43.8325 44.162 43.8755 44.0267C43.9293 43.881 43.9884 43.7092 44.053 43.5114C44.1175 43.3136 44.1874 43.1262 44.2627 42.9493C44.338 42.7723 44.4241 42.5901 44.5209 42.4028V42.434C45.0157 41.4346 45.6396 40.5706 46.3926 39.8419C47.1455 39.1132 47.9738 38.5511 48.8774 38.1555C49.7809 37.7495 50.706 37.458 51.6526 37.2811C52.5992 37.0937 53.5996 37 54.6538 37C55.9876 37 57.1924 37.1301 58.268 37.3904C59.3437 37.6402 60.2365 37.9785 60.9465 38.4053C61.6564 38.8321 62.2642 39.3526 62.7698 39.9668C63.2753 40.5706 63.6572 41.1952 63.9153 41.8406C64.1735 42.486 64.3564 43.1835 64.4639 43.933V45.2759C64.4317 45.4216 64.351 45.5361 64.2219 45.6194C64.0928 45.6923 63.953 45.7391 63.8024 45.76C63.6518 45.7704 63.442 45.7756 63.1731 45.7756H56.2673V44.4327C56.2135 44.0788 56.0575 43.756 55.7994 43.4646C55.5412 43.1731 55.2239 43.0274 54.8474 43.0274C54.5139 43.0274 54.2181 43.095 53.96 43.2303C53.7125 43.3657 53.5136 43.5478 53.363 43.7769C53.2231 43.9955 53.1048 44.2557 53.008 44.5576C52.9219 44.8491 52.8628 45.1614 52.8305 45.4945C52.809 45.8172 52.7875 46.1503 52.766 46.4939C52.7552 46.827 52.7606 47.1445 52.7821 47.4464C52.7821 47.6546 52.7821 47.8055 52.7821 47.8992V49.6481C52.7821 49.9083 52.7928 50.1634 52.8144 50.4132C52.8466 50.6526 52.9112 50.9649 53.008 51.3501C53.1155 51.7353 53.2984 52.0476 53.5566 52.287C53.8147 52.5264 54.1374 52.6461 54.5247 52.6461C54.9334 52.6461 55.2346 52.4796 55.4283 52.1465C55.6326 51.8133 55.7994 51.4125 55.9284 50.9441C56.0683 50.4757 56.2243 50.1582 56.3964 49.9916C56.8266 49.9916 57.472 49.9968 58.3326 50.0072C59.1931 50.0176 59.8385 50.0228 60.2688 50.0228C60.57 50.0228 61.0164 50.0176 61.608 50.0072C62.1996 49.9968 62.646 49.9916 62.9472 49.9916H64.1412C64.4962 49.9916 64.6898 50.1998 64.7221 50.6162V51.2096C64.4855 53.2811 63.6948 54.9519 62.3502 56.2219C61.0056 57.4919 59.3222 58.2987 57.2999 58.6422V58.7359C56.5792 58.8817 55.6757 58.9545 54.5892 58.9545Z" fill="#FFD600"/>
<path d="M67.0778 58.5173C66.8842 58.205 66.7551 57.9864 66.6906 57.8615V37.3435H73.8223C73.8546 37.3435 73.9407 37.3435 74.0805 37.3435C74.2203 37.3331 74.3279 37.3331 74.4032 37.3435C74.4785 37.3435 74.5807 37.3487 74.7098 37.3591C74.8496 37.3696 74.9625 37.3904 75.0486 37.4216C75.1346 37.4424 75.2207 37.4789 75.3068 37.5309C75.4036 37.5725 75.4789 37.635 75.5327 37.7183C75.5972 37.8016 75.6402 37.8953 75.6617 37.9994V44.9324C76.0167 44.2453 76.5115 43.2564 77.1462 41.9655C77.7916 40.6747 78.2649 39.7378 78.5661 39.1549L79.3567 37.5153L80.8895 37.4684C81.1047 37.4684 81.4274 37.4789 81.8576 37.4997C82.2987 37.5205 82.6214 37.5309 82.8257 37.5309H84.052C84.1381 37.5309 84.2618 37.5257 84.4231 37.5153C84.5952 37.5049 84.7189 37.4997 84.7942 37.4997H85.7301C85.7731 37.4997 85.8484 37.4893 85.956 37.4684C87.6986 37.4684 88.5699 37.5934 88.5699 37.8432C88.5699 37.9889 88.4731 38.1867 88.2794 38.4366C87.7846 39.1965 86.951 40.5862 85.7785 42.6057C84.606 44.6149 83.6594 46.1295 82.9387 47.1497L89.2475 57.6741C89.2475 57.6845 89.2475 57.721 89.2475 57.7834C89.2475 57.8459 89.2475 57.8875 89.2475 57.9083C89.2475 57.9292 89.2421 57.9656 89.2314 58.0177C89.2314 58.0593 89.226 58.0957 89.2153 58.127C89.2045 58.1478 89.1884 58.179 89.1669 58.2206C89.1561 58.2519 89.1346 58.2831 89.1023 58.3143C89.0808 58.3352 89.0539 58.3612 89.0216 58.3924C88.0105 58.3299 86.5046 58.2987 84.5038 58.2987C84.2349 58.2987 83.8207 58.3039 83.2614 58.3143C82.702 58.3247 82.2879 58.3299 82.019 58.3299H79.8246V57.8927C79.6525 57.6117 79.2814 57.0599 78.7113 56.2376C78.1412 55.4152 77.727 54.7698 77.4689 54.3013L75.6617 50.9597V57.8927C75.5111 58.3091 74.9195 58.5173 73.8869 58.5173H67.0778Z" fill="#FFD600"/>
<path d="M109.986 37.4372C110.061 37.4164 110.18 37.4008 110.341 37.3904C110.513 37.3696 110.621 37.3539 110.664 37.3435L112.584 46.853L115.101 37.3123H126.444C126.745 37.3123 126.896 37.9265 126.896 39.1549V57.5492C126.874 57.7158 126.826 57.8511 126.75 57.9552C126.675 58.0593 126.562 58.1322 126.412 58.1738C126.272 58.205 126.159 58.2258 126.073 58.2363C125.997 58.2363 125.863 58.2363 125.669 58.2363C124.992 58.2363 123.959 58.2467 122.571 58.2675C121.195 58.2883 120.162 58.2987 119.473 58.2987C118.936 57.976 118.667 56.7789 118.667 54.7073C118.667 54.1868 118.677 53.5101 118.699 52.6774C118.72 51.8342 118.731 51.2096 118.731 50.8036V49.4295C118.731 49.3566 118.726 49.2421 118.715 49.0859C118.704 48.9194 118.699 48.7945 118.699 48.7112C118.699 48.3572 118.72 47.7847 118.763 46.9935V48.1803C118.613 48.7945 118.322 49.7313 117.892 50.9909C117.462 52.2505 117.171 53.1874 117.021 53.8016L116.053 57.799C115.881 58.0905 115.343 58.2363 114.439 58.2363C113.998 58.2363 113.423 58.2259 112.713 58.205C112.014 58.1842 111.481 58.1738 111.115 58.1738C111.008 58.1738 110.825 58.179 110.567 58.1894C110.309 58.1998 110.147 58.205 110.083 58.205C109.739 58.205 109.491 58.1634 109.341 58.0801C109.19 57.9968 109.082 57.8303 109.018 57.5804C108.007 53.2395 107.308 50.1686 106.92 48.3676L106.339 45.6819C106.189 48.7112 106.114 51.9174 106.114 55.3007V58.0489H98.4977C98.4977 57.9864 98.5139 57.8511 98.5461 57.6429C98.5784 57.4347 98.5945 57.3202 98.5945 57.2994C98.5085 55.3007 98.4655 52.8335 98.4655 49.8979C98.4655 49.0131 98.4601 47.8367 98.4493 46.3689C98.4386 44.8907 98.4332 43.8706 98.4332 43.3084V37.7807C98.4332 37.6454 98.4547 37.5465 98.4977 37.4841C98.5407 37.4112 98.6483 37.3123 98.8204 37.1874H100.305C100.843 37.1874 101.23 37.177 101.467 37.1561C102.553 37.1561 103.871 37.203 105.42 37.2967C106.979 37.3904 107.953 37.4372 108.34 37.4372H109.986Z" fill="#FFD600"/>
<path d="M129.929 38.6864C129.929 38.0618 129.956 37.6975 130.01 37.5934C130.106 37.4476 130.262 37.3748 130.478 37.3748H130.865C131.037 37.3748 131.155 37.3852 131.22 37.406H132.059C133.145 37.406 134.786 37.38 136.98 37.3279C139.185 37.2759 140.836 37.2498 141.934 37.2498H146.226C146.505 37.2811 146.645 37.4164 146.645 37.6558V42.8712C146.634 42.9337 146.613 42.9909 146.58 43.043C146.559 43.0846 146.537 43.1158 146.516 43.1367C146.505 43.1471 146.457 43.1835 146.371 43.246C146.285 43.298 146.226 43.3396 146.193 43.3709H138.707V45.3071H139.416C140.04 45.3071 140.992 45.2863 142.272 45.2447C143.552 45.203 144.537 45.1822 145.225 45.1822C145.526 45.1822 145.731 45.2395 145.838 45.354C145.946 45.4685 146 45.6298 146 45.838C146 45.8901 145.989 45.9786 145.967 46.1035C145.946 46.2284 145.935 46.3169 145.935 46.3689V46.9623C145.935 47.0039 145.94 47.0924 145.951 47.2278C145.962 47.3527 145.967 47.462 145.967 47.5557V47.9929C145.967 48.2219 145.978 48.4509 146 48.6799C146.021 48.909 146.032 49.1067 146.032 49.2733V49.6793C145.978 49.8042 145.935 49.8875 145.903 49.9291C145.871 49.9708 145.817 49.9916 145.741 49.9916V49.9604C145.343 49.9604 144.655 49.9864 143.676 50.0384C142.708 50.0905 141.934 50.1165 141.353 50.1165H138.771V52.1152C138.857 52.1152 138.986 52.1204 139.158 52.1308C139.33 52.1412 139.46 52.1464 139.546 52.1464C140.03 52.1464 140.745 52.1308 141.692 52.0996C142.638 52.0684 143.321 52.0528 143.741 52.0528H145.806C146.365 52.0528 146.72 52.1152 146.871 52.2401C146.925 52.3026 146.968 52.3651 147 52.4275V57.4243C147 57.6429 146.957 57.8095 146.871 57.924C146.785 58.0385 146.624 58.1009 146.387 58.1113H130.413L129.929 57.7054V38.6864Z" fill="#FFD600"/>
</g>
<defs>
<filter id="filter0_i_4696_6301" x="3.28711" y="34" width="26.3809" height="24.7539" filterUnits="userSpaceOnUse" color-interpolation-filters="sRGB">
<feFlood flood-opacity="0" result="BackgroundImageFix"/>
<feBlend mode="normal" in="SourceGraphic" in2="BackgroundImageFix" result="shape"/>
<feColorMatrix in="SourceAlpha" type="matrix" values="0 0 0 0 0 0 0 0 0 0 0 0 0 0 0 0 0 0 127 0" result="hardAlpha"/>
<feOffset dx="2" dy="-2"/>
<feGaussianBlur stdDeviation="4"/>
<feComposite in2="hardAlpha" operator="arithmetic" k2="-1" k3="1"/>
<feColorMatrix type="matrix" values="0 0 0 0 0.94902 0 0 0 0 0.627451 0 0 0 0 0.027451 0 0 0 1 0"/>
<feBlend mode="normal" in2="shape" result="effect1_innerShadow_4696_6301"/>
</filter>
<filter id="filter1_i_4696_6301" x="0" y="-3" width="44.1758" height="35.1953" filterUnits="userSpaceOnUse" color-interpolation-filters="sRGB">
<feFlood flood-opacity="0" result="BackgroundImageFix"/>
<feBlend mode="normal" in="SourceGraphic" in2="BackgroundImageFix" result="shape"/>
<feColorMatrix in="SourceAlpha" type="matrix" values="0 0 0 0 0 0 0 0 0 0 0 0 0 0 0 0 0 0 127 0" result="hardAlpha"/>
<feMorphology radius="1" operator="dilate" in="SourceAlpha" result="effect1_innerShadow_4696_6301"/>
<feOffset dx="3" dy="-3"/>
<feGaussianBlur stdDeviation="6"/>
<feComposite in2="hardAlpha" operator="arithmetic" k2="-1" k3="1"/>
<feColorMatrix type="matrix" values="0 0 0 0 0.94902 0 0 0 0 0.627451 0 0 0 0 0.027451 0 0 0 1 0"/>
<feBlend mode="normal" in2="shape" result="effect1_innerShadow_4696_6301"/>
</filter>
<filter id="filter2_i_4696_6301" x="22.1777" y="4" width="14" height="13" filterUnits="userSpaceOnUse" color-interpolation-filters="sRGB">
<feFlood flood-opacity="0" result="BackgroundImageFix"/>
<feBlend mode="normal" in="SourceGraphic" in2="BackgroundImageFix" result="shape"/>
<feColorMatrix in="SourceAlpha" type="matrix" values="0 0 0 0 0 0 0 0 0 0 0 0 0 0 0 0 0 0 127 0" result="hardAlpha"/>
<feOffset dx="2" dy="-2"/>
<feGaussianBlur stdDeviation="2"/>
<feComposite in2="hardAlpha" operator="arithmetic" k2="-1" k3="1"/>
<feColorMatrix type="matrix" values="0 0 0 0 1 0 0 0 0 0.305882 0 0 0 0 0 0 0 0 1 0"/>
<feBlend mode="normal" in2="shape" result="effect1_innerShadow_4696_6301"/>
</filter>
<filter id="filter3_i_4696_6301" x="32" y="37" width="116" height="21.9551" filterUnits="userSpaceOnUse" color-interpolation-filters="sRGB">
<feFlood flood-opacity="0" result="BackgroundImageFix"/>
<feBlend mode="normal" in="SourceGraphic" in2="BackgroundImageFix" result="shape"/>
<feColorMatrix in="SourceAlpha" type="matrix" values="0 0 0 0 0 0 0 0 0 0 0 0 0 0 0 0 0 0 127 0" result="hardAlpha"/>
<feOffset dx="1"/>
<feGaussianBlur stdDeviation="2.5"/>
<feComposite in2="hardAlpha" operator="arithmetic" k2="-1" k3="1"/>
<feColorMatrix type="matrix" values="0 0 0 0 0.94902 0 0 0 0 0.627451 0 0 0 0 0.027451 0 0 0 1 0"/>
<feBlend mode="normal" in2="shape" result="effect1_innerShadow_4696_6301"/>
</filter>
<radialGradient id="paint0_radial_4696_6301" cx="0" cy="0" r="1" gradientUnits="userSpaceOnUse" gradientTransform="translate(29.5895 9.88235) rotate(137.49) scale(9.09699 9.06266)">
<stop stop-color="#F29407"/>
<stop offset="1" stop-color="#FF4E00"/>
</radialGradient>
</defs>
</svg>
