<svg width="512" height="512" viewBox="0 0 512 512" fill="none" xmlns="http://www.w3.org/2000/svg">
<rect width="512" height="512" rx="100" fill="url(#paint0_linear_5029_817)"/>
<path d="M254.018 139.427C258.705 146.259 268.042 147.997 274.873 143.311C281.704 138.624 283.443 129.287 278.757 122.456L254.018 139.427ZM145.021 109.457L154.107 121.393L154.107 121.393L145.021 109.457ZM145.021 212.042L148.358 226.666C153.412 225.513 157.512 221.833 159.202 216.932C160.891 212.032 159.932 206.607 156.663 202.584L145.021 212.042ZM74.6684 288.311L59.832 290.52L59.832 290.52L74.6684 288.311ZM165.744 360.119C173.96 359.054 179.756 351.53 178.691 343.315C177.626 335.099 170.103 329.303 161.887 330.368L165.744 360.119ZM278.757 122.456C268.227 107.108 246.806 90.8045 221.613 83.0887C195.764 75.1722 164.355 75.8869 135.935 97.5223L154.107 121.393C173.223 106.84 194.084 106.033 212.828 111.774C232.227 117.715 247.721 130.248 254.018 139.427L278.757 122.456ZM135.935 97.5223C112.882 115.072 106.479 139.913 108.746 162.831C110.958 185.182 121.343 206.686 133.379 221.501L156.663 202.584C147.754 191.618 140.149 175.525 138.601 159.877C137.109 144.795 141.178 131.235 154.107 121.393L135.935 97.5223ZM141.684 197.418C127.84 200.578 105.654 206.918 87.7604 220.605C68.9288 235.008 54.9394 257.664 59.832 290.52L89.5048 286.101C86.4794 265.784 94.3302 253.349 105.986 244.434C118.58 234.801 135.53 229.594 148.358 226.666L141.684 197.418ZM59.832 290.52C64.4569 321.578 83.3733 340.546 104.766 350.676C125.524 360.506 148.912 362.301 165.744 360.119L161.887 330.368C149.719 331.945 132.293 330.518 117.606 323.563C103.555 316.909 92.3981 305.531 89.5048 286.101L59.832 290.52Z" fill="white"/>
<path d="M408.492 303.445L403.871 317.715C411.46 320.173 419.645 316.261 422.5 308.812L408.492 303.445ZM343.301 170.473L347.842 156.177L347.842 156.177L343.301 170.473ZM255.504 383.711L261.548 369.983L255.504 383.711ZM395.002 369.742C399.216 362.609 396.851 353.411 389.719 349.197C382.587 344.982 373.389 347.348 369.174 354.48L395.002 369.742ZM215.822 256.814L403.871 317.715L413.114 289.175L225.065 228.273L215.822 256.814ZM422.5 308.812C430.311 288.423 435.181 258.156 426.144 228.691C416.804 198.241 393.159 170.571 347.842 156.177L338.76 184.769C375.281 196.369 391.187 217.029 397.462 237.488C404.04 258.933 400.586 282.154 394.485 298.078L422.5 308.812ZM347.842 156.177C321.238 147.727 297.87 148.327 277.811 154.827C257.936 161.268 242.298 173.171 230.369 185.854C218.459 198.515 209.92 212.294 204.204 223.193C201.328 228.676 199.127 233.507 197.544 237.208C196.251 240.234 194.671 244.252 194.776 243.999L222.467 255.541C224.133 251.543 233.028 226.813 252.221 206.408C261.675 196.357 273.197 187.858 287.059 183.366C300.736 178.934 317.68 178.073 338.76 184.769L347.842 156.177ZM194.776 243.999C193.408 247.28 190.998 255.727 189.24 266.559C187.431 277.71 186.137 292.415 187.585 308.217C190.503 340.071 204.936 377.836 249.459 397.439L261.548 369.983C230.222 356.19 219.751 330.493 217.46 305.48C216.302 292.848 217.327 280.768 218.853 271.365C219.611 266.69 220.479 262.771 221.216 259.892C222.017 256.766 222.53 255.388 222.467 255.541L194.776 243.999ZM249.459 397.439C287.062 413.995 321.03 411.118 346.475 402.351C359.103 398 369.66 392.198 377.644 386.589C385.101 381.349 391.728 375.282 395.002 369.742L369.174 354.48C369.183 354.465 366.768 357.565 360.397 362.042C354.551 366.15 346.491 370.614 336.703 373.987C317.316 380.666 291.257 383.063 261.548 369.983L249.459 397.439Z" fill="white"/>
<path d="M274.457 220.846L316.658 200.106L316.658 237.888L359.772 220.846" stroke="white" stroke-width="20" stroke-linecap="round" stroke-linejoin="round"/>
<path d="M367.844 246.799L369.615 251.754L371.386 256.709" stroke="white" stroke-width="20" stroke-linecap="round" stroke-linejoin="round"/>
<defs>
<linearGradient id="paint0_linear_5029_817" x1="57" y1="37.5" x2="502.777" y2="512" gradientUnits="userSpaceOnUse">
<stop stop-color="#FDC830"/>
<stop offset="1" stop-color="#F37335"/>
</linearGradient>
</defs>
</svg>
