<svg width="706" height="1455" viewBox="0 0 706 1455" fill="none" xmlns="http://www.w3.org/2000/svg">
<path d="M630.929 87.004C477.452 48.4162 214.35 109.054 124.484 290.966C17.0215 508.5 174.779 643.373 177.764 645.897C177.857 645.976 177.783 645.915 177.88 645.989C180.941 648.346 279.938 723.936 360.518 706.571C462.836 684.521 462.836 627.906 462.836 607.346C462.836 593.406 462.836 530.17 331.285 535.683C199.733 541.195 97.4887 764 84.4943 854.5C74.4943 906.667 63 972.5 103.994 1062.5C134.98 1130.53 237.183 1228.5 207.495 1379.5" stroke="url(#paint0_linear_4756_860)" stroke-width="150" stroke-linecap="round"/>
<ellipse cx="630.753" cy="86.7037" rx="71.3674" ry="71.5356" transform="rotate(0.135101 630.753 86.7037)" fill="#F2A007"/>
<defs>
<linearGradient id="paint0_linear_4756_860" x1="352.964" y1="75.9062" x2="352.964" y2="1379.5" gradientUnits="userSpaceOnUse">
<stop stop-color="#FACB00"/>
<stop offset="1" stop-color="#F2994A"/>
</linearGradient>
</defs>
</svg>
