<svg width="3171" height="3288" viewBox="0 0 3171 3288" fill="none" xmlns="http://www.w3.org/2000/svg">
<mask id="path-1-inside-1_4734_792" fill="white">
<path fill-rule="evenodd" clip-rule="evenodd" d="M1593 88.082C1593 88.0367 1593.04 88 1593.08 88H3100.86C3106.92 88 3111.59 93.3508 3110.77 99.3571L2675.24 3278.7C2674.56 3283.65 2670.33 3287.34 2665.33 3287.34H1593.35C1593.3 3287.34 1593.27 3287.38 1593.27 3287.42C1593.27 3287.47 1593.23 3287.5 1593.18 3287.5H520.934C515.936 3287.5 511.705 3283.81 511.027 3278.86L75.5005 99.5211C74.6777 93.5149 79.3457 88.1641 85.408 88.1641H1592.92C1592.96 88.1641 1593 88.1273 1593 88.082Z"/>
</mask>
<path fill-rule="evenodd" clip-rule="evenodd" d="M1593 88.082C1593 88.0367 1593.04 88 1593.08 88H3100.86C3106.92 88 3111.59 93.3508 3110.77 99.3571L2675.24 3278.7C2674.56 3283.65 2670.33 3287.34 2665.33 3287.34H1593.35C1593.3 3287.34 1593.27 3287.38 1593.27 3287.42C1593.27 3287.47 1593.23 3287.5 1593.18 3287.5H520.934C515.936 3287.5 511.705 3283.81 511.027 3278.86L75.5005 99.5211C74.6777 93.5149 79.3457 88.1641 85.408 88.1641H1592.92C1592.96 88.1641 1593 88.1273 1593 88.082Z" fill="url(#paint0_linear_4734_792)"/>
<path d="M511.027 3278.86L509.045 3279.13L511.027 3278.86ZM2675.24 3278.7L2677.22 3278.97L2675.24 3278.7ZM3110.77 99.3571L3112.75 99.6285L3110.77 99.3571ZM3100.86 86H1593.08V90H3100.86V86ZM2677.22 3278.97L3112.75 99.6285L3108.78 99.0856L2673.26 3278.43L2677.22 3278.97ZM1593.35 3289.34H2665.33V3285.34H1593.35V3289.34ZM1593.18 3285.5H520.934V3289.5H1593.18V3285.5ZM513.008 3278.59L77.482 99.2497L73.519 99.7926L509.045 3279.13L513.008 3278.59ZM85.408 90.1641H1592.92V86.1641H85.408V90.1641ZM1592.92 90.1641C1594.07 90.1641 1595 89.2319 1595 88.082H1591C1591 87.0228 1591.86 86.1641 1592.92 86.1641V90.1641ZM77.482 99.2497C76.8238 94.4447 80.5581 90.1641 85.408 90.1641V86.1641C78.1333 86.1641 72.5317 92.5851 73.519 99.7926L77.482 99.2497ZM520.934 3285.5C516.935 3285.5 513.551 3282.55 513.008 3278.59L509.045 3279.13C509.859 3285.07 514.936 3289.5 520.934 3289.5V3285.5ZM1591.27 3287.42C1591.27 3286.36 1592.12 3285.5 1593.18 3285.5V3289.5C1594.33 3289.5 1595.27 3288.57 1595.27 3287.42H1591.27ZM1593.35 3285.34C1592.2 3285.34 1591.27 3286.27 1591.27 3287.42H1595.27C1595.27 3288.48 1594.41 3289.34 1593.35 3289.34V3285.34ZM2673.26 3278.43C2672.72 3282.39 2669.33 3285.34 2665.33 3285.34V3289.34C2671.33 3289.34 2676.41 3284.91 2677.22 3278.97L2673.26 3278.43ZM1593.08 86C1591.93 86 1591 86.9317 1591 88.082H1595C1595 89.1418 1594.14 90 1593.08 90V86ZM3100.86 90C3105.71 90 3109.44 94.2807 3108.78 99.0856L3112.75 99.6285C3113.73 92.421 3108.13 86 3100.86 86V90Z" fill="#FF4E00" mask="url(#path-1-inside-1_4734_792)"/>
<mask id="path-3-inside-2_4734_792" fill="white">
<path d="M0.851562 5.52343C0.851562 2.76201 3.09014 0.523438 5.85156 0.523438H3165.97C3168.73 0.523438 3170.97 2.76201 3170.97 5.52344V127.527C3170.97 130.288 3168.73 132.527 3165.97 132.527H5.85147C3.09005 132.527 0.851562 130.288 0.851562 127.527V5.52343Z"/>
</mask>
<path d="M0.851562 5.52343C0.851562 2.76201 3.09014 0.523438 5.85156 0.523438H3165.97C3168.73 0.523438 3170.97 2.76201 3170.97 5.52344V127.527C3170.97 130.288 3168.73 132.527 3165.97 132.527H5.85147C3.09005 132.527 0.851562 130.288 0.851562 127.527V5.52343Z" fill="#FBFBFB"/>
<path d="M5.85156 3.52344H3165.97V-2.47656H5.85156V3.52344ZM3167.97 5.52344V127.527H3173.97V5.52344H3167.97ZM3165.97 129.527H5.85147V135.527H3165.97V129.527ZM3.85156 127.527V5.52343H-2.14844V127.527H3.85156ZM5.85147 129.527C4.74697 129.527 3.85156 128.631 3.85156 127.527H-2.14844C-2.14844 131.945 1.43313 135.527 5.85147 135.527V129.527ZM3167.97 127.527C3167.97 128.631 3167.08 129.527 3165.97 129.527V135.527C3170.39 135.527 3173.97 131.945 3173.97 127.527H3167.97ZM3165.97 3.52344C3167.08 3.52344 3167.97 4.4188 3167.97 5.52344H3173.97C3173.97 1.10523 3170.39 -2.47656 3165.97 -2.47656V3.52344ZM5.85156 -2.47656C1.43329 -2.47656 -2.14844 1.10515 -2.14844 5.52343H3.85156C3.85156 4.41887 4.74699 3.52344 5.85156 3.52344V-2.47656Z" fill="#D9D9D9" mask="url(#path-3-inside-2_4734_792)"/>
<defs>
<linearGradient id="paint0_linear_4734_792" x1="807" y1="357.5" x2="2360" y2="2585" gradientUnits="userSpaceOnUse">
<stop stop-color="#FB6400"/>
<stop offset="1" stop-color="#FF512F"/>
</linearGradient>
</defs>
</svg>
