<svg width="4374" height="4836" viewBox="0 0 4374 4836" fill="none" xmlns="http://www.w3.org/2000/svg">
<path d="M183.127 136.727C182.094 136.317 181.581 135.137 181.988 134.102L233.846 1.8802C234.252 0.844675 235.421 0.351145 236.446 0.781836L2948.33 1139.48C2949.34 1139.9 2949.83 1141.07 2949.43 1142.09L2918.88 1219.99C2918.47 1221.01 2917.33 1221.51 2916.31 1221.1L183.127 136.727Z" fill="url(#paint0_linear_4734_789)"/>
<path d="M2306.5 684C2255.5 694 2150.5 777 2116.5 910C2077.21 1063.68 2160.99 1094 2165.5 1200.5C2169.59 1297.22 2135 1376 2071 1429.5C2005.67 1484.12 1990 1571.5 1992.5 1607C1995 1642.5 2025.5 1802.5 2096.5 1868" stroke="url(#paint1_linear_4734_789)" stroke-width="150" stroke-linecap="round"/>
<ellipse cx="2305.53" cy="683.704" rx="71.3674" ry="71.5356" transform="rotate(0.135101 2305.53 683.704)" fill="#F2A007"/>
<path d="M2801.93 829.004C2648.45 790.416 2385.35 851.054 2295.48 1032.97C2188.02 1250.5 2345.78 1385.37 2348.76 1387.9C2348.86 1387.98 2348.78 1387.91 2348.88 1387.99C2351.94 1390.35 2450.94 1465.94 2531.52 1448.57C2633.84 1426.52 2633.84 1369.91 2633.84 1349.35C2633.84 1335.41 2633.84 1272.17 2502.28 1277.68C2370.73 1283.2 2268.49 1506 2255.49 1596.5C2245.49 1648.67 2234 1714.5 2274.99 1804.5C2305.98 1872.53 2408.18 1970.5 2378.5 2121.5" stroke="url(#paint2_linear_4734_789)" stroke-width="150" stroke-linecap="round"/>
<ellipse cx="2801.75" cy="828.704" rx="71.3674" ry="71.5356" transform="rotate(0.135101 2801.75 828.704)" fill="#F2A007"/>
<path d="M1.99429 607.629C0.896043 607.448 0.219711 606.42 0.488996 605.341L34.7418 468.073C35.0111 466.994 36.1225 466.278 37.2155 466.48L2945.17 1003.97C2946.25 1004.17 2946.9 1005.19 2946.64 1006.26L2926.46 1087.12C2926.19 1088.19 2925.11 1088.9 2924.02 1088.72L1.99429 607.629Z" fill="url(#paint3_linear_4734_789)"/>
<mask id="path-7-inside-1_4734_789" fill="white">
<path fill-rule="evenodd" clip-rule="evenodd" d="M2796 1636.08C2796 1636.04 2796.04 1636 2796.08 1636H4303.86C4309.92 1636 4314.59 1641.35 4313.77 1647.36L3878.24 4826.7C3877.56 4831.65 3873.33 4835.34 3868.33 4835.34H2796.35C2796.3 4835.34 2796.27 4835.38 2796.27 4835.42C2796.27 4835.47 2796.23 4835.5 2796.18 4835.5H1723.93C1718.94 4835.5 1714.7 4831.81 1714.03 4826.86L1278.5 1647.52C1277.68 1641.51 1282.35 1636.16 1288.41 1636.16H2795.92C2795.96 1636.16 2796 1636.13 2796 1636.08Z"/>
</mask>
<path fill-rule="evenodd" clip-rule="evenodd" d="M2796 1636.08C2796 1636.04 2796.04 1636 2796.08 1636H4303.86C4309.92 1636 4314.59 1641.35 4313.77 1647.36L3878.24 4826.7C3877.56 4831.65 3873.33 4835.34 3868.33 4835.34H2796.35C2796.3 4835.34 2796.27 4835.38 2796.27 4835.42C2796.27 4835.47 2796.23 4835.5 2796.18 4835.5H1723.93C1718.94 4835.5 1714.7 4831.81 1714.03 4826.86L1278.5 1647.52C1277.68 1641.51 1282.35 1636.16 1288.41 1636.16H2795.92C2795.96 1636.16 2796 1636.13 2796 1636.08Z" fill="url(#paint4_linear_4734_789)"/>
<path d="M1714.03 4826.86L1712.05 4827.13L1714.03 4826.86ZM3878.24 4826.7L3880.22 4826.97L3878.24 4826.7ZM4313.77 1647.36L4315.75 1647.63L4313.77 1647.36ZM4303.86 1634H2796.08V1638H4303.86V1634ZM3880.22 4826.97L4315.75 1647.63L4311.78 1647.09L3876.26 4826.43L3880.22 4826.97ZM2796.35 4837.34H3868.33V4833.34H2796.35V4837.34ZM2796.18 4833.5H1723.93V4837.5H2796.18V4833.5ZM1716.01 4826.59L1280.48 1647.25L1276.52 1647.79L1712.05 4827.13L1716.01 4826.59ZM1288.41 1638.16H2795.92V1634.16H1288.41V1638.16ZM2795.92 1638.16C2797.07 1638.16 2798 1637.23 2798 1636.08H2794C2794 1635.02 2794.86 1634.16 2795.92 1634.16V1638.16ZM1280.48 1647.25C1279.82 1642.44 1283.56 1638.16 1288.41 1638.16V1634.16C1281.13 1634.16 1275.53 1640.59 1276.52 1647.79L1280.48 1647.25ZM1723.93 4833.5C1719.94 4833.5 1716.55 4830.55 1716.01 4826.59L1712.05 4827.13C1712.86 4833.07 1717.94 4837.5 1723.93 4837.5V4833.5ZM2794.27 4835.42C2794.27 4834.36 2795.12 4833.5 2796.18 4833.5V4837.5C2797.33 4837.5 2798.27 4836.57 2798.27 4835.42H2794.27ZM2796.35 4833.34C2795.2 4833.34 2794.27 4834.27 2794.27 4835.42H2798.27C2798.27 4836.48 2797.41 4837.34 2796.35 4837.34V4833.34ZM3876.26 4826.43C3875.72 4830.39 3872.33 4833.34 3868.33 4833.34V4837.34C3874.33 4837.34 3879.41 4832.91 3880.22 4826.97L3876.26 4826.43ZM2796.08 1634C2794.93 1634 2794 1634.93 2794 1636.08H2798C2798 1637.14 2797.14 1638 2796.08 1638V1634ZM4303.86 1638C4308.71 1638 4312.44 1642.28 4311.78 1647.09L4315.75 1647.63C4316.73 1640.42 4311.13 1634 4303.86 1634V1638Z" fill="#FF4E00" mask="url(#path-7-inside-1_4734_789)"/>
<mask id="path-9-inside-2_4734_789" fill="white">
<path d="M1203.85 1553.52C1203.85 1550.76 1206.09 1548.52 1208.85 1548.52H4368.97C4371.73 1548.52 4373.97 1550.76 4373.97 1553.52V1675.53C4373.97 1678.29 4371.73 1680.53 4368.97 1680.53H1208.85C1206.09 1680.53 1203.85 1678.29 1203.85 1675.53V1553.52Z"/>
</mask>
<path d="M1203.85 1553.52C1203.85 1550.76 1206.09 1548.52 1208.85 1548.52H4368.97C4371.73 1548.52 4373.97 1550.76 4373.97 1553.52V1675.53C4373.97 1678.29 4371.73 1680.53 4368.97 1680.53H1208.85C1206.09 1680.53 1203.85 1678.29 1203.85 1675.53V1553.52Z" fill="#FBFBFB"/>
<path d="M1208.85 1551.52H4368.97V1545.52H1208.85V1551.52ZM4370.97 1553.52V1675.53H4376.97V1553.52H4370.97ZM4368.97 1677.53H1208.85V1683.53H4368.97V1677.53ZM1206.85 1675.53V1553.52H1200.85V1675.53H1206.85ZM1208.85 1677.53C1207.75 1677.53 1206.85 1676.63 1206.85 1675.53H1200.85C1200.85 1679.94 1204.43 1683.53 1208.85 1683.53V1677.53ZM4370.97 1675.53C4370.97 1676.63 4370.08 1677.53 4368.97 1677.53V1683.53C4373.39 1683.53 4376.97 1679.94 4376.97 1675.53H4370.97ZM4368.97 1551.52C4370.08 1551.52 4370.97 1552.42 4370.97 1553.52H4376.97C4376.97 1549.11 4373.39 1545.52 4368.97 1545.52V1551.52ZM1208.85 1545.52C1204.43 1545.52 1200.85 1549.11 1200.85 1553.52H1206.85C1206.85 1552.42 1207.75 1551.52 1208.85 1551.52V1545.52Z" fill="#D9D9D9" mask="url(#path-9-inside-2_4734_789)"/>
<defs>
<linearGradient id="paint0_linear_4734_789" x1="1597.7" y1="556.524" x2="1542.5" y2="691.742" gradientUnits="userSpaceOnUse">
<stop stop-color="#008CFF"/>
<stop offset="1" stop-color="#177FFF"/>
</linearGradient>
<linearGradient id="paint1_linear_4734_789" x1="2149.38" y1="684" x2="2149.38" y2="1868" gradientUnits="userSpaceOnUse">
<stop stop-color="#FACB00"/>
<stop offset="1" stop-color="#F2994A"/>
</linearGradient>
<linearGradient id="paint2_linear_4734_789" x1="2523.96" y1="817.906" x2="2523.96" y2="2121.5" gradientUnits="userSpaceOnUse">
<stop stop-color="#FACB00"/>
<stop offset="1" stop-color="#F2994A"/>
</linearGradient>
<linearGradient id="paint3_linear_4734_789" x1="1494.7" y1="721.105" x2="1469.72" y2="864.083" gradientUnits="userSpaceOnUse">
<stop stop-color="#008CFF"/>
<stop offset="1" stop-color="#0072FF"/>
</linearGradient>
<linearGradient id="paint4_linear_4734_789" x1="2010" y1="1905.5" x2="3563" y2="4133" gradientUnits="userSpaceOnUse">
<stop stop-color="#FB6400"/>
<stop offset="1" stop-color="#FF512F"/>
</linearGradient>
</defs>
</svg>
