<svg width="580" height="580" viewBox="0 0 580 580" fill="none" xmlns="http://www.w3.org/2000/svg">
<mask id="path-1-inside-1_4753_1401" fill="white">
<path d="M277 13C277 5.8203 282.82 0 290 0C297.18 0 303 5.8203 303 13V187C303 194.18 297.18 200 290 200C282.82 200 277 194.18 277 187V13Z"/>
</mask>
<path d="M312 13C312 25.1503 302.15 35 290 35V-35C263.49 -35 242 -13.5097 242 13H312ZM290 35C277.85 35 268 25.1503 268 13H338C338 -13.5097 316.51 -35 290 -35V35ZM268 13V187H338V13H268ZM268 187C268 174.85 277.85 165 290 165V235C316.51 235 338 213.51 338 187H268ZM290 165C302.15 165 312 174.85 312 187H242C242 213.51 263.49 235 290 235V165ZM312 187V13H242V187H312Z" fill="url(#paint0_linear_4753_1401)" mask="url(#path-1-inside-1_4753_1401)"/>
<mask id="path-3-inside-2_4753_1401" fill="white">
<path d="M277 393C277 385.82 282.82 380 290 380C297.18 380 303 385.82 303 393V567C303 574.18 297.18 580 290 580C282.82 580 277 574.18 277 567V393Z"/>
</mask>
<path d="M312 393C312 405.15 302.15 415 290 415V345C263.49 345 242 366.49 242 393H312ZM290 415C277.85 415 268 405.15 268 393H338C338 366.49 316.51 345 290 345V415ZM268 393V567H338V393H268ZM268 567C268 554.85 277.85 545 290 545V615C316.51 615 338 593.51 338 567H268ZM290 545C302.15 545 312 554.85 312 567H242C242 593.51 263.49 615 290 615V545ZM312 567V393H242V567H312Z" fill="url(#paint1_linear_4753_1401)" mask="url(#path-3-inside-2_4753_1401)"/>
<mask id="path-5-inside-3_4753_1401" fill="white">
<path d="M567 277C574.18 277 580 282.82 580 290C580 297.18 574.18 303 567 303L393 303C385.82 303 380 297.18 380 290C380 282.82 385.82 277 393 277L567 277Z"/>
</mask>
<path d="M567 277L567 242L567 277ZM580 290L615 290L580 290ZM567 303L567 338L567 303ZM393 303L393 268L393 303ZM380 290L415 290L380 290ZM393 277L393 312L393 277ZM567 312C554.85 312 545 302.15 545 290L615 290C615 263.49 593.51 242 567 242L567 312ZM545 290C545 277.85 554.85 268 567 268L567 338C593.51 338 615 316.51 615 290L545 290ZM567 268L393 268L393 338L567 338L567 268ZM393 268C405.15 268 415 277.85 415 290L345 290C345 316.51 366.49 338 393 338L393 268ZM415 290C415 302.15 405.15 312 393 312L393 242C366.49 242 345 263.49 345 290L415 290ZM393 312L567 312L567 242L393 242L393 312Z" fill="url(#paint2_linear_4753_1401)" mask="url(#path-5-inside-3_4753_1401)"/>
<mask id="path-7-inside-4_4753_1401" fill="white">
<path d="M187 277C194.18 277 200 282.82 200 290C200 297.18 194.18 303 187 303L13 303C5.8203 303 -3.13835e-07 297.18 0 290C3.13835e-07 282.82 5.8203 277 13 277L187 277Z"/>
</mask>
<path d="M187 277L187 242L187 277ZM200 290L235 290L200 290ZM187 303L187 338L187 303ZM13 303L13 268L13 303ZM0 290L35 290L0 290ZM13 277L13 312L13 277ZM187 312C174.85 312 165 302.15 165 290L235 290C235 263.49 213.51 242 187 242L187 312ZM165 290C165 277.85 174.85 268 187 268L187 338C213.51 338 235 316.51 235 290L165 290ZM187 268L13 268L13 338L187 338L187 268ZM13 268C25.1503 268 35 277.85 35 290L-35 290C-35 316.51 -13.5097 338 13 338L13 268ZM35 290C35 302.15 25.1503 312 13 312L13 242C-13.5097 242 -35 263.49 -35 290L35 290ZM13 312L187 312L187 242L13 242L13 312Z" fill="url(#paint3_linear_4753_1401)" mask="url(#path-7-inside-4_4753_1401)"/>
<mask id="path-9-inside-5_4753_1401" fill="white">
<path d="M476.672 84.9394C481.749 79.8626 489.98 79.8626 495.057 84.9394C500.134 90.0163 500.134 98.2474 495.057 103.324L372.021 226.361C366.944 231.438 358.713 231.438 353.636 226.361C348.559 221.284 348.559 213.053 353.636 207.976L476.672 84.9394Z"/>
</mask>
<path d="M476.672 84.9394L451.924 60.1907L476.672 84.9394ZM353.636 207.976L378.384 232.725L353.636 207.976ZM501.421 109.688C492.83 118.28 478.9 118.28 470.308 109.688L519.806 60.1907C501.061 41.4455 470.669 41.4455 451.924 60.1907L501.421 109.688ZM470.308 109.688C461.717 101.097 461.717 87.167 470.308 78.5755L519.806 128.073C538.551 109.328 538.551 78.9359 519.806 60.1907L470.308 109.688ZM470.308 78.5755L347.272 201.612L396.769 251.11L519.806 128.073L470.308 78.5755ZM347.272 201.612C355.863 193.021 369.793 193.021 378.384 201.612L328.887 251.11C347.632 269.855 378.024 269.855 396.769 251.11L347.272 201.612ZM378.384 201.612C386.976 210.204 386.976 224.133 378.384 232.725L328.887 183.227C310.142 201.972 310.142 232.364 328.887 251.11L378.384 201.612ZM378.384 232.725L501.421 109.688L451.924 60.1907L328.887 183.227L378.384 232.725Z" fill="url(#paint4_linear_4753_1401)" mask="url(#path-9-inside-5_4753_1401)"/>
<mask id="path-11-inside-6_4753_1401" fill="white">
<path d="M207.977 353.64C213.054 348.563 221.285 348.563 226.362 353.64C231.439 358.716 231.439 366.948 226.362 372.024L103.325 495.061C98.2484 500.138 90.0172 500.138 84.9404 495.061C79.8636 489.984 79.8636 481.753 84.9404 476.676L207.977 353.64Z"/>
</mask>
<path d="M207.977 353.64L183.228 328.891L207.977 353.64ZM84.9404 476.676L109.689 501.425L84.9404 476.676ZM232.726 378.388C224.134 386.98 210.205 386.98 201.613 378.388L251.111 328.891C232.365 310.146 201.973 310.146 183.228 328.891L232.726 378.388ZM201.613 378.388C193.021 369.797 193.021 355.867 201.613 347.276L251.111 396.773C269.856 378.028 269.856 347.636 251.111 328.891L201.613 378.388ZM201.613 347.276L78.5765 470.312L128.074 519.81L251.111 396.773L201.613 347.276ZM78.5765 470.312C87.168 461.721 101.098 461.721 109.689 470.312L60.1917 519.81C78.9368 538.555 109.329 538.555 128.074 519.81L78.5765 470.312ZM109.689 470.312C118.281 478.904 118.281 492.833 109.689 501.425L60.1917 451.927C41.4465 470.673 41.4465 501.065 60.1917 519.81L109.689 470.312ZM109.689 501.425L232.726 378.388L183.228 328.891L60.1917 451.927L109.689 501.425Z" fill="url(#paint5_linear_4753_1401)" mask="url(#path-11-inside-6_4753_1401)"/>
<mask id="path-13-inside-7_4753_1401" fill="white">
<path d="M495.065 476.674C500.142 481.751 500.142 489.982 495.065 495.059C489.988 500.136 481.757 500.136 476.68 495.059L353.644 372.022C348.567 366.946 348.567 358.715 353.644 353.638C358.72 348.561 366.952 348.561 372.028 353.638L495.065 476.674Z"/>
</mask>
<path d="M495.065 476.674L519.814 451.926L495.065 476.674ZM495.065 495.059L519.814 519.808L519.814 519.808L495.065 495.059ZM476.68 495.059L501.429 470.31L476.68 495.059ZM353.644 372.022L328.895 396.771L353.644 372.022ZM353.644 353.638L378.392 378.386L378.392 378.386L353.644 353.638ZM372.028 353.638L347.28 378.386L372.028 353.638ZM470.316 501.423C461.725 492.831 461.725 478.902 470.316 470.31L519.814 519.808C538.559 501.063 538.559 470.671 519.814 451.926L470.316 501.423ZM470.316 470.31C478.908 461.719 492.837 461.719 501.429 470.31L451.931 519.808C470.677 538.553 501.068 538.553 519.814 519.808L470.316 470.31ZM501.429 470.31L378.392 347.274L328.895 396.771L451.931 519.808L501.429 470.31ZM378.392 347.274C386.984 355.865 386.984 369.795 378.392 378.386L328.895 328.889C310.15 347.634 310.15 378.026 328.895 396.771L378.392 347.274ZM378.392 378.386C369.801 386.978 355.871 386.978 347.28 378.386L396.777 328.889C378.032 310.144 347.64 310.144 328.895 328.889L378.392 378.386ZM347.28 378.386L470.316 501.423L519.814 451.926L396.777 328.889L347.28 378.386Z" fill="url(#paint6_linear_4753_1401)" mask="url(#path-13-inside-7_4753_1401)"/>
<mask id="path-15-inside-8_4753_1401" fill="white">
<path d="M226.362 207.979C231.439 213.056 231.439 221.287 226.362 226.364C221.285 231.441 213.054 231.441 207.977 226.364L84.9404 103.327C79.8636 98.2503 79.8636 90.0192 84.9404 84.9424C90.0172 79.8656 98.2484 79.8656 103.325 84.9424L226.362 207.979Z"/>
</mask>
<path d="M226.362 207.979L251.111 183.23L226.362 207.979ZM226.362 226.364L251.111 251.112L251.111 251.112L226.362 226.364ZM207.977 226.364L232.726 201.615L207.977 226.364ZM84.9404 103.327L60.1917 128.076L84.9404 103.327ZM84.9404 84.9424L109.689 109.691L109.689 109.691L84.9404 84.9424ZM103.325 84.9424L78.5765 109.691L103.325 84.9424ZM201.613 232.728C193.022 224.136 193.021 210.207 201.613 201.615L251.111 251.112C269.856 232.367 269.856 201.975 251.111 183.23L201.613 232.728ZM201.613 201.615C210.205 193.023 224.134 193.023 232.726 201.615L183.228 251.112C201.973 269.858 232.365 269.858 251.111 251.112L201.613 201.615ZM232.726 201.615L109.689 78.5784L60.1917 128.076L183.228 251.112L232.726 201.615ZM109.689 78.5784C118.281 87.17 118.281 101.1 109.689 109.691L60.1917 60.1936C41.4465 78.9388 41.4465 109.331 60.1917 128.076L109.689 78.5784ZM109.689 109.691C101.098 118.283 87.168 118.283 78.5765 109.691L128.074 60.1936C109.329 41.4485 78.9369 41.4485 60.1917 60.1936L109.689 109.691ZM78.5765 109.691L201.613 232.728L251.111 183.23L128.074 60.1936L78.5765 109.691Z" fill="url(#paint7_linear_4753_1401)" mask="url(#path-15-inside-8_4753_1401)"/>
<defs>
<linearGradient id="paint0_linear_4753_1401" x1="290" y1="0" x2="290" y2="200" gradientUnits="userSpaceOnUse">
<stop stop-color="#ACB6E5"/>
<stop offset="1" stop-color="#7BC6CC"/>
</linearGradient>
<linearGradient id="paint1_linear_4753_1401" x1="290" y1="380" x2="290" y2="580" gradientUnits="userSpaceOnUse">
<stop stop-color="#ACB6E5"/>
<stop offset="1" stop-color="#7BC6CC"/>
</linearGradient>
<linearGradient id="paint2_linear_4753_1401" x1="580" y1="290" x2="380" y2="290" gradientUnits="userSpaceOnUse">
<stop stop-color="#ACB6E5"/>
<stop offset="1" stop-color="#7BC6CC"/>
</linearGradient>
<linearGradient id="paint3_linear_4753_1401" x1="200" y1="290" x2="-5.68248e-07" y2="290" gradientUnits="userSpaceOnUse">
<stop stop-color="#ACB6E5"/>
<stop offset="1" stop-color="#7BC6CC"/>
</linearGradient>
<linearGradient id="paint4_linear_4753_1401" x1="495.06" y1="84.9395" x2="353.638" y2="226.361" gradientUnits="userSpaceOnUse">
<stop stop-color="#ACB6E5"/>
<stop offset="1" stop-color="#7BC6CC"/>
</linearGradient>
<linearGradient id="paint5_linear_4753_1401" x1="226.364" y1="353.64" x2="84.9429" y2="495.061" gradientUnits="userSpaceOnUse">
<stop stop-color="#ACB6E5"/>
<stop offset="1" stop-color="#7BC6CC"/>
</linearGradient>
<linearGradient id="paint6_linear_4753_1401" x1="495.065" y1="495.059" x2="353.644" y2="353.637" gradientUnits="userSpaceOnUse">
<stop stop-color="#ACB6E5"/>
<stop offset="1" stop-color="#7BC6CC"/>
</linearGradient>
<linearGradient id="paint7_linear_4753_1401" x1="226.362" y1="226.363" x2="84.941" y2="84.9419" gradientUnits="userSpaceOnUse">
<stop stop-color="#ACB6E5"/>
<stop offset="1" stop-color="#7BC6CC"/>
</linearGradient>
</defs>
</svg>
