<svg width="3475" height="4776" viewBox="0 0 3475 4776" fill="none" xmlns="http://www.w3.org/2000/svg">
<mask id="path-1-inside-1_4734_829" fill="white">
<path fill-rule="evenodd" clip-rule="evenodd" d="M1502.86 0.242188C1542.39 0.242188 1574.43 32.2849 1574.43 71.8115C1574.43 111.338 1606.47 143.381 1646 143.381H2027.73C2058.06 143.381 2086.74 157.14 2105.72 180.789L3452.18 1858.49C3466.43 1876.24 3474.2 1898.32 3474.2 1921.08V4575.64C3474.2 4686.1 3384.65 4775.64 3274.2 4775.64H200C89.5431 4775.64 0 4686.1 0 4575.64V343.381C0 232.924 89.5431 143.381 200 143.381H761.181C800.707 143.381 832.75 111.338 832.75 71.8115C832.75 32.2849 864.793 0.242188 904.319 0.242188H1502.86ZM1612.22 891.789C1569.14 926.358 1562.25 989.298 1596.82 1032.37L2656.19 2352.35C2690.76 2395.42 2753.7 2402.31 2796.77 2367.75L3024.23 2185.19C3067.31 2150.62 3074.2 2087.68 3039.63 2044.61L1980.26 724.632C1945.69 681.56 1882.75 674.666 1839.68 709.235L1612.22 891.789Z"/>
</mask>
<path fill-rule="evenodd" clip-rule="evenodd" d="M1502.86 0.242188C1542.39 0.242188 1574.43 32.2849 1574.43 71.8115C1574.43 111.338 1606.47 143.381 1646 143.381H2027.73C2058.06 143.381 2086.74 157.14 2105.72 180.789L3452.18 1858.49C3466.43 1876.24 3474.2 1898.32 3474.2 1921.08V4575.64C3474.2 4686.1 3384.65 4775.64 3274.2 4775.64H200C89.5431 4775.64 0 4686.1 0 4575.64V343.381C0 232.924 89.5431 143.381 200 143.381H761.181C800.707 143.381 832.75 111.338 832.75 71.8115C832.75 32.2849 864.793 0.242188 904.319 0.242188H1502.86ZM1612.22 891.789C1569.14 926.358 1562.25 989.298 1596.82 1032.37L2656.19 2352.35C2690.76 2395.42 2753.7 2402.31 2796.77 2367.75L3024.23 2185.19C3067.31 2150.62 3074.2 2087.68 3039.63 2044.61L1980.26 724.632C1945.69 681.56 1882.75 674.666 1839.68 709.235L1612.22 891.789Z" fill="url(#paint0_linear_4734_829)"/>
<path d="M2105.72 180.789L2104.16 182.041L2105.72 180.789ZM3452.18 1858.49L3450.62 1859.74L3452.18 1858.49ZM1596.82 1032.37L1595.26 1033.62L1596.82 1032.37ZM1612.22 891.789L1613.47 893.349L1612.22 891.789ZM2656.19 2352.35L2657.75 2351.1L2656.19 2352.35ZM2796.77 2367.75L2795.52 2366.19H2795.52L2796.77 2367.75ZM3024.23 2185.19L3022.98 2183.63L3024.23 2185.19ZM3039.63 2044.61L3041.19 2043.36L3039.63 2044.61ZM1980.26 724.632L1981.82 723.38L1980.26 724.632ZM1839.68 709.235L1838.43 707.675L1839.68 709.235ZM1576.43 71.8115C1576.43 31.1803 1543.49 -1.75781 1502.86 -1.75781V2.24219C1541.28 2.24219 1572.43 33.3894 1572.43 71.8115H1576.43ZM1646 141.381C1607.58 141.381 1576.43 110.234 1576.43 71.8115H1572.43C1572.43 112.443 1605.37 145.381 1646 145.381V141.381ZM2027.73 141.381H1646V145.381H2027.73V141.381ZM2107.28 179.537C2087.92 155.415 2058.66 141.381 2027.73 141.381V145.381C2057.45 145.381 2085.56 158.865 2104.16 182.041L2107.28 179.537ZM3453.74 1857.23L2107.28 179.537L2104.16 182.041L3450.62 1859.74L3453.74 1857.23ZM3476.2 1921.08C3476.2 1897.86 3468.28 1875.34 3453.74 1857.23L3450.62 1859.74C3464.59 1877.13 3472.2 1898.77 3472.2 1921.08H3476.2ZM3476.2 4575.64V1921.08H3472.2V4575.64H3476.2ZM3274.2 4777.64C3385.76 4777.64 3476.2 4687.2 3476.2 4575.64H3472.2C3472.2 4684.99 3383.55 4773.64 3274.2 4773.64V4777.64ZM200 4777.64H3274.2V4773.64H200V4777.64ZM-2 4575.64C-2 4687.2 88.4386 4777.64 200 4777.64V4773.64C90.6477 4773.64 2 4684.99 2 4575.64H-2ZM-2 343.381V4575.64H2V343.381H-2ZM200 141.381C88.4385 141.381 -2 231.819 -2 343.381H2C2 234.028 90.6476 145.381 200 145.381V141.381ZM761.181 141.381H200V145.381H761.181V141.381ZM830.75 71.8115C830.75 110.234 799.603 141.381 761.181 141.381V145.381C801.812 145.381 834.75 112.443 834.75 71.8115H830.75ZM904.319 -1.75781C863.688 -1.75781 830.75 31.1803 830.75 71.8115H834.75C834.75 33.3894 865.897 2.24219 904.319 2.24219V-1.75781ZM1502.86 -1.75781H904.319V2.24219H1502.86V-1.75781ZM1598.38 1031.12C1564.5 988.907 1571.26 927.226 1613.47 893.349L1610.96 890.23C1567.03 925.489 1560 989.688 1595.26 1033.62L1598.38 1031.12ZM2657.75 2351.1L1598.38 1031.12L1595.26 1033.62L2654.63 2353.6L2657.75 2351.1ZM2795.52 2366.19C2753.31 2400.06 2691.63 2393.31 2657.75 2351.1L2654.63 2353.6C2689.89 2397.53 2754.09 2404.56 2798.02 2369.3L2795.52 2366.19ZM3022.98 2183.63L2795.52 2366.19L2798.02 2369.3L3025.48 2186.75L3022.98 2183.63ZM3038.07 2045.86C3071.95 2088.07 3065.19 2149.75 3022.98 2183.63L3025.48 2186.75C3069.42 2151.49 3076.45 2087.29 3041.19 2043.36L3038.07 2045.86ZM1978.7 725.884L3038.07 2045.86L3041.19 2043.36L1981.82 723.38L1978.7 725.884ZM1840.93 710.794C1883.14 676.917 1944.82 683.673 1978.7 725.884L1981.82 723.38C1946.56 679.447 1882.36 672.415 1838.43 707.675L1840.93 710.794ZM1613.47 893.349L1840.93 710.794L1838.43 707.675L1610.96 890.23L1613.47 893.349Z" fill="#3BA63E" mask="url(#path-1-inside-1_4734_829)"/>
<defs>
<linearGradient id="paint0_linear_4734_829" x1="277.5" y1="326.5" x2="2306.5" y2="3851.5" gradientUnits="userSpaceOnUse">
<stop stop-color="#7AC960"/>
<stop offset="1" stop-color="#45B649"/>
</linearGradient>
</defs>
</svg>
