<svg width="821" height="326" viewBox="0 0 821 326" fill="none" xmlns="http://www.w3.org/2000/svg">
<rect x="1.66406" y="1" width="817.754" height="323.299" rx="19" fill="#E9DD19" stroke="#F8BB00" stroke-width="2"/>
<rect x="63" y="41" width="12" height="244" rx="6" fill="url(#paint0_linear_4756_809)" stroke="#FF7300" stroke-width="2"/>
<rect x="291" y="41" width="12" height="244" rx="6" fill="url(#paint1_linear_4756_809)" stroke="#FF7300" stroke-width="2"/>
<rect x="519" y="41" width="12" height="244" rx="6" fill="url(#paint2_linear_4756_809)" stroke="#FF7300" stroke-width="2"/>
<rect x="177" y="41" width="12" height="244" rx="6" fill="url(#paint3_linear_4756_809)" stroke="#FF7300" stroke-width="2"/>
<rect x="405" y="41" width="12" height="244" rx="6" fill="url(#paint4_linear_4756_809)" stroke="#FF7300" stroke-width="2"/>
<rect x="633" y="41" width="12" height="244" rx="6" fill="url(#paint5_linear_4756_809)" stroke="#FF7300" stroke-width="2"/>
<rect x="747" y="41" width="12" height="244" rx="6" fill="url(#paint6_linear_4756_809)" stroke="#FF7300" stroke-width="2"/>
<defs>
<linearGradient id="paint0_linear_4756_809" x1="69" y1="40" x2="69" y2="286" gradientUnits="userSpaceOnUse">
<stop stop-color="#F2A007"/>
<stop offset="1" stop-color="#FF845C"/>
</linearGradient>
<linearGradient id="paint1_linear_4756_809" x1="297" y1="40" x2="297" y2="286" gradientUnits="userSpaceOnUse">
<stop stop-color="#F2A007"/>
<stop offset="1" stop-color="#FF845C"/>
</linearGradient>
<linearGradient id="paint2_linear_4756_809" x1="525" y1="40" x2="525" y2="286" gradientUnits="userSpaceOnUse">
<stop stop-color="#F2A007"/>
<stop offset="1" stop-color="#FF845C"/>
</linearGradient>
<linearGradient id="paint3_linear_4756_809" x1="183" y1="40" x2="183" y2="286" gradientUnits="userSpaceOnUse">
<stop stop-color="#F2A007"/>
<stop offset="1" stop-color="#FF845C"/>
</linearGradient>
<linearGradient id="paint4_linear_4756_809" x1="411" y1="40" x2="411" y2="286" gradientUnits="userSpaceOnUse">
<stop stop-color="#F2A007"/>
<stop offset="1" stop-color="#FF845C"/>
</linearGradient>
<linearGradient id="paint5_linear_4756_809" x1="639" y1="40" x2="639" y2="286" gradientUnits="userSpaceOnUse">
<stop stop-color="#F2A007"/>
<stop offset="1" stop-color="#FF845C"/>
</linearGradient>
<linearGradient id="paint6_linear_4756_809" x1="753" y1="40" x2="753" y2="286" gradientUnits="userSpaceOnUse">
<stop stop-color="#F2A007"/>
<stop offset="1" stop-color="#FF845C"/>
</linearGradient>
</defs>
</svg>
