<svg width="3475" height="5036" viewBox="0 0 3475 5036" fill="none" xmlns="http://www.w3.org/2000/svg">
<mask id="path-1-inside-1_4734_828" fill="white">
<path fill-rule="evenodd" clip-rule="evenodd" d="M1502.86 260.242C1542.39 260.242 1574.43 292.285 1574.43 331.812C1574.43 371.338 1606.47 403.381 1646 403.381H2027.73C2058.06 403.381 2086.74 417.14 2105.72 440.789L3452.18 2118.49C3466.43 2136.24 3474.2 2158.32 3474.2 2181.08V4835.64C3474.2 4946.1 3384.65 5035.64 3274.2 5035.64H200C89.5431 5035.64 0 4946.1 0 4835.64V603.381C0 492.924 89.5431 403.381 200 403.381H761.181C800.707 403.381 832.75 371.338 832.75 331.812C832.75 292.285 864.793 260.242 904.319 260.242H1502.86ZM1612.22 1151.79C1569.14 1186.36 1562.25 1249.3 1596.82 1292.37L2656.19 2612.35C2690.76 2655.42 2753.7 2662.31 2796.77 2627.75L3024.23 2445.19C3067.31 2410.62 3074.2 2347.68 3039.63 2304.61L1980.26 984.632C1945.69 941.56 1882.75 934.666 1839.68 969.235L1612.22 1151.79Z"/>
</mask>
<path fill-rule="evenodd" clip-rule="evenodd" d="M1502.86 260.242C1542.39 260.242 1574.43 292.285 1574.43 331.812C1574.43 371.338 1606.47 403.381 1646 403.381H2027.73C2058.06 403.381 2086.74 417.14 2105.72 440.789L3452.18 2118.49C3466.43 2136.24 3474.2 2158.32 3474.2 2181.08V4835.64C3474.2 4946.1 3384.65 5035.64 3274.2 5035.64H200C89.5431 5035.64 0 4946.1 0 4835.64V603.381C0 492.924 89.5431 403.381 200 403.381H761.181C800.707 403.381 832.75 371.338 832.75 331.812C832.75 292.285 864.793 260.242 904.319 260.242H1502.86ZM1612.22 1151.79C1569.14 1186.36 1562.25 1249.3 1596.82 1292.37L2656.19 2612.35C2690.76 2655.42 2753.7 2662.31 2796.77 2627.75L3024.23 2445.19C3067.31 2410.62 3074.2 2347.68 3039.63 2304.61L1980.26 984.632C1945.69 941.56 1882.75 934.666 1839.68 969.235L1612.22 1151.79Z" fill="url(#paint0_linear_4734_828)"/>
<path d="M2105.72 440.789L2104.16 442.041L2104.16 442.041L2105.72 440.789ZM3452.18 2118.49L3450.63 2119.74L3450.63 2119.74L3452.18 2118.49ZM1596.82 1292.37L1595.26 1293.62L1595.26 1293.62L1596.82 1292.37ZM1612.22 1151.79L1613.47 1153.35L1613.47 1153.35L1612.22 1151.79ZM2656.19 2612.35L2657.75 2611.1L2657.75 2611.1L2656.19 2612.35ZM2796.77 2627.75L2795.52 2626.19L2795.52 2626.19L2796.77 2627.75ZM3024.23 2445.19L3022.98 2443.63L3022.98 2443.63L3024.23 2445.19ZM3039.63 2304.61L3041.19 2303.36L3041.19 2303.36L3039.63 2304.61ZM1980.26 984.632L1981.82 983.38L1981.82 983.38L1980.26 984.632ZM1839.68 969.235L1838.43 967.675L1838.43 967.675L1839.68 969.235ZM1576.43 331.812C1576.43 291.18 1543.49 258.242 1502.86 258.242V262.242C1541.28 262.242 1572.43 293.389 1572.43 331.812H1576.43ZM1646 401.381C1607.58 401.381 1576.43 370.234 1576.43 331.812H1572.43C1572.43 372.443 1605.37 405.381 1646 405.381V401.381ZM2027.73 401.381H1646V405.381H2027.73V401.381ZM2107.28 439.537C2087.92 415.415 2058.66 401.381 2027.73 401.381V405.381C2057.45 405.381 2085.56 418.865 2104.16 442.041L2107.28 439.537ZM3453.74 2117.23L2107.28 439.537L2104.16 442.041L3450.63 2119.74L3453.74 2117.23ZM3476.2 2181.08C3476.2 2157.86 3468.28 2135.34 3453.74 2117.23L3450.63 2119.74C3464.59 2137.13 3472.2 2158.77 3472.2 2181.08H3476.2ZM3476.2 4835.64V2181.08H3472.2V4835.64H3476.2ZM3274.2 5037.64C3385.76 5037.64 3476.2 4947.2 3476.2 4835.64H3472.2C3472.2 4944.99 3383.55 5033.64 3274.2 5033.64V5037.64ZM200 5037.64H3274.2V5033.64H200V5037.64ZM-2 4835.64C-2 4947.2 88.4386 5037.64 200 5037.64V5033.64C90.6477 5033.64 2 4944.99 2 4835.64H-2ZM-2 603.381V4835.64H2V603.381H-2ZM200 401.381C88.4385 401.381 -2 491.819 -2 603.381H2C2 494.028 90.6476 405.381 200 405.381V401.381ZM761.181 401.381H200V405.381H761.181V401.381ZM830.75 331.812C830.75 370.234 799.603 401.381 761.181 401.381V405.381C801.812 405.381 834.75 372.443 834.75 331.812H830.75ZM904.319 258.242C863.688 258.242 830.75 291.18 830.75 331.812H834.75C834.75 293.389 865.897 262.242 904.319 262.242V258.242ZM1502.86 258.242H904.319V262.242H1502.86V258.242ZM1598.38 1291.12C1564.5 1248.91 1571.26 1187.23 1613.47 1153.35L1610.96 1150.23C1567.03 1185.49 1560 1249.69 1595.26 1293.62L1598.38 1291.12ZM2657.75 2611.1L1598.38 1291.12L1595.26 1293.62L2654.63 2613.6L2657.75 2611.1ZM2795.52 2626.19C2753.31 2660.06 2691.63 2653.31 2657.75 2611.1L2654.63 2613.6C2689.89 2657.53 2754.09 2664.56 2798.02 2629.3L2795.52 2626.19ZM3022.98 2443.63L2795.52 2626.19L2798.02 2629.3L3025.48 2446.75L3022.98 2443.63ZM3038.07 2305.86C3071.95 2348.07 3065.19 2409.75 3022.98 2443.63L3025.48 2446.75C3069.42 2411.49 3076.45 2347.29 3041.19 2303.36L3038.07 2305.86ZM1978.7 985.884L3038.07 2305.86L3041.19 2303.36L1981.82 983.38L1978.7 985.884ZM1840.93 970.794C1883.14 936.917 1944.82 943.673 1978.7 985.884L1981.82 983.38C1946.56 939.447 1882.36 932.415 1838.43 967.675L1840.93 970.794ZM1613.47 1153.35L1840.93 970.794L1838.43 967.675L1610.96 1150.23L1613.47 1153.35Z" fill="#3BA63E" mask="url(#path-1-inside-1_4734_828)"/>
<rect x="789.664" y="1" width="817.754" height="323.299" rx="19" fill="#E9DD19" stroke="#F8BB00" stroke-width="2"/>
<rect x="851" y="41" width="12" height="244" rx="6" fill="url(#paint1_linear_4734_828)" stroke="#FF7300" stroke-width="2"/>
<rect x="1079" y="41" width="12" height="244" rx="6" fill="url(#paint2_linear_4734_828)" stroke="#FF7300" stroke-width="2"/>
<rect x="1307" y="41" width="12" height="244" rx="6" fill="url(#paint3_linear_4734_828)" stroke="#FF7300" stroke-width="2"/>
<rect x="965" y="41" width="12" height="244" rx="6" fill="url(#paint4_linear_4734_828)" stroke="#FF7300" stroke-width="2"/>
<rect x="1193" y="41" width="12" height="244" rx="6" fill="url(#paint5_linear_4734_828)" stroke="#FF7300" stroke-width="2"/>
<rect x="1421" y="41" width="12" height="244" rx="6" fill="url(#paint6_linear_4734_828)" stroke="#FF7300" stroke-width="2"/>
<rect x="1535" y="41" width="12" height="244" rx="6" fill="url(#paint7_linear_4734_828)" stroke="#FF7300" stroke-width="2"/>
<defs>
<linearGradient id="paint0_linear_4734_828" x1="277.5" y1="586.5" x2="2306.5" y2="4111.5" gradientUnits="userSpaceOnUse">
<stop stop-color="#7AC960"/>
<stop offset="1" stop-color="#45B649"/>
</linearGradient>
<linearGradient id="paint1_linear_4734_828" x1="857" y1="40" x2="857" y2="286" gradientUnits="userSpaceOnUse">
<stop stop-color="#F2A007"/>
<stop offset="1" stop-color="#FF845C"/>
</linearGradient>
<linearGradient id="paint2_linear_4734_828" x1="1085" y1="40" x2="1085" y2="286" gradientUnits="userSpaceOnUse">
<stop stop-color="#F2A007"/>
<stop offset="1" stop-color="#FF845C"/>
</linearGradient>
<linearGradient id="paint3_linear_4734_828" x1="1313" y1="40" x2="1313" y2="286" gradientUnits="userSpaceOnUse">
<stop stop-color="#F2A007"/>
<stop offset="1" stop-color="#FF845C"/>
</linearGradient>
<linearGradient id="paint4_linear_4734_828" x1="971" y1="40" x2="971" y2="286" gradientUnits="userSpaceOnUse">
<stop stop-color="#F2A007"/>
<stop offset="1" stop-color="#FF845C"/>
</linearGradient>
<linearGradient id="paint5_linear_4734_828" x1="1199" y1="40" x2="1199" y2="286" gradientUnits="userSpaceOnUse">
<stop stop-color="#F2A007"/>
<stop offset="1" stop-color="#FF845C"/>
</linearGradient>
<linearGradient id="paint6_linear_4734_828" x1="1427" y1="40" x2="1427" y2="286" gradientUnits="userSpaceOnUse">
<stop stop-color="#F2A007"/>
<stop offset="1" stop-color="#FF845C"/>
</linearGradient>
<linearGradient id="paint7_linear_4734_828" x1="1541" y1="40" x2="1541" y2="286" gradientUnits="userSpaceOnUse">
<stop stop-color="#F2A007"/>
<stop offset="1" stop-color="#FF845C"/>
</linearGradient>
</defs>
</svg>
