<svg width="493" height="482" viewBox="0 0 493 482" fill="none" xmlns="http://www.w3.org/2000/svg">
<path d="M417.923 406.803C373.689 454.675 321.53 481.112 240.076 481.112C155.049 481.112 101.374 448.98 62.1624 412.51C22.2151 375.355 8.57413 312.753 8.57413 251.04C8.57413 167.442 49.8362 109.532 62.1624 68.8397C65.0204 59.4045 72.88 54.5587 65.0204 30.256C57.1609 5.95333 13.3375 9.53518 0 1.67556L492.06 0L491.849 0.0334978C481.101 1.74288 445.079 7.47184 435.852 20.9581C426.563 34.5338 425.849 36.6866 425.849 49.5385C425.849 75.9848 481.58 150.294 481.58 246.038C481.58 336.826 452.72 369.145 417.923 406.803Z" fill="#FFFCDC"/>
</svg>
