<svg width="273" height="366" viewBox="0 0 273 366" fill="none" xmlns="http://www.w3.org/2000/svg">
<path d="M236.26 322.99C210.73 350.698 180.625 366 133.613 366C84.5394 366 53.9348 344.099 31.3036 322.99C8.24766 301.485 0 268.554 0 232.834C0 184.447 20.6193 149.708 30.929 127.376C42.1637 103.04 72.58 46.7322 72.1676 32.2576C71.7552 17.7831 57.9713 4.54915 50.2734 0H218.94C212.891 0.964972 200.42 16.9559 200.42 32.2576C200.42 57.7008 217.74 83.1254 232.998 112.902C248.257 142.678 273 174.522 273 229.939C273 282.487 256.343 301.193 236.26 322.99Z" fill="#FFFCDC"/>
</svg>
