<svg width="3251" height="5258" viewBox="0 0 3251 5258" fill="none" xmlns="http://www.w3.org/2000/svg">
<path fill-rule="evenodd" clip-rule="evenodd" d="M838.334 673.507L838.334 673.508H0.5L419.417 69.0312L511.519 201.93H2739.51L2831.61 69.0312L3250.53 673.508H2412.69L838.334 673.507Z" fill="url(#paint0_linear_4756_862)"/>
<path d="M259.656 101.184C259.656 46.4977 303.99 1.4375 358.656 1.4375H2895.23C2949.9 1.4375 2994.23 46.4977 2994.23 101.184C2994.23 155.869 2949.9 200.93 2895.23 200.93H358.656C303.99 200.93 259.656 155.869 259.656 101.184Z" fill="#E5E5E5" stroke="#C4C4C4" stroke-width="2"/>
<rect x="1.5" y="675.008" width="3245.17" height="4088.29" fill="url(#paint1_linear_4756_862)" stroke="#DD0000" stroke-width="3"/>
<rect x="1" y="4765.8" width="3246.17" height="77.2743" fill="#DEDEDE" stroke="#C4C4C4" stroke-width="2"/>
<mask id="path-5-inside-1_4756_862" fill="white">
<path fill-rule="evenodd" clip-rule="evenodd" d="M2758.01 4844.07H748.805V4844.07H0V4844.07L47.3363 4844.07C153.906 4844.07 241.952 4927.25 248.011 5033.65L260.787 5258H750.237V5258L2497.93 5258H2982.6L2994.43 5050.25C3000.49 4943.85 3088.54 4860.68 3195.11 4860.68L3248.16 4860.68V4844.07H2758.01V4844.07Z"/>
</mask>
<path fill-rule="evenodd" clip-rule="evenodd" d="M2758.01 4844.07H748.805V4844.07H0V4844.07L47.3363 4844.07C153.906 4844.07 241.952 4927.25 248.011 5033.65L260.787 5258H750.237V5258L2497.93 5258H2982.6L2994.43 5050.25C3000.49 4943.85 3088.54 4860.68 3195.11 4860.68L3248.16 4860.68V4844.07H2758.01V4844.07Z" fill="url(#paint2_linear_4756_862)"/>
<path d="M748.805 4844.07V4842.07H746.805V4844.07H748.805ZM2758.01 4844.07H2760.01V4842.07H2758.01V4844.07ZM748.805 4844.07V4846.07H750.805V4844.07H748.805ZM0 4844.07V4842.07H-2V4844.07H0ZM0 4844.07H-2V4846.07L1.4512e-07 4846.07L0 4844.07ZM47.3363 4844.07V4842.07V4844.07ZM248.011 5033.65L246.014 5033.76L248.011 5033.65ZM260.787 5258L258.791 5258.12L258.898 5260H260.787V5258ZM750.237 5258V5260H752.237V5258H750.237ZM750.237 5258V5256H748.237V5258H750.237ZM2497.93 5258V5260V5258ZM2982.6 5258V5260H2984.49L2984.6 5258.12L2982.6 5258ZM2994.43 5050.25L2992.44 5050.14L2994.43 5050.25ZM3195.11 4860.68V4858.68V4860.68ZM3248.16 4860.68V4862.68H3250.16V4860.68H3248.16ZM3248.16 4844.07H3250.16V4842.07H3248.16V4844.07ZM2758.01 4844.07H2756.01V4846.07H2758.01V4844.07ZM748.805 4846.07H2758.01V4842.07H748.805V4846.07ZM750.805 4844.07V4844.07H746.805V4844.07H750.805ZM0 4846.07H748.805V4842.07H0V4846.07ZM2 4844.07V4844.07H-2V4844.07H2ZM47.3363 4842.07L-1.4512e-07 4842.07L1.4512e-07 4846.07L47.3363 4846.07V4842.07ZM250.008 5033.53C243.889 4926.08 154.967 4842.07 47.3363 4842.07V4846.07C152.846 4846.07 240.016 4928.42 246.014 5033.76L250.008 5033.53ZM262.784 5257.89L250.008 5033.53L246.014 5033.76L258.791 5258.12L262.784 5257.89ZM750.237 5256H260.787V5260H750.237V5256ZM748.237 5258V5258H752.237V5258H748.237ZM2497.93 5256L750.237 5256V5260L2497.93 5260V5256ZM2497.93 5260H2982.6V5256H2497.93V5260ZM2984.6 5258.12L2996.43 5050.36L2992.44 5050.14L2980.61 5257.89L2984.6 5258.12ZM2996.43 5050.36C3002.43 4945.02 3089.6 4862.68 3195.11 4862.68V4858.68C3087.48 4858.68 2998.56 4942.68 2992.44 5050.14L2996.43 5050.36ZM3195.11 4862.68L3248.16 4862.68V4858.68L3195.11 4858.68V4862.68ZM3250.16 4860.68V4844.07H3246.16V4860.68H3250.16ZM3248.16 4842.07H2758.01V4846.07H3248.16V4842.07ZM2756.01 4844.07V4844.07H2760.01V4844.07H2756.01Z" fill="#C4C4C4" mask="url(#path-5-inside-1_4756_862)"/>
<defs>
<linearGradient id="paint0_linear_4756_862" x1="1676.24" y1="218.364" x2="1676.24" y2="552.041" gradientUnits="userSpaceOnUse">
<stop stop-color="#E7E7E7"/>
<stop offset="1" stop-color="#DBDBDB"/>
</linearGradient>
<linearGradient id="paint1_linear_4756_862" x1="820.973" y1="1562.19" x2="2344.31" y2="3726.44" gradientUnits="userSpaceOnUse">
<stop stop-color="#F9003C"/>
<stop offset="1" stop-color="#DC2430"/>
</linearGradient>
<linearGradient id="paint2_linear_4756_862" x1="538.026" y1="5050.44" x2="2813.03" y2="5050.44" gradientUnits="userSpaceOnUse">
<stop stop-color="#E7E7E7"/>
<stop offset="1" stop-color="#DBDBDB"/>
</linearGradient>
</defs>
</svg>
