<svg width="3251" height="6129" viewBox="0 0 3251 6129" fill="none" xmlns="http://www.w3.org/2000/svg">
<mask id="path-1-inside-1_4744_895" fill="white">
<path fill-rule="evenodd" clip-rule="evenodd" d="M1641.49 159.361C1690.2 31.7402 1833.15 -32.2243 1960.77 16.4929L2159.05 92.1811C2286.67 140.898 2350.64 283.849 2301.92 411.47L2074.88 1006.23C2026.16 1133.85 1883.21 1197.81 1755.59 1149.09L1557.32 1073.41C1429.7 1024.69 1365.73 881.739 1414.45 754.118L1641.49 159.361ZM1788.33 210.886C1811.27 151.742 1877.81 122.389 1936.95 145.326L2084.91 202.703C2144.05 225.64 2173.41 292.179 2150.47 351.324L2098.81 484.52C2082.84 525.713 2036.49 546.157 1995.3 530.182L1782.34 447.595C1741.15 431.62 1720.7 385.276 1736.68 344.082L1788.33 210.886ZM1934.9 777.122C1934.9 818.318 1917.14 855.673 1888.31 882.981C1894.42 868.676 1897.75 853.239 1897.75 837.141C1897.75 762.953 1827.05 702.813 1739.84 702.813C1684.99 702.813 1636.67 726.602 1608.37 762.713C1616.2 685.813 1686.15 625.645 1771.27 625.645C1861.64 625.645 1934.9 693.464 1934.9 777.122Z"/>
</mask>
<path fill-rule="evenodd" clip-rule="evenodd" d="M1641.49 159.361C1690.2 31.7402 1833.15 -32.2243 1960.77 16.4929L2159.05 92.1811C2286.67 140.898 2350.64 283.849 2301.92 411.47L2074.88 1006.23C2026.16 1133.85 1883.21 1197.81 1755.59 1149.09L1557.32 1073.41C1429.7 1024.69 1365.73 881.739 1414.45 754.118L1641.49 159.361ZM1788.33 210.886C1811.27 151.742 1877.81 122.389 1936.95 145.326L2084.91 202.703C2144.05 225.64 2173.41 292.179 2150.47 351.324L2098.81 484.52C2082.84 525.713 2036.49 546.157 1995.3 530.182L1782.34 447.595C1741.15 431.62 1720.7 385.276 1736.68 344.082L1788.33 210.886ZM1934.9 777.122C1934.9 818.318 1917.14 855.673 1888.31 882.981C1894.42 868.676 1897.75 853.239 1897.75 837.141C1897.75 762.953 1827.05 702.813 1739.84 702.813C1684.99 702.813 1636.67 726.602 1608.37 762.713C1616.2 685.813 1686.15 625.645 1771.27 625.645C1861.64 625.645 1934.9 693.464 1934.9 777.122Z" fill="url(#paint0_linear_4744_895)"/>
<path d="M1960.77 16.4929L1960.06 18.3613L1960.77 16.4929ZM1641.49 159.361L1639.62 158.648L1639.62 158.648L1641.49 159.361ZM2159.05 92.1811L2158.34 94.0495L2158.34 94.0495L2159.05 92.1811ZM2301.92 411.47L2300.05 410.757L2300.05 410.757L2301.92 411.47ZM2074.88 1006.23L2076.75 1006.94L2076.75 1006.94L2074.88 1006.23ZM1755.59 1149.09L1756.31 1147.23L1756.31 1147.23L1755.59 1149.09ZM1557.32 1073.41L1558.03 1071.54L1558.03 1071.54L1557.32 1073.41ZM1414.45 754.118L1416.32 754.831L1416.32 754.831L1414.45 754.118ZM1936.95 145.326L1936.23 147.191L1936.23 147.191L1936.95 145.326ZM1788.33 210.886L1786.47 210.163L1788.33 210.886ZM2084.91 202.703L2084.19 204.568L2084.19 204.568L2084.91 202.703ZM2150.47 351.324L2148.6 350.601L2148.6 350.601L2150.47 351.324ZM2098.81 484.52L2100.68 485.243L2100.68 485.243L2098.81 484.52ZM1995.3 530.182L1996.02 528.317L1996.02 528.317L1995.3 530.182ZM1782.34 447.595L1781.62 449.46L1781.62 449.46L1782.34 447.595ZM1736.68 344.082L1734.82 343.359L1734.82 343.359L1736.68 344.082ZM1888.31 882.981L1886.47 882.196L1889.69 884.432L1888.31 882.981ZM1608.37 762.713L1606.38 762.51L1605.68 769.388L1609.94 763.947L1608.37 762.713ZM1961.49 14.6244C1832.83 -34.4867 1688.73 29.995 1639.62 158.648L1643.35 160.075C1691.68 33.4854 1833.47 -29.9618 1960.06 18.3613L1961.49 14.6244ZM2159.76 90.3126L1961.49 14.6244L1960.06 18.3613L2158.34 94.0495L2159.76 90.3126ZM2303.79 412.183C2352.9 283.53 2288.42 139.424 2159.76 90.3126L2158.34 94.0495C2284.93 142.373 2348.37 284.167 2300.05 410.757L2303.79 412.183ZM2076.75 1006.94L2303.79 412.183L2300.05 410.757L2073.01 1005.51L2076.75 1006.94ZM1754.88 1150.96C1883.53 1200.07 2027.64 1135.59 2076.75 1006.94L2073.01 1005.51C2024.69 1132.1 1882.89 1195.55 1756.31 1147.23L1754.88 1150.96ZM1556.6 1075.27L1754.88 1150.96L1756.31 1147.23L1558.03 1071.54L1556.6 1075.27ZM1412.58 753.404C1363.47 882.058 1427.95 1026.16 1556.6 1075.27L1558.03 1071.54C1431.44 1023.21 1367.99 881.42 1416.32 754.831L1412.58 753.404ZM1639.62 158.648L1412.58 753.404L1416.32 754.831L1643.35 160.075L1639.62 158.648ZM1937.68 143.461C1877.5 120.125 1809.81 149.989 1786.47 210.163L1790.2 211.609C1812.74 153.495 1878.12 124.653 1936.23 147.191L1937.68 143.461ZM2085.63 200.838L1937.68 143.461L1936.23 147.191L2084.19 204.568L2085.63 200.838ZM2152.33 352.047C2175.67 291.873 2145.81 224.174 2085.63 200.838L2084.19 204.568C2142.3 227.105 2171.14 292.486 2148.6 350.601L2152.33 352.047ZM2100.68 485.243L2152.33 352.047L2148.6 350.601L2096.95 483.797L2100.68 485.243ZM1994.58 532.047C2036.8 548.421 2084.3 527.466 2100.68 485.243L2096.95 483.797C2081.37 523.96 2036.19 543.893 1996.02 528.317L1994.58 532.047ZM1781.62 449.46L1994.58 532.047L1996.02 528.317L1783.07 445.73L1781.62 449.46ZM1734.82 343.359C1718.44 385.582 1739.4 433.085 1781.62 449.46L1783.07 445.73C1742.9 430.155 1722.97 384.969 1738.54 344.805L1734.82 343.359ZM1786.47 210.163L1734.82 343.359L1738.54 344.805L1790.2 211.609L1786.47 210.163ZM1889.69 884.432C1918.88 856.78 1936.9 818.913 1936.9 777.122H1932.9C1932.9 817.723 1915.4 854.566 1886.94 881.529L1889.69 884.432ZM1895.75 837.141C1895.75 852.959 1892.48 868.13 1886.47 882.196L1890.15 883.765C1896.36 869.222 1899.75 853.519 1899.75 837.141H1895.75ZM1739.84 704.813C1826.26 704.813 1895.75 764.349 1895.75 837.141H1899.75C1899.75 761.558 1827.84 700.813 1739.84 700.813V704.813ZM1609.94 763.947C1637.84 728.359 1685.55 704.813 1739.84 704.813V700.813C1684.43 700.813 1635.51 724.845 1606.79 761.479L1609.94 763.947ZM1771.27 623.645C1685.24 623.645 1614.33 684.478 1606.38 762.51L1610.36 762.916C1618.08 687.149 1687.06 627.645 1771.27 627.645V623.645ZM1936.9 777.122C1936.9 692.217 1862.6 623.645 1771.27 623.645V627.645C1860.69 627.645 1932.9 694.711 1932.9 777.122H1936.9Z" fill="#C4C4C4" mask="url(#path-1-inside-1_4744_895)"/>
<path fill-rule="evenodd" clip-rule="evenodd" d="M838.334 1544.51L838.334 1544.51H0.5L419.417 940.031L511.519 1072.93H2739.51L2831.61 940.031L3250.53 1544.51H2412.69L838.334 1544.51Z" fill="url(#paint1_linear_4744_895)"/>
<path d="M358.656 872.438H2895.23C2949.9 872.438 2994.23 917.498 2994.23 972.184C2994.23 1026.87 2949.9 1071.93 2895.23 1071.93H358.656C303.99 1071.93 259.656 1026.87 259.656 972.184C259.656 917.498 303.99 872.438 358.656 872.438Z" fill="#E5E5E5" stroke="#C4C4C4" stroke-width="2"/>
<rect x="1.5" y="1546.01" width="3245.17" height="4088.29" fill="url(#paint2_linear_4744_895)" stroke="#DD0000" stroke-width="3"/>
<rect x="1" y="5636.8" width="3246.17" height="77.2743" fill="#DEDEDE" stroke="#C4C4C4" stroke-width="2"/>
<mask id="path-7-inside-2_4744_895" fill="white">
<path fill-rule="evenodd" clip-rule="evenodd" d="M2758.01 5715.07H748.805V5715.07H0V5715.07L47.3363 5715.07C153.906 5715.07 241.952 5798.25 248.011 5904.65L260.787 6129H750.237V6129L2497.93 6129H2982.6L2994.43 5921.25C3000.49 5814.85 3088.54 5731.68 3195.11 5731.68L3248.16 5731.68V5715.07H2758.01V5715.07Z"/>
</mask>
<path fill-rule="evenodd" clip-rule="evenodd" d="M2758.01 5715.07H748.805V5715.07H0V5715.07L47.3363 5715.07C153.906 5715.07 241.952 5798.25 248.011 5904.65L260.787 6129H750.237V6129L2497.93 6129H2982.6L2994.43 5921.25C3000.49 5814.85 3088.54 5731.68 3195.11 5731.68L3248.16 5731.68V5715.07H2758.01V5715.07Z" fill="url(#paint3_linear_4744_895)"/>
<path d="M748.805 5715.07V5713.07H746.805V5715.07H748.805ZM2758.01 5715.07H2760.01V5713.07H2758.01V5715.07ZM748.805 5715.07V5717.07H750.805V5715.07H748.805ZM0 5715.07V5713.07H-2V5715.07H0ZM0 5715.07H-2V5717.07L1.4512e-07 5717.07L0 5715.07ZM47.3363 5715.07L47.3363 5713.07L47.3363 5715.07ZM248.011 5904.65L246.014 5904.76L246.014 5904.76L248.011 5904.65ZM260.787 6129L258.791 6129.12L258.898 6131H260.787V6129ZM750.237 6129V6131H752.237V6129H750.237ZM750.237 6129L750.237 6127L748.237 6127V6129H750.237ZM2497.93 6129L2497.93 6131H2497.93V6129ZM2982.6 6129V6131H2984.49L2984.6 6129.12L2982.6 6129ZM2994.43 5921.25L2992.44 5921.14L2992.44 5921.14L2994.43 5921.25ZM3195.11 5731.68L3195.11 5729.68L3195.11 5731.68ZM3248.16 5731.68L3248.16 5733.68L3250.16 5733.68V5731.68H3248.16ZM3248.16 5715.07H3250.16V5713.07H3248.16V5715.07ZM2758.01 5715.07H2756.01V5717.07H2758.01V5715.07ZM748.805 5717.07H2758.01V5713.07H748.805V5717.07ZM750.805 5715.07V5715.07H746.805V5715.07H750.805ZM0 5717.07H748.805V5713.07H0V5717.07ZM2 5715.07V5715.07H-2V5715.07H2ZM47.3363 5713.07L-1.4512e-07 5713.07L1.4512e-07 5717.07L47.3363 5717.07L47.3363 5713.07ZM250.008 5904.53C243.889 5797.08 154.967 5713.07 47.3363 5713.07L47.3363 5717.07C152.846 5717.07 240.016 5799.42 246.014 5904.76L250.008 5904.53ZM262.784 6128.89L250.008 5904.53L246.014 5904.76L258.791 6129.12L262.784 6128.89ZM750.237 6127H260.787V6131H750.237V6127ZM748.237 6129V6129H752.237V6129H748.237ZM2497.93 6127L750.237 6127L750.237 6131L2497.93 6131L2497.93 6127ZM2497.93 6131H2982.6V6127H2497.93V6131ZM2984.6 6129.12L2996.43 5921.36L2992.44 5921.14L2980.61 6128.89L2984.6 6129.12ZM2996.43 5921.36C3002.43 5816.02 3089.6 5733.68 3195.11 5733.68L3195.11 5729.68C3087.48 5729.68 2998.56 5813.68 2992.44 5921.14L2996.43 5921.36ZM3195.11 5733.68L3248.16 5733.68L3248.16 5729.68L3195.11 5729.68L3195.11 5733.68ZM3250.16 5731.68V5715.07H3246.16V5731.68H3250.16ZM3248.16 5713.07H2758.01V5717.07H3248.16V5713.07ZM2756.01 5715.07V5715.07H2760.01V5715.07H2756.01Z" fill="#C4C4C4" mask="url(#path-7-inside-2_4744_895)"/>
<defs>
<linearGradient id="paint0_linear_4744_895" x1="2072.14" y1="0.34482" x2="1763.42" y2="880.688" gradientUnits="userSpaceOnUse">
<stop stop-color="#F1F1F1"/>
<stop offset="1" stop-color="#D3D3D3"/>
</linearGradient>
<linearGradient id="paint1_linear_4744_895" x1="1676.24" y1="1089.36" x2="1676.24" y2="1423.04" gradientUnits="userSpaceOnUse">
<stop stop-color="#E7E7E7"/>
<stop offset="1" stop-color="#DBDBDB"/>
</linearGradient>
<linearGradient id="paint2_linear_4744_895" x1="820.973" y1="2433.19" x2="2344.31" y2="4597.44" gradientUnits="userSpaceOnUse">
<stop stop-color="#F9003C"/>
<stop offset="1" stop-color="#DC2430"/>
</linearGradient>
<linearGradient id="paint3_linear_4744_895" x1="538.026" y1="5921.44" x2="2813.03" y2="5921.44" gradientUnits="userSpaceOnUse">
<stop stop-color="#E7E7E7"/>
<stop offset="1" stop-color="#DBDBDB"/>
</linearGradient>
</defs>
</svg>
