<svg width="921" height="1166" viewBox="0 0 921 1166" fill="none" xmlns="http://www.w3.org/2000/svg">
<mask id="path-1-inside-1_4744_894" fill="white">
<path fill-rule="evenodd" clip-rule="evenodd" d="M243.486 159.361C292.203 31.7402 435.153 -32.2243 562.774 16.4929L761.05 92.1811C888.671 140.898 952.636 283.849 903.918 411.47L676.881 1006.23C628.164 1133.85 485.213 1197.81 357.592 1149.09L159.316 1073.41C31.6952 1024.69 -32.2692 881.739 16.448 754.118L243.486 159.361ZM390.334 210.886C413.271 151.742 479.81 122.389 538.955 145.326L686.908 202.703C746.053 225.64 775.405 292.179 752.469 351.324L700.814 484.52C684.839 525.713 638.495 546.157 597.301 530.182L384.342 447.595C343.148 431.62 322.705 385.276 338.68 344.082L390.334 210.886ZM536.904 777.122C536.904 818.318 519.138 855.673 490.312 882.981C496.417 868.676 499.745 853.239 499.745 837.141C499.745 762.953 429.048 702.813 341.839 702.813C286.989 702.813 238.672 726.602 210.366 762.713C218.205 685.813 288.147 625.645 373.269 625.645C463.642 625.645 536.904 693.464 536.904 777.122Z"/>
</mask>
<path fill-rule="evenodd" clip-rule="evenodd" d="M243.486 159.361C292.203 31.7402 435.153 -32.2243 562.774 16.4929L761.05 92.1811C888.671 140.898 952.636 283.849 903.918 411.47L676.881 1006.23C628.164 1133.85 485.213 1197.81 357.592 1149.09L159.316 1073.41C31.6952 1024.69 -32.2692 881.739 16.448 754.118L243.486 159.361ZM390.334 210.886C413.271 151.742 479.81 122.389 538.955 145.326L686.908 202.703C746.053 225.64 775.405 292.179 752.469 351.324L700.814 484.52C684.839 525.713 638.495 546.157 597.301 530.182L384.342 447.595C343.148 431.62 322.705 385.276 338.68 344.082L390.334 210.886ZM536.904 777.122C536.904 818.318 519.138 855.673 490.312 882.981C496.417 868.676 499.745 853.239 499.745 837.141C499.745 762.953 429.048 702.813 341.839 702.813C286.989 702.813 238.672 726.602 210.366 762.713C218.205 685.813 288.147 625.645 373.269 625.645C463.642 625.645 536.904 693.464 536.904 777.122Z" fill="url(#paint0_linear_4744_894)"/>
<path d="M562.774 16.4929L562.061 18.3613L562.774 16.4929ZM243.486 159.361L241.617 158.648L243.486 159.361ZM761.05 92.1811L760.337 94.0495L761.05 92.1811ZM903.918 411.47L902.05 410.757L903.918 411.47ZM676.881 1006.23L678.749 1006.94L676.881 1006.23ZM357.592 1149.09L358.305 1147.23L357.592 1149.09ZM159.316 1073.41L160.03 1071.54L159.316 1073.41ZM16.448 754.118L18.3164 754.831L16.448 754.118ZM538.955 145.326L538.232 147.191L538.955 145.326ZM390.334 210.886L388.469 210.163L390.334 210.886ZM686.908 202.703L686.185 204.568L686.908 202.703ZM752.469 351.324L750.604 350.601L752.469 351.324ZM700.814 484.52L702.679 485.243L700.814 484.52ZM597.301 530.182L598.024 528.317L597.301 530.182ZM384.342 447.595L383.619 449.46L384.342 447.595ZM338.68 344.082L336.815 343.359L338.68 344.082ZM490.312 882.981L488.473 882.196L491.688 884.432L490.312 882.981ZM210.366 762.713L208.376 762.51L207.675 769.388L211.94 763.947L210.366 762.713ZM563.488 14.6244C434.835 -34.4867 290.728 29.995 241.617 158.648L245.354 160.075C293.677 33.4854 435.472 -29.9618 562.061 18.3613L563.488 14.6244ZM761.763 90.3126L563.488 14.6244L562.061 18.3613L760.337 94.0495L761.763 90.3126ZM905.787 412.183C954.898 283.53 890.416 139.424 761.763 90.3126L760.337 94.0495C886.926 142.373 950.373 284.167 902.05 410.757L905.787 412.183ZM678.749 1006.94L905.787 412.183L902.05 410.757L675.012 1005.51L678.749 1006.94ZM356.879 1150.96C485.532 1200.07 629.638 1135.59 678.749 1006.94L675.012 1005.51C626.689 1132.1 484.894 1195.55 358.305 1147.23L356.879 1150.96ZM158.603 1075.27L356.879 1150.96L358.305 1147.23L160.03 1071.54L158.603 1075.27ZM14.5795 753.404C-34.5316 882.058 29.95 1026.16 158.603 1075.27L160.03 1071.54C33.4404 1023.21 -30.0068 881.42 18.3164 754.831L14.5795 753.404ZM241.617 158.648L14.5795 753.404L18.3164 754.831L245.354 160.075L241.617 158.648ZM539.678 143.461C479.504 120.125 411.805 149.989 388.469 210.163L392.199 211.609C414.736 153.495 480.117 124.653 538.232 147.191L539.678 143.461ZM687.631 200.838L539.678 143.461L538.232 147.191L686.185 204.568L687.631 200.838ZM754.333 352.047C777.669 291.873 747.806 224.174 687.631 200.838L686.185 204.568C744.3 227.105 773.141 292.486 750.604 350.601L754.333 352.047ZM702.679 485.243L754.333 352.047L750.604 350.601L698.95 483.797L702.679 485.243ZM596.578 532.047C638.802 548.421 686.305 527.466 702.679 485.243L698.95 483.797C683.374 523.96 638.188 543.893 598.024 528.317L596.578 532.047ZM383.619 449.46L596.578 532.047L598.024 528.317L385.065 445.73L383.619 449.46ZM336.815 343.359C320.441 385.582 341.396 433.085 383.619 449.46L385.065 445.73C344.901 430.155 324.969 384.969 340.545 344.805L336.815 343.359ZM388.469 210.163L336.815 343.359L340.545 344.805L392.199 211.609L388.469 210.163ZM491.688 884.432C520.878 856.78 538.904 818.913 538.904 777.122H534.904C534.904 817.723 517.398 854.566 488.937 881.529L491.688 884.432ZM497.745 837.141C497.745 852.959 494.475 868.13 488.473 882.196L492.152 883.766C498.358 869.222 501.745 853.519 501.745 837.141H497.745ZM341.839 704.813C428.259 704.813 497.745 764.349 497.745 837.141H501.745C501.745 761.558 429.837 700.813 341.839 700.813V704.813ZM211.94 763.947C239.836 728.359 287.552 704.813 341.839 704.813V700.813C286.427 700.813 237.508 724.845 208.792 761.479L211.94 763.947ZM373.269 623.645C287.237 623.645 216.33 684.478 208.376 762.51L212.356 762.916C220.079 687.149 289.056 627.645 373.269 627.645V623.645ZM538.904 777.122C538.904 692.216 464.598 623.645 373.269 623.645V627.645C462.686 627.645 534.904 694.711 534.904 777.122H538.904Z" fill="#C4C4C4" mask="url(#path-1-inside-1_4744_894)"/>
<defs>
<linearGradient id="paint0_linear_4744_894" x1="674.138" y1="0.34482" x2="365.423" y2="880.688" gradientUnits="userSpaceOnUse">
<stop stop-color="#F1F1F1"/>
<stop offset="1" stop-color="#D3D3D3"/>
</linearGradient>
</defs>
</svg>
