<svg width="5153" height="1031" viewBox="0 0 5153 1031" fill="none" xmlns="http://www.w3.org/2000/svg">
<path d="M709.373 14.2271H2555.77C3133.5 4.90664 4325.48 -8.14195 4471.54 14.2271C4654.11 42.1883 4770.73 116.347 4930.17 275.605C5089.62 434.862 5147.05 613.571 5150.7 679.22C5154.35 744.868 5139.33 819.836 5056.98 823.888C4964.45 828.441 4940.13 765.535 4897.53 648.827C4865.15 560.095 4837.91 491.878 4746.28 415.159C4657.86 341.138 4466.67 234.27 4288.97 234.27H3399.24C3254.4 234.27 3127.82 263.448 3003.67 320.586C2831.33 399.903 2219.84 1029.34 1978.84 1029.34C1758.14 1029.34 1135.06 243.996 854.211 243.996C734.932 243.996 630.982 247.972 469.596 365.567C321.105 473.766 273.637 645.179 245.644 725.416C217.651 805.653 145.471 837.109 91.067 823.888C21.2295 806.916 1.00301 753.821 1 711.066C0.99551 647.239 66.5266 454.314 235.708 258.585C371.054 102.002 602.036 22.7377 709.373 14.2271Z" fill="url(#paint0_linear_4738_816)" stroke="#FD6A00" stroke-width="2"/>
<defs>
<linearGradient id="paint0_linear_4738_816" x1="1999.15" y1="1029.34" x2="2218.52" y2="-72.7647" gradientUnits="userSpaceOnUse">
<stop stop-color="#FCAF01"/>
<stop offset="1" stop-color="#FE7200"/>
</linearGradient>
</defs>
</svg>
