<svg width="4837" height="337" viewBox="0 0 4837 337" fill="none" xmlns="http://www.w3.org/2000/svg">
<mask id="path-1-inside-1_4734_896" fill="white">
<path fill-rule="evenodd" clip-rule="evenodd" d="M1201.42 0.760283H1363.86H1549.5L1549.51 0.760254L1709.54 0.760283H1895.19H2057.63L2057.64 0.760254L2240.87 0.760283H2403.32H2592.6L2592.62 0.760254L2749 0.760283H2938.3H3100.73L3100.74 0.760254L3283.98 0.760283H3446.42H3635.61C3635.61 0.760264 3635.61 0.760254 3635.62 0.760254L3792.1 0.760283H3981.3H4149.72L4149.74 0.760254L4326.98 0.760283H4489.42H4829.1C4833.52 0.760283 4837.11 4.34266 4837 8.75959C4835.98 50.0941 4827.05 90.9146 4810.64 129.156C4793.16 169.862 4767.55 206.849 4735.27 238.005C4702.98 269.16 4664.65 293.874 4622.47 310.735C4580.29 327.596 4535.08 336.274 4489.42 336.274C4443.76 336.274 4398.55 327.596 4356.37 310.735C4314.19 293.874 4275.86 269.16 4243.57 238.005C4242.77 237.23 4241.97 236.453 4241.18 235.671C4237.96 232.501 4232.76 232.501 4229.54 235.671C4228.75 236.453 4227.95 237.23 4227.15 238.005C4194.86 269.16 4156.53 293.874 4114.35 310.735C4072.17 327.596 4026.96 336.274 3981.3 336.274C3935.64 336.274 3890.43 327.596 3848.25 310.735C3806.06 293.874 3767.74 269.16 3735.45 238.005C3723.54 226.508 3704.18 226.508 3692.27 238.005C3659.98 269.16 3621.65 293.874 3579.47 310.735C3537.29 327.596 3492.08 336.274 3446.42 336.274C3400.76 336.274 3355.55 327.596 3313.37 310.735C3271.18 293.874 3232.86 269.16 3200.57 238.005C3196 233.596 3188.71 233.596 3184.14 238.005C3151.86 269.16 3113.53 293.874 3071.35 310.735C3029.17 327.596 2983.95 336.274 2938.3 336.274C2892.64 336.274 2847.43 327.596 2805.25 310.735C2763.06 293.874 2724.73 269.16 2692.45 238.005C2680.51 226.482 2661.11 226.482 2649.17 238.005C2616.88 269.16 2578.56 293.874 2536.37 310.735C2494.19 327.596 2448.98 336.274 2403.32 336.274C2357.66 336.274 2312.45 327.596 2270.27 310.735C2228.09 293.874 2189.76 269.16 2157.47 238.005C2152.9 233.594 2145.61 233.594 2141.04 238.005C2108.75 269.16 2070.43 293.874 2028.24 310.735C1986.06 327.596 1940.85 336.274 1895.19 336.274C1849.53 336.274 1804.32 327.596 1762.14 310.735C1719.96 293.874 1681.63 269.16 1649.34 238.005C1638.4 227.439 1620.66 227.44 1609.71 238.005C1577.43 269.16 1539.1 293.874 1496.92 310.735C1454.73 327.596 1409.52 336.274 1363.86 336.274C1318.21 336.274 1272.99 327.596 1230.81 310.735C1188.63 293.874 1150.3 269.16 1118.02 238.005C1113.45 233.594 1106.15 233.594 1101.58 238.005C1069.3 269.16 1030.97 293.874 988.786 310.735C946.603 327.596 901.392 336.274 855.734 336.274C810.076 336.274 764.865 327.596 722.683 310.735C680.5 293.874 642.172 269.16 609.887 238.005C609.836 237.955 609.785 237.906 609.734 237.857C609.474 237.605 609.061 237.603 608.798 237.851L608.635 238.005C575.523 269.16 536.213 293.874 492.951 310.735C449.688 327.596 403.319 336.274 356.492 336.274C309.665 336.274 263.296 327.596 220.034 310.735C176.771 293.874 137.462 269.16 104.35 238.005C71.238 206.849 44.9723 169.862 27.0523 129.156C10.2175 90.9146 1.05797 50.094 0.0103598 8.75951C-0.101585 4.34265 3.49073 0.760254 7.90901 0.760254L356.492 0.760283H510.043L510.053 0.760254L705.076 0.760283H855.734H1018.17L1018.18 0.760254L1201.42 0.760283Z"/>
</mask>
<path fill-rule="evenodd" clip-rule="evenodd" d="M1201.42 0.760283H1363.86H1549.5L1549.51 0.760254L1709.54 0.760283H1895.19H2057.63L2057.64 0.760254L2240.87 0.760283H2403.32H2592.6L2592.62 0.760254L2749 0.760283H2938.3H3100.73L3100.74 0.760254L3283.98 0.760283H3446.42H3635.61C3635.61 0.760264 3635.61 0.760254 3635.62 0.760254L3792.1 0.760283H3981.3H4149.72L4149.74 0.760254L4326.98 0.760283H4489.42H4829.1C4833.52 0.760283 4837.11 4.34266 4837 8.75959C4835.98 50.0941 4827.05 90.9146 4810.64 129.156C4793.16 169.862 4767.55 206.849 4735.27 238.005C4702.98 269.16 4664.65 293.874 4622.47 310.735C4580.29 327.596 4535.08 336.274 4489.42 336.274C4443.76 336.274 4398.55 327.596 4356.37 310.735C4314.19 293.874 4275.86 269.16 4243.57 238.005C4242.77 237.23 4241.97 236.453 4241.18 235.671C4237.96 232.501 4232.76 232.501 4229.54 235.671C4228.75 236.453 4227.95 237.23 4227.15 238.005C4194.86 269.16 4156.53 293.874 4114.35 310.735C4072.17 327.596 4026.96 336.274 3981.3 336.274C3935.64 336.274 3890.43 327.596 3848.25 310.735C3806.06 293.874 3767.74 269.16 3735.45 238.005C3723.54 226.508 3704.18 226.508 3692.27 238.005C3659.98 269.16 3621.65 293.874 3579.47 310.735C3537.29 327.596 3492.08 336.274 3446.42 336.274C3400.76 336.274 3355.55 327.596 3313.37 310.735C3271.18 293.874 3232.86 269.16 3200.57 238.005C3196 233.596 3188.71 233.596 3184.14 238.005C3151.86 269.16 3113.53 293.874 3071.35 310.735C3029.17 327.596 2983.95 336.274 2938.3 336.274C2892.64 336.274 2847.43 327.596 2805.25 310.735C2763.06 293.874 2724.73 269.16 2692.45 238.005C2680.51 226.482 2661.11 226.482 2649.17 238.005C2616.88 269.16 2578.56 293.874 2536.37 310.735C2494.19 327.596 2448.98 336.274 2403.32 336.274C2357.66 336.274 2312.45 327.596 2270.27 310.735C2228.09 293.874 2189.76 269.16 2157.47 238.005C2152.9 233.594 2145.61 233.594 2141.04 238.005C2108.75 269.16 2070.43 293.874 2028.24 310.735C1986.06 327.596 1940.85 336.274 1895.19 336.274C1849.53 336.274 1804.32 327.596 1762.14 310.735C1719.96 293.874 1681.63 269.16 1649.34 238.005C1638.4 227.439 1620.66 227.44 1609.71 238.005C1577.43 269.16 1539.1 293.874 1496.92 310.735C1454.73 327.596 1409.52 336.274 1363.86 336.274C1318.21 336.274 1272.99 327.596 1230.81 310.735C1188.63 293.874 1150.3 269.16 1118.02 238.005C1113.45 233.594 1106.15 233.594 1101.58 238.005C1069.3 269.16 1030.97 293.874 988.786 310.735C946.603 327.596 901.392 336.274 855.734 336.274C810.076 336.274 764.865 327.596 722.683 310.735C680.5 293.874 642.172 269.16 609.887 238.005C609.836 237.955 609.785 237.906 609.734 237.857C609.474 237.605 609.061 237.603 608.798 237.851L608.635 238.005C575.523 269.16 536.213 293.874 492.951 310.735C449.688 327.596 403.319 336.274 356.492 336.274C309.665 336.274 263.296 327.596 220.034 310.735C176.771 293.874 137.462 269.16 104.35 238.005C71.238 206.849 44.9723 169.862 27.0523 129.156C10.2175 90.9146 1.05797 50.094 0.0103598 8.75951C-0.101585 4.34265 3.49073 0.760254 7.90901 0.760254L356.492 0.760283H510.043L510.053 0.760254L705.076 0.760283H855.734H1018.17L1018.18 0.760254L1201.42 0.760283Z" fill="#E3ED73"/>
<path d="M1201.42 0.760283V3.76028V0.760283ZM1549.5 0.760283V3.76029L1549.51 3.76027L1549.5 0.760283ZM1549.51 0.760254V-2.23976L1549.5 -2.23974L1549.51 0.760254ZM1709.54 0.760283V3.76028V0.760283ZM2057.63 0.760283V3.76029L2057.64 3.76027L2057.63 0.760283ZM2057.64 0.760254V-2.23976L2057.63 -2.23974L2057.64 0.760254ZM2240.87 0.760283V3.76028V0.760283ZM2592.6 0.760283V3.76029L2592.61 3.76027L2592.6 0.760283ZM2592.62 0.760254V-2.23976L2592.61 -2.23974L2592.62 0.760254ZM2749 0.760283V3.76028V0.760283ZM3100.73 0.760283V3.76029L3100.73 3.76027L3100.73 0.760283ZM3100.74 0.760254V-2.23976L3100.73 -2.23974L3100.74 0.760254ZM3283.98 0.760283V3.76028V0.760283ZM3635.61 0.760283V3.76028H3635.61L3635.62 3.76024L3635.61 0.760283ZM3635.62 0.760254V-2.23975V0.760254ZM3792.1 0.760283V3.76028V0.760283ZM4149.72 0.760283V3.76029L4149.72 3.76028L4149.72 0.760283ZM4149.74 0.760254V-2.23975L4149.73 -2.23974L4149.74 0.760254ZM4326.98 0.760283V3.76028V0.760283ZM4837 8.75959L4840 8.8337V8.83352L4837 8.75959ZM4810.64 129.156L4813.39 130.339V130.339L4810.64 129.156ZM4735.27 238.005L4737.35 240.163L4735.27 238.005ZM4622.47 310.735L4621.36 307.949L4622.47 310.735ZM4356.37 310.735L4355.25 313.521L4356.37 310.735ZM4243.57 238.005L4245.66 235.846L4245.66 235.846L4243.57 238.005ZM4241.18 235.671L4239.07 237.81L4241.18 235.671ZM4229.54 235.671L4227.44 233.533V233.533L4229.54 235.671ZM4227.15 238.005L4225.06 235.846V235.846L4227.15 238.005ZM4114.35 310.735L4113.24 307.949L4114.35 310.735ZM3848.25 310.735L3847.13 313.521L3848.25 310.735ZM3579.47 310.735L3578.36 307.949L3579.47 310.735ZM3313.37 310.735L3312.25 313.521L3313.37 310.735ZM3071.35 310.735L3070.23 307.949L3071.35 310.735ZM2805.25 310.735L2804.13 313.521L2805.25 310.735ZM2536.37 310.735L2535.26 307.949L2536.37 310.735ZM2270.27 310.735L2271.38 307.949L2270.27 310.735ZM2028.24 310.735L2027.13 307.949L2028.24 310.735ZM1762.14 310.735L1763.25 307.949L1762.14 310.735ZM1496.92 310.735L1495.8 307.949L1496.92 310.735ZM1230.81 310.735L1229.7 313.521L1230.81 310.735ZM988.786 310.735L987.673 307.949L988.786 310.735ZM722.683 310.735L721.569 313.521L722.683 310.735ZM609.887 238.005L607.803 240.163L607.804 240.163L609.887 238.005ZM608.635 238.005L610.69 240.189L610.691 240.189L608.635 238.005ZM492.951 310.735L491.861 307.94V307.94L492.951 310.735ZM220.034 310.735L218.944 313.53L220.034 310.735ZM27.0523 129.156L29.798 127.947L27.0523 129.156ZM0.0103598 8.75951L3.0094 8.6835L0.0103598 8.75951ZM7.90901 0.760254V3.76025V0.760254ZM356.492 0.760283V3.76028V0.760283ZM510.043 0.760283V3.76029L510.051 3.76027L510.043 0.760283ZM510.053 0.760254V-2.23976L510.045 -2.23974L510.053 0.760254ZM705.076 0.760283V3.76028V0.760283ZM1018.17 0.760283V3.76029L1018.18 3.76027L1018.17 0.760283ZM1018.18 0.760254V-2.23976L1018.18 -2.23974L1018.18 0.760254ZM609.734 237.857L607.649 240.014L609.734 237.857ZM1363.86 -2.23972H1201.42V3.76028H1363.86V-2.23972ZM1549.5 -2.23972H1363.86V3.76028H1549.5V-2.23972ZM1549.5 -2.23974L1549.49 -2.23971L1549.51 3.76027L1549.52 3.76024L1549.5 -2.23974ZM1709.54 -2.23972L1549.51 -2.23975V3.76025L1709.54 3.76028V-2.23972ZM1895.19 -2.23972H1709.54V3.76028H1895.19V-2.23972ZM2057.63 -2.23972H1895.19V3.76028H2057.63V-2.23972ZM2057.63 -2.23974L2057.62 -2.23971L2057.64 3.76027L2057.65 3.76024L2057.63 -2.23974ZM2240.87 -2.23972L2057.64 -2.23975V3.76025L2240.87 3.76028V-2.23972ZM2403.32 -2.23972H2240.87V3.76028H2403.32V-2.23972ZM2592.6 -2.23972H2403.32V3.76028H2592.6V-2.23972ZM2592.61 -2.23974L2592.6 -2.23971L2592.61 3.76027L2592.62 3.76024L2592.61 -2.23974ZM2749 -2.23972L2592.62 -2.23975V3.76025L2749 3.76028V-2.23972ZM2938.3 -2.23972H2749V3.76028H2938.3V-2.23972ZM3100.73 -2.23972H2938.3V3.76028H3100.73V-2.23972ZM3100.73 -2.23974L3100.72 -2.23971L3100.73 3.76027L3100.75 3.76024L3100.73 -2.23974ZM3283.98 -2.23972L3100.74 -2.23975V3.76025L3283.98 3.76028V-2.23972ZM3446.42 -2.23972H3283.98V3.76028H3446.42V-2.23972ZM3635.61 -2.23972H3446.42V3.76028H3635.61V-2.23972ZM3635.62 3.76024C3635.62 3.76025 3635.62 3.76025 3635.62 3.76025V-2.23975C3635.61 -2.23975 3635.6 -2.23972 3635.59 -2.23967L3635.62 3.76024ZM3635.62 3.76025L3792.1 3.76028V-2.23972L3635.62 -2.23975V3.76025ZM3792.1 3.76028H3981.3V-2.23972H3792.1V3.76028ZM3981.3 3.76028H4149.72V-2.23972H3981.3V3.76028ZM4149.72 3.76028L4149.74 3.76025L4149.73 -2.23974L4149.71 -2.23971L4149.72 3.76028ZM4149.74 3.76025L4326.98 3.76028V-2.23972L4149.74 -2.23975V3.76025ZM4326.98 3.76028H4489.42V-2.23972H4326.98V3.76028ZM4489.42 3.76028H4829.1V-2.23972H4489.42V3.76028ZM4829.1 3.76028C4831.88 3.76028 4834.07 6.00242 4834 8.68565L4840 8.83352C4840.15 2.6829 4835.16 -2.23972 4829.1 -2.23972V3.76028ZM4834 8.68547C4832.99 49.6362 4824.14 90.0805 4807.88 127.973L4813.39 130.339C4829.96 91.7487 4838.97 50.5518 4840 8.8337L4834 8.68547ZM4807.88 127.973C4790.57 168.308 4765.19 204.964 4733.18 235.846L4737.35 240.163C4769.92 208.734 4795.76 171.417 4813.39 130.339L4807.88 127.973ZM4733.18 235.846C4701.18 266.728 4663.18 291.23 4621.36 307.949L4623.59 313.521C4666.12 296.517 4704.78 271.592 4737.35 240.163L4733.18 235.846ZM4621.36 307.949C4579.53 324.668 4534.7 333.274 4489.42 333.274V339.274C4535.46 339.274 4581.05 330.524 4623.59 313.521L4621.36 307.949ZM4489.42 333.274C4444.14 333.274 4399.31 324.668 4357.48 307.949L4355.25 313.521C4397.79 330.524 4443.38 339.274 4489.42 339.274V333.274ZM4357.48 307.949C4315.66 291.23 4277.66 266.728 4245.66 235.846L4241.49 240.163C4274.06 271.592 4312.72 296.517 4355.25 313.521L4357.48 307.949ZM4245.66 235.846C4244.86 235.079 4244.07 234.308 4243.28 233.533L4239.07 237.81C4239.88 238.598 4240.68 239.382 4241.49 240.163L4245.66 235.846ZM4243.28 233.533C4238.89 229.214 4231.82 229.214 4227.44 233.533L4231.64 237.81C4233.7 235.788 4237.02 235.788 4239.07 237.81L4243.28 233.533ZM4227.44 233.533C4226.65 234.308 4225.86 235.079 4225.06 235.846L4229.23 240.163C4230.04 239.382 4230.84 238.598 4231.64 237.81L4227.44 233.533ZM4225.06 235.846C4193.06 266.728 4155.06 291.23 4113.24 307.949L4115.46 313.521C4158 296.517 4196.66 271.592 4229.23 240.163L4225.06 235.846ZM4113.24 307.949C4071.41 324.668 4026.58 333.274 3981.3 333.274V339.274C4027.34 339.274 4072.92 330.524 4115.46 313.521L4113.24 307.949ZM3981.3 333.274C3936.02 333.274 3891.19 324.668 3849.36 307.949L3847.13 313.521C3889.67 330.524 3935.26 339.274 3981.3 339.274V333.274ZM3849.36 307.949C3807.53 291.23 3769.54 266.728 3737.53 235.846L3733.37 240.163C3765.94 271.592 3804.59 296.517 3847.13 313.521L3849.36 307.949ZM3580.58 313.521C3623.12 296.517 3661.78 271.592 3694.35 240.163L3690.18 235.846C3658.18 266.728 3620.18 291.23 3578.36 307.949L3580.58 313.521ZM3446.42 339.274C3492.46 339.274 3538.05 330.524 3580.58 313.521L3578.36 307.949C3536.53 324.668 3491.7 333.274 3446.42 333.274V339.274ZM3312.25 313.521C3354.79 330.524 3400.38 339.274 3446.42 339.274V333.274C3401.14 333.274 3356.31 324.668 3314.48 307.949L3312.25 313.521ZM3198.49 240.163C3231.06 271.592 3269.71 296.517 3312.25 313.521L3314.48 307.949C3272.65 291.23 3234.66 266.728 3202.65 235.846L3198.49 240.163ZM3072.46 313.521C3115 296.517 3153.66 271.592 3186.23 240.163L3182.06 235.846C3150.06 266.728 3112.06 291.23 3070.23 307.949L3072.46 313.521ZM2938.3 339.274C2984.33 339.274 3029.92 330.524 3072.46 313.521L3070.23 307.949C3028.41 324.668 2983.58 333.274 2938.3 333.274V339.274ZM2804.13 313.521C2846.67 330.524 2892.26 339.274 2938.3 339.274V333.274C2893.02 333.274 2848.19 324.668 2806.36 307.949L2804.13 313.521ZM2690.37 240.163C2722.93 271.592 2761.59 296.517 2804.13 313.521L2806.36 307.949C2764.53 291.23 2726.53 266.728 2694.53 235.846L2690.37 240.163ZM2537.49 313.521C2580.03 296.517 2618.68 271.592 2651.25 240.163L2647.09 235.846C2615.08 266.728 2577.09 291.23 2535.26 307.949L2537.49 313.521ZM2403.32 339.274C2449.36 339.274 2494.95 330.524 2537.49 313.521L2535.26 307.949C2493.43 324.668 2448.6 333.274 2403.32 333.274V339.274ZM2269.16 313.521C2311.69 330.524 2357.28 339.274 2403.32 339.274V333.274C2358.04 333.274 2313.21 324.668 2271.38 307.949L2269.16 313.521ZM2155.39 240.163C2187.96 271.592 2226.62 296.517 2269.16 313.521L2271.38 307.949C2229.56 291.23 2191.56 266.728 2159.56 235.846L2155.39 240.163ZM2029.36 313.521C2071.9 296.517 2110.55 271.592 2143.12 240.163L2138.96 235.846C2106.95 266.728 2068.96 291.23 2027.13 307.949L2029.36 313.521ZM1895.19 339.274C1941.23 339.274 1986.82 330.524 2029.36 313.521L2027.13 307.949C1985.3 324.668 1940.47 333.274 1895.19 333.274V339.274ZM1761.03 313.521C1803.56 330.524 1849.15 339.274 1895.19 339.274V333.274C1849.91 333.274 1805.08 324.668 1763.25 307.949L1761.03 313.521ZM1647.26 240.163C1679.83 271.592 1718.49 296.517 1761.03 313.521L1763.25 307.949C1721.43 291.23 1683.43 266.728 1651.43 235.846L1647.26 240.163ZM1498.03 313.521C1540.57 296.517 1579.23 271.592 1611.79 240.163L1607.63 235.846C1575.63 266.728 1537.63 291.23 1495.8 307.949L1498.03 313.521ZM1363.86 339.274C1409.9 339.274 1455.49 330.524 1498.03 313.521L1495.8 307.949C1453.98 324.668 1409.14 333.274 1363.86 333.274V339.274ZM1229.7 313.521C1272.24 330.524 1317.83 339.274 1363.86 339.274V333.274C1318.59 333.274 1273.75 324.668 1231.93 307.949L1229.7 313.521ZM1115.93 240.163C1148.5 271.592 1187.16 296.517 1229.7 313.521L1231.93 307.949C1190.1 291.23 1152.1 266.728 1120.1 235.846L1115.93 240.163ZM989.9 313.521C1032.44 296.517 1071.1 271.592 1103.67 240.163L1099.5 235.846C1067.5 266.728 1029.5 291.23 987.673 307.949L989.9 313.521ZM855.734 339.274C901.772 339.274 947.361 330.524 989.9 313.521L987.673 307.949C945.846 324.668 901.013 333.274 855.734 333.274V339.274ZM721.569 313.521C764.108 330.524 809.697 339.274 855.734 339.274V333.274C810.456 333.274 765.623 324.668 723.796 307.949L721.569 313.521ZM607.804 240.163C640.372 271.592 679.03 296.517 721.569 313.521L723.796 307.949C681.97 291.23 643.972 266.728 611.97 235.846L607.804 240.163ZM607.649 240.014C607.701 240.064 607.752 240.114 607.803 240.163L611.97 235.846C611.92 235.797 611.869 235.748 611.819 235.7L607.649 240.014ZM610.691 240.189L610.854 240.035L606.741 235.667L606.578 235.82L610.691 240.189ZM494.04 313.53C537.653 296.532 577.293 271.614 610.69 240.189L606.579 235.82C573.753 266.706 534.774 291.215 491.861 307.94L494.04 313.53ZM356.492 339.274C403.689 339.274 450.427 330.528 494.04 313.53L491.861 307.94C448.949 324.664 402.95 333.274 356.492 333.274V339.274ZM218.944 313.53C262.557 330.528 309.296 339.274 356.492 339.274V333.274C310.035 333.274 264.036 324.664 221.123 307.94L218.944 313.53ZM102.294 240.189C135.692 271.614 175.331 296.532 218.944 313.53L221.123 307.94C178.211 291.215 139.231 266.706 106.406 235.82L102.294 240.189ZM24.3066 130.365C42.3924 171.448 68.8958 208.765 102.294 240.189L106.406 235.82C73.5802 204.934 47.5522 168.277 29.798 127.947L24.3066 130.365ZM-2.98868 8.83552C-1.93108 50.564 7.31583 91.7691 24.3066 130.365L29.798 127.947C13.1191 90.0601 4.04703 49.624 3.0094 8.6835L-2.98868 8.83552ZM7.90901 -2.23975C1.85439 -2.23975 -3.14462 2.68274 -2.98868 8.83552L3.0094 8.6835C2.94145 6.00256 5.12706 3.76025 7.90901 3.76025L7.90901 -2.23975ZM356.492 -2.23972L7.90901 -2.23975L7.90901 3.76025L356.492 3.76028V-2.23972ZM510.043 -2.23972H356.492V3.76028H510.043V-2.23972ZM510.045 -2.23974L510.035 -2.23971L510.051 3.76027L510.061 3.76024L510.045 -2.23974ZM705.076 -2.23972L510.053 -2.23975V3.76025L705.076 3.76028V-2.23972ZM855.734 -2.23972H705.076V3.76028H855.734V-2.23972ZM1018.17 -2.23972H855.734V3.76028H1018.17V-2.23972ZM1018.18 -2.23974L1018.16 -2.23971L1018.18 3.76027L1018.19 3.76024L1018.18 -2.23974ZM1201.42 -2.23972L1018.18 -2.23975V3.76025L1201.42 3.76028V-2.23972ZM611.819 235.7C610.406 234.335 608.17 234.32 606.74 235.668L610.855 240.034C609.952 240.885 608.541 240.876 607.649 240.014L611.819 235.7ZM1120.1 235.846C1114.37 230.314 1105.23 230.314 1099.5 235.846L1103.67 240.163C1107.07 236.874 1112.53 236.874 1115.93 240.163L1120.1 235.846ZM1651.43 235.846C1639.32 224.159 1619.74 224.159 1607.63 235.846L1611.79 240.163C1621.58 230.72 1637.47 230.72 1647.26 240.163L1651.43 235.846ZM2159.56 235.846C2153.82 230.314 2144.69 230.314 2138.96 235.846L2143.12 240.163C2146.53 236.875 2151.98 236.874 2155.39 240.163L2159.56 235.846ZM2694.53 235.846C2681.43 223.202 2660.19 223.202 2647.09 235.846L2651.25 240.163C2662.03 229.763 2679.59 229.763 2690.37 240.163L2694.53 235.846ZM3202.65 235.846C3196.92 230.316 3187.79 230.316 3182.06 235.846L3186.23 240.163C3189.63 236.877 3195.08 236.877 3198.49 240.163L3202.65 235.846ZM3737.53 235.846C3724.46 223.227 3703.26 223.227 3690.18 235.846L3694.35 240.163C3705.1 229.788 3722.62 229.788 3733.37 240.163L3737.53 235.846Z" fill="#C7E966" mask="url(#path-1-inside-1_4734_896)"/>
</svg>
