<svg width="4827" height="4233" viewBox="0 0 4827 4233" fill="none" xmlns="http://www.w3.org/2000/svg">
<path d="M20.5405 2114.82C10.3208 2114.82 2.03809 2106.52 2.14844 2096.32C8.11089 1542.73 261.445 1012.89 708.317 620.983C1160.57 224.352 1774 1.49998 2413.66 1.50003C3053.32 1.50009 3666.75 224.353 4119.01 620.983C4565.88 1012.89 4819.21 1542.73 4825.17 2096.32C4825.28 2106.52 4817 2114.82 4806.78 2114.82L2413.66 2114.82L20.5405 2114.82Z" fill="url(#paint0_linear_4756_857)" stroke="#C69600" stroke-width="3"/>
<mask id="mask0_4756_857" style="mask-type:alpha" maskUnits="userSpaceOnUse" x="0" y="0" width="4827" height="2117">
<mask id="path-2-inside-1_4756_857" fill="white">
<path d="M20.5485 2116.32C9.50263 2116.32 0.537295 2107.35 0.656437 2096.31C6.62377 1542.26 260.169 1012.03 707.335 619.861C1159.88 222.974 1773.67 0.00559246 2413.67 0.00564841C3053.67 0.00570436 3667.45 222.974 4120 619.861C4567.17 1012.03 4820.71 1542.26 4826.68 2096.31C4826.8 2107.35 4817.83 2116.32 4806.79 2116.32L2413.67 2116.32L20.5485 2116.32Z"/>
</mask>
<path d="M20.5485 2116.32C9.50263 2116.32 0.537295 2107.35 0.656437 2096.31C6.62377 1542.26 260.169 1012.03 707.335 619.861C1159.88 222.974 1773.67 0.00559246 2413.67 0.00564841C3053.67 0.00570436 3667.45 222.974 4120 619.861C4567.17 1012.03 4820.71 1542.26 4826.68 2096.31C4826.8 2107.35 4817.83 2116.32 4806.79 2116.32L2413.67 2116.32L20.5485 2116.32Z" fill="#FFAC50" stroke="#B28A59" stroke-width="4" mask="url(#path-2-inside-1_4756_857)"/>
</mask>
<g mask="url(#mask0_4756_857)">
<path d="M374.773 1690.47C96.0378 1690.47 -137.101 1505.51 -218.829 1380.77L-334.969 2374.4L5162.3 2593.78L5020.35 1509.81C4930.02 1591.54 4821.62 1729.18 4491.27 1729.18C4078.33 1729.18 4117.04 1509.81 3755.72 1509.81C3458.92 1509.81 3523.44 1664.66 3110.5 1664.66C2697.56 1664.66 2774.99 1509.81 2387.86 1509.81C2000.73 1509.81 2078.15 1664.66 1729.73 1664.66C1381.31 1664.66 1497.45 1509.81 1058.7 1509.81C619.956 1509.81 723.191 1690.47 374.773 1690.47Z" fill="#FFC78E" stroke="#FFAC50" stroke-width="2"/>
</g>
<ellipse cx="2797.09" cy="1004.73" rx="71.7666" ry="71.7666" fill="#FF7300"/>
<ellipse cx="1140.45" cy="622.934" rx="66.0253" ry="66.0253" fill="#FF7300"/>
<ellipse cx="3773.11" cy="743.503" rx="54.5426" ry="54.5426" fill="#FEE7BB"/>
<ellipse cx="2584.38" cy="648.77" rx="40.1893" ry="40.1893" fill="#FEE7BB"/>
<ellipse cx="3468.82" cy="218.171" rx="40.1893" ry="40.1893" fill="#FEE7BB"/>
<ellipse cx="2159.53" cy="1076.5" rx="40.1893" ry="40.1893" fill="#FEE7BB"/>
<ellipse cx="2822.66" cy="364.574" rx="45.9306" ry="45.9306" fill="#FEE7BB"/>
<ellipse cx="2954.7" cy="298.549" rx="40.1893" ry="40.1893" fill="#FF7300"/>
<ellipse cx="1887.09" cy="427.729" rx="54.5426" ry="54.5426" fill="#FEE7BB"/>
<ellipse cx="1157.67" cy="884.165" rx="48.8013" ry="48.8013" fill="#FEE7BB"/>
<ellipse cx="1410.29" cy="226.783" rx="48.8013" ry="48.8013" fill="#FEE7BB"/>
<ellipse cx="3531.98" cy="410.505" rx="71.7666" ry="71.7666" fill="#FF7300"/>
<ellipse cx="1947.1" cy="757.855" rx="60.284" ry="60.284" fill="#FF7300"/>
<path fill-rule="evenodd" clip-rule="evenodd" d="M2375 974.289C2390.58 990.375 2390.45 1016.24 2374.46 1031.74C2358.71 1046.99 2332.85 1046.3 2317.27 1030.22C2301.59 1014.03 2296.92 979.239 2295.01 955.332C2294.76 952.189 2297.47 949.635 2300.6 950.025C2324.85 953.05 2358.6 957.363 2375 974.289Z" fill="#9E540F"/>
<path fill-rule="evenodd" clip-rule="evenodd" d="M3011.53 592.464C3008.43 614.645 2987.95 630.449 2965.9 627.367C2944.18 624.333 2928.82 603.521 2931.92 581.34C2935.04 559.02 2959.6 533.94 2977.28 517.73C2979.6 515.598 2983.28 516.165 2984.9 518.872C2997.43 539.859 3014.79 569.123 3011.53 592.464Z" fill="#9E540F"/>
<path fill-rule="evenodd" clip-rule="evenodd" d="M976.334 910.05C989.284 928.324 985.209 953.869 967.039 966.744C949.153 979.419 923.702 974.797 910.752 956.523C897.723 938.135 898.411 903.038 900.167 879.119C900.398 875.975 903.466 873.864 906.499 874.727C930.011 881.414 962.709 890.822 976.334 910.05Z" fill="#9E540F"/>
<path fill-rule="evenodd" clip-rule="evenodd" d="M2365.51 457.703C2373.07 478.785 2362.27 502.294 2341.31 509.809C2320.68 517.208 2297.41 505.913 2289.85 484.831C2282.24 463.617 2292.34 429.997 2300.46 407.431C2301.53 404.464 2305.05 403.257 2307.74 404.903C2328.59 417.666 2357.56 435.519 2365.51 457.703Z" fill="#9E540F"/>
<path fill-rule="evenodd" clip-rule="evenodd" d="M1587.82 209.564C1570.21 195.728 1566.85 170.08 1580.61 152.568C1594.15 135.33 1619.87 132.522 1637.48 146.357C1655.2 160.279 1664.52 194.123 1669.64 217.553C1670.32 220.634 1667.97 223.53 1664.82 223.566C1640.38 223.842 1606.36 224.123 1587.82 209.564Z" fill="#9E540F"/>
<path fill-rule="evenodd" clip-rule="evenodd" d="M1458.93 584.161C1472.64 566.455 1469.66 540.76 1452.06 527.123C1434.73 513.698 1409.1 517.231 1395.39 534.937C1381.58 552.753 1380.78 587.847 1381.51 611.819C1381.61 614.971 1384.58 617.21 1387.65 616.478C1411.43 610.798 1444.5 602.792 1458.93 584.161Z" fill="#9E540F"/>
<path fill-rule="evenodd" clip-rule="evenodd" d="M3313.12 740.21C3293.16 715.102 3296.97 678.253 3321.94 658.406C3346.51 638.869 3383.27 643.467 3403.23 668.575C3423.84 694.491 3425.19 746.692 3424.43 781.05C3424.36 784.203 3421.42 786.478 3418.34 785.784C3384.05 778.04 3334.66 767.298 3313.12 740.21Z" fill="#9E540F"/>
<path fill-rule="evenodd" clip-rule="evenodd" d="M2100.43 321.616C2094.14 353.068 2063.54 373.949 2032.27 367.697C2001.48 361.542 1981.26 330.501 1987.55 299.048C1994.04 266.582 2033.04 231.851 2059.76 210.246C2062.21 208.264 2065.85 209.044 2067.31 211.841C2083.53 243.031 2107.22 287.682 2100.43 321.616Z" fill="#9E540F"/>
<path fill-rule="evenodd" clip-rule="evenodd" d="M3029.74 69.3272C3053.99 90.3256 3057.03 127.246 3036.16 151.354C3015.6 175.086 2978.63 177.342 2954.38 156.344C2929.35 134.669 2918.4 83.6122 2912.81 49.7033C2912.3 46.5923 2914.77 43.8127 2917.92 43.9284C2953.06 45.2183 3003.58 46.6725 3029.74 69.3272Z" fill="#9E540F"/>
<defs>
<linearGradient id="paint0_linear_4756_857" x1="2975" y1="556.277" x2="4054" y2="1992.28" gradientUnits="userSpaceOnUse">
<stop stop-color="#FFAC50"/>
<stop offset="1" stop-color="#FE7708"/>
</linearGradient>
</defs>
</svg>
