<svg width="3510" height="3649" viewBox="0 0 3510 3649" fill="none" xmlns="http://www.w3.org/2000/svg">
<mask id="path-1-inside-1_4751_1298" fill="white">
<path fill-rule="evenodd" clip-rule="evenodd" d="M1617.84 47.207C707.738 148.472 0.3125 913.587 0.3125 1842.42C0.3125 2840.17 816.611 3649 1823.57 3649C2583.95 3649 3235.62 3187.78 3509.17 2532.28C3492.67 2520.73 3478.18 2505.62 3466.9 2487.23C3458.76 2473.97 3452.85 2459.93 3449.09 2445.57C3439.6 2481.78 3417.13 2514.54 3383.45 2535.97C3312.99 2580.79 3220.18 2558.97 3176.16 2487.23C3172.93 2481.98 3170.06 2476.6 3167.53 2471.13C3155.66 2496.97 3136.56 2519.73 3111.04 2535.97C3040.57 2580.79 2947.77 2558.97 2903.74 2487.23C2888.3 2462.08 2880.91 2434.12 2880.86 2406.49C2875.12 2412.43 2868.81 2417.97 2861.97 2423.03C2794.75 2472.75 2700.67 2457.57 2651.84 2389.13C2628 2355.71 2619.35 2315.78 2624.57 2277.87C2612.88 2296.68 2596.97 2313.18 2577.18 2325.76C2506.72 2370.59 2413.91 2348.77 2369.89 2277.03C2343.82 2234.56 2340.7 2184.11 2357.12 2140.71C2347.53 2151.97 2336.16 2161.98 2323.1 2170.29C2263.36 2208.29 2187.56 2198.39 2139.04 2150.78C2057.61 2220.29 1946.3 2263.12 1823.57 2263.12C1574.01 2263.12 1371.71 2086.06 1371.71 1867.66C1371.71 1678.23 1523.9 1519.91 1727.11 1481.24C1717.52 1472.2 1708.94 1461.73 1701.68 1449.9C1664.53 1389.37 1673.99 1312.63 1720.18 1263.21C1669.35 1263.88 1619.42 1238.29 1590.51 1191.19C1549.48 1124.32 1565.31 1037.68 1624.71 989.927C1599.4 977.831 1577.11 958.42 1561.19 932.484C1519.17 864.005 1536.79 774.794 1599.75 727.839C1577.19 715.639 1557.38 697.417 1542.87 673.772C1498.85 602.032 1520.28 507.537 1590.74 462.712C1599.7 457.011 1609.02 452.388 1618.56 448.808C1607.91 439.237 1598.42 427.957 1590.51 415.065C1546.49 343.324 1567.92 248.829 1638.38 204.005C1647.34 198.301 1656.67 193.676 1666.21 190.096C1655.56 180.526 1646.08 169.246 1638.17 156.355C1617.39 122.502 1611.19 83.5832 1617.84 47.207Z"/>
</mask>
<path fill-rule="evenodd" clip-rule="evenodd" d="M1617.84 47.207C707.738 148.472 0.3125 913.587 0.3125 1842.42C0.3125 2840.17 816.611 3649 1823.57 3649C2583.95 3649 3235.62 3187.78 3509.17 2532.28C3492.67 2520.73 3478.18 2505.62 3466.9 2487.23C3458.76 2473.97 3452.85 2459.93 3449.09 2445.57C3439.6 2481.78 3417.13 2514.54 3383.45 2535.97C3312.99 2580.79 3220.18 2558.97 3176.16 2487.23C3172.93 2481.98 3170.06 2476.6 3167.53 2471.13C3155.66 2496.97 3136.56 2519.73 3111.04 2535.97C3040.57 2580.79 2947.77 2558.97 2903.74 2487.23C2888.3 2462.08 2880.91 2434.12 2880.86 2406.49C2875.12 2412.43 2868.81 2417.97 2861.97 2423.03C2794.75 2472.75 2700.67 2457.57 2651.84 2389.13C2628 2355.71 2619.35 2315.78 2624.57 2277.87C2612.88 2296.68 2596.97 2313.18 2577.18 2325.76C2506.72 2370.59 2413.91 2348.77 2369.89 2277.03C2343.82 2234.56 2340.7 2184.11 2357.12 2140.71C2347.53 2151.97 2336.16 2161.98 2323.1 2170.29C2263.36 2208.29 2187.56 2198.39 2139.04 2150.78C2057.61 2220.29 1946.3 2263.12 1823.57 2263.12C1574.01 2263.12 1371.71 2086.06 1371.71 1867.66C1371.71 1678.23 1523.9 1519.91 1727.11 1481.24C1717.52 1472.2 1708.94 1461.73 1701.68 1449.9C1664.53 1389.37 1673.99 1312.63 1720.18 1263.21C1669.35 1263.88 1619.42 1238.29 1590.51 1191.19C1549.48 1124.32 1565.31 1037.68 1624.71 989.927C1599.4 977.831 1577.11 958.42 1561.19 932.484C1519.17 864.005 1536.79 774.794 1599.75 727.839C1577.19 715.639 1557.38 697.417 1542.87 673.772C1498.85 602.032 1520.28 507.537 1590.74 462.712C1599.7 457.011 1609.02 452.388 1618.56 448.808C1607.91 439.237 1598.42 427.957 1590.51 415.065C1546.49 343.324 1567.92 248.829 1638.38 204.005C1647.34 198.301 1656.67 193.676 1666.21 190.096C1655.56 180.526 1646.08 169.246 1638.17 156.355C1617.39 122.502 1611.19 83.5832 1617.84 47.207Z" fill="#CFA849"/>
<path d="M1617.84 47.207L1619.81 47.5667L1620.29 44.922L1617.62 45.2193L1617.84 47.207ZM3509.17 2532.28L3511.02 2533.05L3511.64 2531.56L3510.32 2530.64L3509.17 2532.28ZM3466.9 2487.23L3468.6 2486.19L3468.6 2486.19L3466.9 2487.23ZM3449.09 2445.57L3451.02 2445.06L3449.08 2437.68L3447.15 2445.06L3449.09 2445.57ZM3383.45 2535.97L3382.38 2534.28L3382.38 2534.28L3383.45 2535.97ZM3176.16 2487.23L3174.45 2488.28L3174.45 2488.28L3176.16 2487.23ZM3167.53 2471.13L3169.35 2470.29L3167.53 2466.35L3165.71 2470.3L3167.53 2471.13ZM3111.04 2535.97L3109.96 2534.28L3109.96 2534.28L3111.04 2535.97ZM2903.74 2487.23L2905.45 2486.19L2905.45 2486.19L2903.74 2487.23ZM2880.86 2406.49L2882.86 2406.48L2882.86 2401.55L2879.43 2405.1L2880.86 2406.49ZM2861.97 2423.03L2863.16 2424.64L2863.16 2424.64L2861.97 2423.03ZM2651.84 2389.13L2650.21 2390.29L2650.21 2390.29L2651.84 2389.13ZM2624.57 2277.87L2626.55 2278.14L2622.87 2276.81L2624.57 2277.87ZM2577.18 2325.76L2578.26 2327.45L2578.26 2327.45L2577.18 2325.76ZM2369.89 2277.03L2368.18 2278.08L2368.18 2278.08L2369.89 2277.03ZM2357.12 2140.71L2358.99 2141.42L2355.59 2139.41L2357.12 2140.71ZM2323.1 2170.29L2322.02 2168.6L2322.02 2168.6L2323.1 2170.29ZM2139.04 2150.78L2140.44 2149.35L2139.13 2148.07L2137.74 2149.26L2139.04 2150.78ZM1727.11 1481.24L1727.49 1483.2L1731.34 1482.47L1728.48 1479.78L1727.11 1481.24ZM1701.68 1449.9L1699.98 1450.95L1699.98 1450.95L1701.68 1449.9ZM1720.18 1263.21L1721.64 1264.57L1724.84 1261.15L1720.15 1261.21L1720.18 1263.21ZM1590.51 1191.19L1588.81 1192.24L1588.81 1192.24L1590.51 1191.19ZM1624.71 989.927L1625.96 991.486L1628.44 989.494L1625.57 988.123L1624.71 989.927ZM1561.19 932.484L1559.49 933.53L1559.49 933.53L1561.19 932.484ZM1599.75 727.839L1600.95 729.442L1603.46 727.57L1600.71 726.08L1599.75 727.839ZM1542.87 673.772L1544.58 672.726L1544.58 672.726L1542.87 673.772ZM1590.74 462.712L1591.81 464.399L1591.81 464.399L1590.74 462.712ZM1618.56 448.808L1619.26 450.681L1622.35 449.523L1619.9 447.321L1618.56 448.808ZM1590.51 415.065L1592.22 414.019L1592.22 414.019L1590.51 415.065ZM1638.38 204.005L1637.3 202.317L1637.3 202.317L1638.38 204.005ZM1666.21 190.096L1666.92 191.969L1670 190.811L1667.55 188.609L1666.21 190.096ZM1638.17 156.355L1636.46 157.401L1636.46 157.401L1638.17 156.355ZM1617.62 45.2193C706.53 146.595 -1.6875 912.542 -1.6875 1842.42H2.3125C2.3125 914.632 708.946 150.35 1618.06 49.1948L1617.62 45.2193ZM-1.6875 1842.42C-1.6875 2841.29 815.523 3651 1823.57 3651V3647C817.698 3647 2.3125 2839.05 2.3125 1842.42H-1.6875ZM1823.57 3651C2584.78 3651 3237.16 3189.28 3511.02 2533.05L3507.32 2531.51C3234.08 3186.29 2583.12 3647 1823.57 3647V3651ZM3465.19 2488.28C3476.62 2506.91 3491.3 2522.22 3508.02 2533.92L3510.32 2530.64C3494.04 2519.25 3479.74 2504.34 3468.6 2486.19L3465.19 2488.28ZM3447.15 2446.08C3450.97 2460.62 3456.95 2474.85 3465.19 2488.28L3468.6 2486.19C3460.57 2473.09 3454.74 2459.24 3451.02 2445.06L3447.15 2446.08ZM3384.53 2537.66C3418.65 2515.95 3441.42 2482.75 3451.02 2446.08L3447.15 2445.06C3437.79 2480.81 3415.61 2513.14 3382.38 2534.28L3384.53 2537.66ZM3174.45 2488.28C3219.05 2560.96 3313.11 2583.09 3384.53 2537.66L3382.38 2534.28C3312.87 2578.5 3221.31 2556.99 3177.86 2486.19L3174.45 2488.28ZM3165.72 2471.97C3168.28 2477.51 3171.19 2482.96 3174.45 2488.28L3177.86 2486.19C3174.68 2481 3171.84 2475.69 3169.35 2470.29L3165.72 2471.97ZM3112.11 2537.66C3137.97 2521.2 3157.32 2498.14 3169.35 2471.97L3165.71 2470.3C3153.99 2495.8 3135.15 2518.25 3109.96 2534.28L3112.11 2537.66ZM2902.04 2488.28C2946.64 2560.96 3040.69 2583.09 3112.11 2537.66L3109.96 2534.28C3040.46 2578.5 2948.89 2556.99 2905.45 2486.19L2902.04 2488.28ZM2878.86 2406.49C2878.91 2434.48 2886.4 2462.8 2902.04 2488.28L2905.45 2486.19C2890.21 2461.35 2882.91 2433.76 2882.86 2406.48L2878.86 2406.49ZM2863.16 2424.64C2870.09 2419.51 2876.48 2413.9 2882.3 2407.88L2879.43 2405.1C2873.76 2410.96 2867.54 2416.43 2860.78 2421.42L2863.16 2424.64ZM2650.21 2390.29C2699.69 2459.63 2795.03 2475.03 2863.16 2424.64L2860.78 2421.42C2794.47 2470.47 2701.66 2455.5 2653.47 2387.96L2650.21 2390.29ZM2622.59 2277.59C2617.31 2315.99 2626.06 2356.44 2650.21 2390.29L2653.47 2387.96C2629.94 2354.98 2621.4 2315.57 2626.55 2278.14L2622.59 2277.59ZM2578.26 2327.45C2598.3 2314.7 2614.43 2297.98 2626.27 2278.92L2622.87 2276.81C2611.34 2295.38 2595.63 2311.66 2576.11 2324.08L2578.26 2327.45ZM2368.18 2278.08C2412.79 2350.75 2506.84 2372.88 2578.26 2327.45L2576.11 2324.08C2506.61 2368.29 2415.04 2346.78 2371.59 2275.98L2368.18 2278.08ZM2355.25 2140C2338.62 2183.95 2341.78 2235.05 2368.18 2278.08L2371.59 2275.98C2345.87 2234.06 2342.78 2184.26 2358.99 2141.42L2355.25 2140ZM2324.17 2171.98C2337.4 2163.56 2348.93 2153.41 2358.64 2142.01L2355.59 2139.41C2346.13 2150.52 2334.91 2160.4 2322.02 2168.6L2324.17 2171.98ZM2137.64 2152.21C2186.8 2200.45 2263.63 2210.49 2324.17 2171.98L2322.02 2168.6C2263.09 2206.09 2188.31 2196.33 2140.44 2149.35L2137.64 2152.21ZM1823.57 2265.12C1946.76 2265.12 2058.53 2222.13 2140.34 2152.3L2137.74 2149.26C2056.68 2218.45 1945.84 2261.12 1823.57 2261.12V2265.12ZM1369.71 1867.66C1369.71 2087.41 1573.17 2265.12 1823.57 2265.12V2261.12C1574.86 2261.12 1373.71 2084.72 1373.71 1867.66H1369.71ZM1726.74 1479.27C1522.79 1518.08 1369.71 1677.07 1369.71 1867.66H1373.71C1373.71 1679.39 1525.01 1521.73 1727.49 1483.2L1726.74 1479.27ZM1699.98 1450.95C1707.33 1462.93 1716.02 1473.53 1725.74 1482.69L1728.48 1479.78C1719.02 1470.86 1710.55 1460.53 1703.39 1448.86L1699.98 1450.95ZM1718.72 1261.84C1671.92 1311.91 1662.35 1389.63 1699.98 1450.95L1703.39 1448.86C1666.72 1389.1 1676.05 1313.35 1721.64 1264.57L1718.72 1261.84ZM1588.81 1192.24C1618.09 1239.96 1668.69 1265.89 1720.21 1265.21L1720.15 1261.21C1670.01 1261.87 1620.74 1236.63 1592.22 1190.15L1588.81 1192.24ZM1623.46 988.369C1563.27 1036.76 1547.24 1124.51 1588.81 1192.24L1592.22 1190.15C1551.71 1124.14 1567.35 1038.61 1625.96 991.486L1623.46 988.369ZM1559.49 933.53C1575.61 959.801 1598.2 979.472 1623.85 991.732L1625.57 988.123C1600.61 976.19 1578.61 957.039 1562.9 931.438L1559.49 933.53ZM1598.56 726.236C1534.76 773.811 1516.93 864.172 1559.49 933.53L1562.9 931.438C1521.41 863.838 1538.81 775.777 1600.95 729.442L1598.56 726.236ZM1541.17 674.818C1555.87 698.768 1575.94 717.233 1598.8 729.598L1600.71 726.08C1578.45 714.044 1558.9 696.066 1544.58 672.726L1541.17 674.818ZM1589.66 461.024C1518.27 506.443 1496.58 602.159 1541.17 674.818L1544.58 672.726C1501.12 601.904 1522.29 508.63 1591.81 464.399L1589.66 461.024ZM1617.86 446.936C1608.19 450.564 1598.74 455.249 1589.66 461.024L1591.81 464.399C1600.66 458.773 1609.86 454.212 1619.26 450.681L1617.86 446.936ZM1588.81 416.111C1596.82 429.168 1606.43 440.597 1617.22 450.296L1619.9 447.321C1609.39 437.878 1600.03 426.746 1592.22 414.019L1588.81 416.111ZM1637.3 202.317C1565.91 247.736 1544.22 343.452 1588.81 416.111L1592.22 414.019C1548.76 343.197 1569.92 249.923 1639.45 205.692L1637.3 202.317ZM1665.51 188.224C1655.84 191.852 1646.39 196.539 1637.3 202.317L1639.45 205.692C1648.3 200.063 1657.5 195.501 1666.92 191.969L1665.51 188.224ZM1636.46 157.401C1644.47 170.458 1654.08 181.886 1664.88 191.584L1667.55 188.609C1657.04 179.166 1647.68 168.035 1639.87 155.309L1636.46 157.401ZM1615.87 46.8474C1609.14 83.6871 1615.42 123.11 1636.46 157.401L1639.87 155.309C1619.37 121.895 1613.24 83.4793 1619.81 47.5667L1615.87 46.8474Z" fill="#B28A59" mask="url(#path-1-inside-1_4751_1298)"/>
<path fill-rule="evenodd" clip-rule="evenodd" d="M3481.4 2502.07C3473.41 2512.53 3464.56 2522.33 3454.87 2531.25C3416.62 2566.48 3366.82 2592.45 3314.8 2597.91C3313.92 2599.79 3313.06 2601.68 3312.2 2603.58C3303.09 2623.88 3298.92 2646.7 3294.79 2669.32L3294.79 2669.32L3294.79 2669.33L3294.79 2669.33L3294.79 2669.33L3294.79 2669.34L3294.79 2669.34L3294.78 2669.34L3294.78 2669.34L3294.78 2669.35L3294.78 2669.35L3294.78 2669.35L3294.78 2669.36L3294.78 2669.36L3294.78 2669.36L3294.78 2669.37L3294.78 2669.37L3294.78 2669.37L3294.78 2669.37L3294.78 2669.38L3294.78 2669.38L3294.77 2669.38L3294.77 2669.39C3291.73 2686.06 3288.7 2702.62 3283.73 2717.99C3284.48 2724.04 3284.47 2730.25 3283.54 2736.65C3277.13 2780.54 3237.42 2808.79 3198.67 2836.35C3185.56 2845.68 3172.57 2854.92 3161.01 2864.67C3143.41 2879.5 3123.26 2890.31 3103.11 2901.12C3082.75 2912.05 3062.39 2922.97 3044.67 2938.04C3040.94 2941.22 3037.41 2944.6 3034.03 2948.12C3025.37 2962.17 3014.82 2974.69 3003.76 2986.79C2989.91 3006.39 2976.14 3025.86 2957.13 3039.78C2953.99 3044.11 2951 3048.57 2948.23 3053.2C2937.33 3071.38 2931.27 3091.89 2925.24 3112.29C2917.48 3138.51 2909.79 3164.54 2891.96 3185.21C2857.69 3224.94 2812.01 3256.84 2760.94 3270.34C2745.26 3274.49 2729.03 3277.33 2712.64 3278.71C2691.37 3293.05 2664.28 3295.16 2636.84 3297.3C2616.56 3298.88 2596.09 3300.48 2577.63 3307.03C2544.17 3318.9 2513.47 3335.71 2484.75 3356.39C2466.57 3369.48 2451.4 3387.18 2436.36 3404.73C2412.39 3432.71 2388.74 3460.29 2353.79 3468.21C2313.62 3477.3 2270.63 3463.68 2233.6 3442.17C2212.6 3457.3 2190.52 3470.51 2165.72 3478.13C2132.52 3488.33 2097.57 3485.91 2062.67 3483.5C2053.04 3482.83 2043.41 3482.16 2033.82 3481.76C1992.52 3480.04 1951.91 3477.1 1911.73 3467.52C1906.37 3466.25 1900.97 3465.01 1895.56 3463.77L1895.56 3463.77C1858.99 3455.41 1821.74 3446.89 1792.46 3424.22C1788.42 3421.1 1784.59 3417.77 1780.94 3414.28C1758.59 3432.83 1735.05 3449.57 1707.73 3459.47C1675.1 3471.3 1640.07 3470.63 1605.09 3469.95H1605.08H1605.07H1605.06C1595.42 3469.76 1585.78 3469.57 1576.19 3469.65C1534.86 3469.98 1494.14 3469.06 1453.53 3461.49C1448.11 3460.48 1442.66 3459.52 1437.18 3458.55C1400.24 3452.01 1362.6 3445.35 1332.19 3424.17C1305.12 3405.31 1286.15 3377.79 1269.71 3348.99C1260.2 3356.93 1249.57 3363.33 1237.15 3367.37C1185.69 3384.07 1126.04 3397.92 1076.29 3376.75C1049.54 3365.36 1034.08 3339.41 1018.58 3313.39C1003.56 3288.18 988.51 3262.9 963.109 3250.76C938.939 3239.2 910.504 3243.94 882.273 3248.65C851.878 3253.72 821.718 3258.75 797.37 3243.36C765.381 3223.13 755.149 3184.09 745.096 3145.74C741.469 3131.9 737.864 3118.15 733.27 3105.4C730.058 3096.49 726.606 3087.58 723.147 3078.65C715.272 3058.33 707.359 3037.91 702.157 3017.15C686.094 3019.24 669.997 3019.6 653.944 3016.86C611.824 3009.66 575.622 2983.75 541.396 2958.48C508.6 2934.26 480.094 2905.09 457.196 2871.58C446.618 2856.09 440.713 2838.23 434.822 2820.41C428.29 2800.65 421.775 2780.94 408.923 2764.57C393.51 2744.95 370.414 2730.55 347.643 2716.36C314.242 2695.54 281.541 2675.15 274.821 2639.34C270.108 2614.23 283.699 2593.15 301.93 2572.84C271.986 2557.28 243.052 2540.56 216.279 2519.86C211.943 2516.51 207.55 2513.18 203.145 2509.84L203.142 2509.84L203.138 2509.84C173.371 2487.27 143.047 2464.28 125.917 2431.67C106.242 2394.22 105.243 2350.1 104.926 2307.91C104.66 2272.44 109.469 2237.26 119.563 2203.31C116.691 2201.12 113.802 2198.93 110.907 2196.73L110.815 2196.66L110.716 2196.59L110.714 2196.59C80.9475 2174.02 50.6237 2151.02 33.4935 2118.42C13.818 2080.97 12.8189 2036.84 12.5026 1994.66C12.1996 1954.24 18.4871 1914.19 31.6754 1875.92C37.7678 1858.24 48.6067 1842.8 59.4213 1827.39C71.412 1810.3 83.373 1793.25 88.8015 1773.25C95.3121 1749.27 92.954 1722.41 90.6293 1695.93C89.9017 1687.64 89.1774 1679.39 88.7292 1671.28C82.0245 1663.34 76.0727 1654.83 71.192 1645.54C51.5165 1608.09 50.5174 1563.97 50.2011 1521.78C49.8981 1481.36 56.1856 1441.31 69.3739 1403.04C75.4663 1385.37 86.3052 1369.92 97.1198 1354.51C109.111 1337.42 121.071 1320.38 126.5 1300.38C133.011 1276.39 130.653 1249.53 128.328 1223.05C124.918 1184.21 121.579 1146.18 146.41 1119.23C153.991 1111.01 163.053 1105.97 173.132 1103.07C175.951 1090.49 179.468 1078.05 183.692 1065.79C189.785 1048.11 200.624 1032.67 211.438 1017.26C223.429 1000.17 235.39 983.124 240.818 963.124C246.821 941.01 247.4 920.036 247.952 900.073C248.875 866.622 249.72 836.011 275.872 807.628C295.342 786.496 320.233 779.039 347.348 775.366C346.94 749.762 350.716 726.059 367.752 707.57C375.034 699.666 383.684 694.706 393.289 691.76C386.821 667.998 384.342 644.127 391.256 619.793C404.805 572.103 438.851 551.504 479.047 527.184C487.015 522.364 495.224 517.396 503.564 512.043C522.962 499.591 544.367 491.456 565.769 483.322L565.769 483.322C587.4 475.101 609.028 466.882 628.576 454.208C646.463 442.61 661.051 426.822 675.561 411.12C694.208 390.94 712.726 370.9 737.95 360.075C773.658 344.751 813.036 335.931 852.035 336.359L853.534 335.481C873.468 323.808 893.399 312.137 910.526 296.417C926.198 282.032 937.907 264.06 949.554 246.186C964.521 223.213 979.384 200.401 1002.42 185.568C1031.46 166.868 1064.25 152.773 1098.29 145.667C1112.13 139.762 1128.07 135.776 1144.14 131.758C1165.29 126.466 1186.68 121.117 1203.83 111.254C1234.99 93.3359 1265.84 83.9908 1298.14 74.2029C1312.55 69.8383 1327.24 65.3856 1342.39 60.0454C1358.97 54.1973 1374.96 45.8887 1390.82 37.6454C1423.63 20.5874 1455.91 3.80871 1491.87 9.68924C1523.94 14.9345 1558.14 22.441 1587.74 36.5761C1605.26 21.6166 1622.24 10.7067 1644.81 3.44141C1617.21 50.9113 1615.95 112.028 1646.64 162.037C1654.52 174.871 1663.96 186.1 1674.56 195.628C1665.06 199.192 1655.78 203.796 1646.85 209.474C1576.71 254.1 1555.37 348.174 1599.2 419.595C1607.08 432.43 1616.52 443.66 1627.13 453.189C1617.63 456.753 1608.35 461.355 1599.42 467.032C1529.28 511.657 1507.94 605.732 1551.77 677.153C1566.22 700.694 1585.94 718.836 1608.4 730.982C1545.72 777.729 1528.18 866.542 1570.02 934.715C1585.86 960.535 1608.06 979.86 1633.25 991.902C1574.11 1039.45 1558.35 1125.7 1599.2 1192.27C1627.98 1239.17 1677.69 1264.63 1728.29 1263.97C1712.74 1280.61 1701.37 1300.37 1694.56 1321.56C1689.44 1319.92 1684.6 1317.96 1679.92 1316.07C1666.29 1310.56 1653.97 1305.57 1639.63 1310.5C1629.42 1314.02 1626.26 1319.36 1621.67 1327.1C1614.51 1339.2 1603.88 1357.14 1557.54 1383.12C1496.73 1417.2 1488.42 1416.12 1491.87 1411.32C1474.22 1435.7 1475.2 1448.06 1476.22 1460.9C1477.13 1472.39 1478.07 1484.28 1465.72 1505.54C1452.45 1528.37 1437 1528.04 1422.76 1527.73C1408.94 1527.43 1396.27 1527.15 1387.89 1548.14C1378.27 1572.22 1384.95 1586.91 1392.59 1603.68C1398.47 1616.59 1404.91 1630.74 1404.91 1651.36C1404.91 1675.62 1392.5 1687.93 1380.37 1699.96C1368.8 1711.45 1357.48 1722.67 1357.48 1743.78C1357.48 1764.61 1364.55 1769.82 1373.78 1776.62C1383.69 1783.92 1396.1 1793.07 1404.91 1825.39C1414.17 1859.34 1407.06 1866.47 1399.34 1874.23C1392.86 1880.73 1385.95 1887.67 1387.89 1911.2C1390.34 1940.95 1407.34 1945.58 1426.19 1950.71C1440.04 1954.48 1454.9 1958.52 1465.72 1973.01C1477.95 1989.4 1474.56 2002.89 1471.25 2016.07C1467.64 2030.4 1464.13 2044.35 1480.92 2061.23C1498.19 2078.59 1514.58 2077.35 1531.69 2076.05C1546.52 2074.93 1561.88 2073.77 1578.82 2084.63C1595.69 2095.45 1600.73 2109.1 1605.54 2122.13C1611.14 2137.27 1616.42 2151.58 1639.63 2159.64C1659.92 2166.69 1671.21 2159.56 1683.16 2152.02C1696.64 2143.5 1710.95 2134.46 1739.96 2144.64C1766.2 2153.85 1772.73 2164.58 1778.45 2173.97C1784.66 2184.18 1789.92 2192.81 1818.4 2196.25C1848.68 2199.9 1860.71 2183.72 1872.02 2168.53C1881.14 2156.26 1889.79 2144.64 1907.18 2144.64C1924.3 2144.64 1939.42 2149.63 1953.57 2154.31C1971.59 2160.26 1988.05 2165.69 2005.08 2159.64C2019.6 2154.49 2023.16 2142.49 2027.23 2128.81C2031.68 2113.84 2036.72 2096.86 2057.38 2084.63C2072.21 2075.85 2088.41 2073.66 2103.44 2073.11C2107.12 2088.77 2113.3 2104.09 2122.14 2118.5C2165.97 2189.92 2258.37 2211.64 2328.51 2167.01C2341.52 2158.74 2352.84 2148.77 2362.39 2137.55C2346.04 2180.76 2349.15 2230.99 2375.1 2273.28C2418.93 2344.7 2511.32 2366.42 2581.47 2321.8C2601.16 2309.27 2617 2292.84 2628.64 2274.12C2623.45 2311.86 2632.06 2351.61 2655.79 2384.87C2704.4 2453.01 2798.06 2468.12 2864.98 2418.63C2871.79 2413.59 2878.06 2408.07 2883.78 2402.16C2883.83 2429.67 2891.19 2457.5 2906.56 2482.55C2950.39 2553.97 3042.78 2575.69 3112.93 2531.06C3138.34 2514.89 3157.35 2492.24 3169.17 2466.52C3171.69 2471.96 3174.55 2477.31 3177.76 2482.55C3221.59 2553.97 3313.98 2575.69 3384.13 2531.06C3417.66 2509.73 3440.03 2477.1 3449.47 2441.05C3453.22 2455.35 3459.1 2469.34 3467.21 2482.55C3471.49 2489.53 3476.25 2496.05 3481.4 2502.07Z" fill="#F3A3C8"/>
<path d="M3481.4 2502.07L3482.59 2502.98L3483.33 2502.01L3482.54 2501.09L3481.4 2502.07ZM3454.87 2531.25L3455.89 2532.36L3455.89 2532.36L3454.87 2531.25ZM3314.8 2597.91L3314.64 2596.42L3313.8 2596.5L3313.44 2597.27L3314.8 2597.91ZM3312.2 2603.58L3313.57 2604.19L3313.57 2604.19L3312.2 2603.58ZM3294.79 2669.32L3296.25 2669.69L3296.26 2669.64L3296.27 2669.59L3294.79 2669.32ZM3294.77 2669.39L3293.32 2669.02L3293.31 2669.07L3293.3 2669.12L3294.77 2669.39ZM3283.73 2717.99L3282.3 2717.53L3282.2 2717.85L3282.24 2718.18L3283.73 2717.99ZM3283.54 2736.65L3285.02 2736.87L3285.02 2736.87L3283.54 2736.65ZM3198.67 2836.35L3199.54 2837.57L3199.54 2837.57L3198.67 2836.35ZM3161.01 2864.67L3161.98 2865.81L3161.98 2865.81L3161.01 2864.67ZM3103.11 2901.12L3102.4 2899.8L3102.4 2899.8L3103.11 2901.12ZM3044.67 2938.04L3045.64 2939.18L3045.64 2939.18L3044.67 2938.04ZM3034.03 2948.12L3032.95 2947.09L3032.84 2947.2L3032.76 2947.34L3034.03 2948.12ZM3003.76 2986.79L3002.65 2985.78L3002.59 2985.85L3002.53 2985.93L3003.76 2986.79ZM2957.13 3039.78L2956.24 3038.57L2956.05 3038.71L2955.92 3038.9L2957.13 3039.78ZM2948.23 3053.2L2946.94 3052.43L2946.94 3052.43L2948.23 3053.2ZM2925.24 3112.29L2926.68 3112.71L2926.68 3112.71L2925.24 3112.29ZM2891.96 3185.21L2890.82 3184.23L2890.82 3184.23L2891.96 3185.21ZM2760.94 3270.34L2761.33 3271.79L2761.33 3271.79L2760.94 3270.34ZM2712.64 3278.71L2712.52 3277.21L2712.13 3277.24L2711.8 3277.46L2712.64 3278.71ZM2636.84 3297.3L2636.72 3295.8L2636.72 3295.8L2636.84 3297.3ZM2577.63 3307.03L2577.13 3305.61L2577.13 3305.61L2577.63 3307.03ZM2484.75 3356.39L2483.87 3355.17L2483.87 3355.17L2484.75 3356.39ZM2436.36 3404.73L2437.5 3405.71L2437.5 3405.71L2436.36 3404.73ZM2353.79 3468.21L2353.46 3466.75L2353.46 3466.75L2353.79 3468.21ZM2233.6 3442.17L2234.35 3440.87L2233.51 3440.39L2232.72 3440.95L2233.6 3442.17ZM2165.72 3478.13L2166.16 3479.57L2166.16 3479.57L2165.72 3478.13ZM2062.67 3483.5L2062.57 3484.99L2062.57 3484.99L2062.67 3483.5ZM2033.82 3481.76L2033.76 3483.26L2033.76 3483.26L2033.82 3481.76ZM1911.73 3467.52L1911.38 3468.98L1911.38 3468.98L1911.73 3467.52ZM1895.56 3463.77L1895 3465.16L1895.11 3465.21L1895.22 3465.23L1895.56 3463.77ZM1895.56 3463.77L1896.11 3462.38L1896.01 3462.34L1895.89 3462.31L1895.56 3463.77ZM1792.46 3424.22L1793.37 3423.03L1793.37 3423.03L1792.46 3424.22ZM1780.94 3414.28L1781.97 3413.2L1781.01 3412.27L1779.98 3413.13L1780.94 3414.28ZM1707.73 3459.47L1707.22 3458.06L1707.22 3458.06L1707.73 3459.47ZM1605.09 3469.95L1605.12 3468.45L1605.11 3468.45H1605.09V3469.95ZM1605.06 3469.95L1605.04 3471.45L1605.05 3471.45H1605.06V3469.95ZM1576.19 3469.65L1576.2 3471.15L1576.2 3471.15L1576.19 3469.65ZM1453.53 3461.49L1453.8 3460.02L1453.8 3460.02L1453.53 3461.49ZM1437.18 3458.55L1437.45 3457.07L1437.45 3457.07L1437.18 3458.55ZM1332.19 3424.17L1331.34 3425.4L1331.34 3425.4L1332.19 3424.17ZM1269.71 3348.99L1271.01 3348.25L1270.12 3346.69L1268.74 3347.84L1269.71 3348.99ZM1237.15 3367.37L1237.61 3368.79L1237.61 3368.79L1237.15 3367.37ZM1076.29 3376.75L1075.7 3378.13L1075.7 3378.13L1076.29 3376.75ZM1018.58 3313.39L1019.87 3312.62L1019.87 3312.62L1018.58 3313.39ZM963.109 3250.76L963.756 3249.4L963.756 3249.4L963.109 3250.76ZM882.273 3248.65L882.52 3250.13L882.52 3250.13L882.273 3248.65ZM797.37 3243.36L798.172 3242.09L798.172 3242.09L797.37 3243.36ZM745.096 3145.74L746.547 3145.36L746.547 3145.36L745.096 3145.74ZM733.27 3105.4L731.859 3105.91L731.859 3105.91L733.27 3105.4ZM723.147 3078.65L721.748 3079.2L721.748 3079.2L723.147 3078.65ZM702.157 3017.15L703.612 3016.79L703.288 3015.49L701.964 3015.67L702.157 3017.15ZM653.944 3016.86L654.197 3015.38L654.197 3015.38L653.944 3016.86ZM541.396 2958.48L540.505 2959.68L540.505 2959.68L541.396 2958.48ZM457.196 2871.58L458.434 2870.73L458.434 2870.73L457.196 2871.58ZM434.822 2820.41L436.246 2819.94L436.246 2819.94L434.822 2820.41ZM408.923 2764.57L407.743 2765.5L407.743 2765.5L408.923 2764.57ZM347.643 2716.36L346.85 2717.63L346.85 2717.63L347.643 2716.36ZM274.821 2639.34L273.346 2639.62L273.346 2639.62L274.821 2639.34ZM301.93 2572.84L303.046 2573.84L304.339 2572.4L302.621 2571.51L301.93 2572.84ZM216.279 2519.86L217.196 2518.68L217.196 2518.68L216.279 2519.86ZM203.145 2509.84L204.051 2508.65L204.02 2508.62L203.989 2508.6L203.145 2509.84ZM203.142 2509.84L202.194 2511L202.244 2511.04L202.298 2511.08L203.142 2509.84ZM203.138 2509.84L204.086 2508.68L204.066 2508.66L204.044 2508.64L203.138 2509.84ZM125.917 2431.67L124.589 2432.37L124.589 2432.37L125.917 2431.67ZM104.926 2307.91L106.426 2307.9L106.426 2307.9L104.926 2307.91ZM119.563 2203.31L121.001 2203.74L121.295 2202.75L120.474 2202.12L119.563 2203.31ZM110.907 2196.73L109.998 2197.92L110 2197.93L110.907 2196.73ZM110.815 2196.66L111.724 2195.47L111.719 2195.46L110.815 2196.66ZM110.716 2196.59L111.62 2195.39L111.6 2195.37L111.579 2195.36L110.716 2196.59ZM110.714 2196.59L109.808 2197.78L109.829 2197.8L109.851 2197.81L110.714 2196.59ZM33.4935 2118.42L32.1656 2119.12L32.1656 2119.12L33.4935 2118.42ZM12.5026 1994.66L14.0026 1994.65L12.5026 1994.66ZM31.6754 1875.92L33.0936 1876.41L33.0936 1876.41L31.6754 1875.92ZM59.4213 1827.39L60.6491 1828.25L60.6491 1828.25L59.4213 1827.39ZM88.8015 1773.25L87.3539 1772.86L87.3539 1772.86L88.8015 1773.25ZM90.6293 1695.93L92.1235 1695.8L92.1235 1695.8L90.6293 1695.93ZM88.7292 1671.28L90.227 1671.2L90.1993 1670.7L89.8754 1670.31L88.7292 1671.28ZM71.192 1645.54L72.5199 1644.84L72.5199 1644.84L71.192 1645.54ZM50.2011 1521.78L51.7011 1521.77L50.2011 1521.78ZM69.3739 1403.04L70.7921 1403.53L70.7921 1403.53L69.3739 1403.04ZM97.1198 1354.51L98.3476 1355.37L98.3476 1355.37L97.1198 1354.51ZM126.5 1300.38L125.052 1299.98L125.052 1299.98L126.5 1300.38ZM128.328 1223.05L129.822 1222.92L129.822 1222.92L128.328 1223.05ZM146.41 1119.23L147.513 1120.25L147.513 1120.25L146.41 1119.23ZM173.132 1103.07L173.547 1104.51L174.402 1104.27L174.596 1103.4L173.132 1103.07ZM183.692 1065.79L185.111 1066.28L185.111 1066.28L183.692 1065.79ZM211.438 1017.26L210.21 1016.39L210.21 1016.39L211.438 1017.26ZM240.818 963.124L239.371 962.731L239.371 962.731L240.818 963.124ZM247.952 900.073L246.452 900.031L246.452 900.031L247.952 900.073ZM275.872 807.628L276.975 808.644L276.975 808.644L275.872 807.628ZM347.348 775.366L347.55 776.852L348.87 776.673L348.848 775.342L347.348 775.366ZM367.752 707.57L366.649 706.553L366.649 706.553L367.752 707.57ZM393.289 691.76L393.729 693.194L395.118 692.768L394.736 691.366L393.289 691.76ZM391.256 619.793L389.813 619.383L389.813 619.383L391.256 619.793ZM479.047 527.184L478.27 525.901L478.27 525.901L479.047 527.184ZM503.564 512.043L504.374 513.305L504.374 513.305L503.564 512.043ZM565.769 483.322L565.295 481.899L565.265 481.909L565.236 481.92L565.769 483.322ZM565.769 483.322L566.244 484.745L566.273 484.735L566.302 484.724L565.769 483.322ZM628.576 454.208L629.392 455.466L629.392 455.466L628.576 454.208ZM675.561 411.12L674.459 410.102L674.459 410.102L675.561 411.12ZM737.95 360.075L738.542 361.453L738.542 361.453L737.95 360.075ZM852.035 336.359L852.018 337.859L852.434 337.863L852.793 337.653L852.035 336.359ZM853.534 335.481L852.776 334.186L852.776 334.186L853.534 335.481ZM910.526 296.417L911.54 297.522L911.54 297.522L910.526 296.417ZM949.554 246.186L948.297 245.367L948.297 245.367L949.554 246.186ZM1002.42 185.568L1003.23 186.829L1003.23 186.829L1002.42 185.568ZM1098.29 145.667L1098.59 147.135L1098.74 147.105L1098.87 147.047L1098.29 145.667ZM1144.14 131.758L1143.77 130.303L1143.77 130.303L1144.14 131.758ZM1203.83 111.254L1203.08 109.953L1203.08 109.953L1203.83 111.254ZM1298.14 74.2029L1298.58 75.6385L1298.58 75.6385L1298.14 74.2029ZM1342.39 60.0454L1341.89 58.6308L1341.89 58.6308L1342.39 60.0454ZM1390.82 37.6454L1390.13 36.3144L1390.13 36.3144L1390.82 37.6454ZM1491.87 9.68924L1492.11 8.20891L1492.11 8.20891L1491.87 9.68924ZM1587.74 36.5761L1587.09 37.9297L1587.97 38.3496L1588.71 37.717L1587.74 36.5761ZM1644.81 3.44141L1646.11 4.19525L1648.07 0.815637L1644.35 2.01357L1644.81 3.44141ZM1646.64 162.037L1647.92 161.253L1647.92 161.253L1646.64 162.037ZM1674.56 195.628L1675.09 197.032L1677.41 196.164L1675.57 194.512L1674.56 195.628ZM1646.85 209.474L1647.66 210.74L1647.66 210.74L1646.85 209.474ZM1599.2 419.595L1600.48 418.811L1600.48 418.811L1599.2 419.595ZM1627.13 453.189L1627.65 454.593L1629.97 453.725L1628.13 452.073L1627.13 453.189ZM1599.42 467.032L1600.23 468.298L1600.23 468.298L1599.42 467.032ZM1551.77 677.153L1553.05 676.368L1553.05 676.368L1551.77 677.153ZM1608.4 730.982L1609.3 732.184L1611.18 730.78L1609.12 729.662L1608.4 730.982ZM1570.02 934.715L1571.3 933.93L1571.3 933.93L1570.02 934.715ZM1633.25 991.902L1634.19 993.071L1636.05 991.577L1633.9 990.549L1633.25 991.902ZM1599.2 1192.27L1600.48 1191.49L1600.48 1191.49L1599.2 1192.27ZM1728.29 1263.97L1729.39 1264.99L1731.79 1262.42L1728.27 1262.47L1728.29 1263.97ZM1694.56 1321.56L1694.11 1322.99L1695.53 1323.44L1695.99 1322.02L1694.56 1321.56ZM1679.92 1316.07L1680.48 1314.68L1680.48 1314.68L1679.92 1316.07ZM1639.63 1310.5L1640.12 1311.92L1640.12 1311.92L1639.63 1310.5ZM1621.67 1327.1L1620.38 1326.34L1620.38 1326.34L1621.67 1327.1ZM1557.54 1383.12L1558.27 1384.42L1558.27 1384.42L1557.54 1383.12ZM1491.87 1411.32L1493.09 1412.2L1490.65 1410.44L1491.87 1411.32ZM1476.22 1460.9L1474.72 1461.02L1474.72 1461.02L1476.22 1460.9ZM1465.72 1505.54L1464.42 1504.78L1464.42 1504.78L1465.72 1505.54ZM1422.76 1527.73L1422.8 1526.23L1422.8 1526.23L1422.76 1527.73ZM1387.89 1548.14L1386.49 1547.59L1386.49 1547.59L1387.89 1548.14ZM1392.59 1603.68L1393.96 1603.06L1393.96 1603.06L1392.59 1603.68ZM1380.37 1699.96L1379.32 1698.9L1379.32 1698.9L1380.37 1699.96ZM1373.78 1776.62L1372.89 1777.82L1372.89 1777.82L1373.78 1776.62ZM1404.91 1825.39L1406.36 1825L1406.36 1825L1404.91 1825.39ZM1399.34 1874.23L1400.4 1875.29L1400.4 1875.29L1399.34 1874.23ZM1387.89 1911.2L1386.39 1911.33L1386.39 1911.33L1387.89 1911.2ZM1426.19 1950.71L1426.58 1949.26L1426.58 1949.26L1426.19 1950.71ZM1465.72 1973.01L1464.52 1973.91L1464.52 1973.91L1465.72 1973.01ZM1471.25 2016.07L1472.7 2016.43L1472.7 2016.43L1471.25 2016.07ZM1480.92 2061.23L1481.99 2060.17L1481.99 2060.17L1480.92 2061.23ZM1531.69 2076.05L1531.8 2077.55L1531.8 2077.55L1531.69 2076.05ZM1578.82 2084.63L1579.63 2083.37L1579.63 2083.37L1578.82 2084.63ZM1605.54 2122.13L1604.14 2122.65L1604.14 2122.65L1605.54 2122.13ZM1639.63 2159.64L1640.12 2158.23L1640.12 2158.23L1639.63 2159.64ZM1683.16 2152.02L1683.96 2153.28L1683.96 2153.28L1683.16 2152.02ZM1739.96 2144.64L1740.46 2143.23L1740.46 2143.23L1739.96 2144.64ZM1778.45 2173.97L1779.73 2173.19L1779.73 2173.19L1778.45 2173.97ZM1818.4 2196.25L1818.22 2197.74L1818.22 2197.74L1818.4 2196.25ZM1872.02 2168.53L1873.22 2169.43L1873.22 2169.43L1872.02 2168.53ZM1953.57 2154.31L1954.04 2152.88L1954.04 2152.88L1953.57 2154.31ZM2005.08 2159.64L2005.58 2161.06L2005.58 2161.06L2005.08 2159.64ZM2027.23 2128.81L2025.79 2128.38L2025.79 2128.38L2027.23 2128.81ZM2057.38 2084.63L2058.14 2085.92L2058.14 2085.92L2057.38 2084.63ZM2103.44 2073.11L2104.9 2072.77L2104.62 2071.57L2103.39 2071.61L2103.44 2073.11ZM2122.14 2118.5L2123.42 2117.71L2123.42 2117.71L2122.14 2118.5ZM2328.51 2167.01L2329.32 2168.28L2329.32 2168.28L2328.51 2167.01ZM2362.39 2137.55L2363.79 2138.08L2361.25 2136.58L2362.39 2137.55ZM2375.1 2273.28L2376.38 2272.49L2376.38 2272.49L2375.1 2273.28ZM2581.47 2321.8L2580.66 2320.53L2580.66 2320.53L2581.47 2321.8ZM2628.64 2274.12L2630.13 2274.32L2627.37 2273.33L2628.64 2274.12ZM2655.79 2384.87L2654.57 2385.75L2654.57 2385.75L2655.79 2384.87ZM2864.98 2418.63L2865.87 2419.83L2865.87 2419.83L2864.98 2418.63ZM2883.78 2402.16L2885.28 2402.16L2885.28 2398.46L2882.71 2401.12L2883.78 2402.16ZM2906.56 2482.55L2907.84 2481.76L2907.84 2481.76L2906.56 2482.55ZM3112.93 2531.06L3113.73 2532.33L3113.73 2532.33L3112.93 2531.06ZM3169.17 2466.52L3170.53 2465.89L3169.17 2462.93L3167.81 2465.89L3169.17 2466.52ZM3177.76 2482.55L3179.04 2481.76L3179.04 2481.76L3177.76 2482.55ZM3384.13 2531.06L3384.93 2532.33L3384.93 2532.33L3384.13 2531.06ZM3449.47 2441.05L3450.92 2440.67L3449.47 2435.13L3448.02 2440.67L3449.47 2441.05ZM3467.21 2482.55L3465.93 2483.33L3465.93 2483.33L3467.21 2482.55ZM3480.21 2501.16C3472.27 2511.56 3463.48 2521.28 3453.85 2530.15L3455.89 2532.36C3465.65 2523.37 3474.55 2513.51 3482.59 2502.98L3480.21 2501.16ZM3453.85 2530.15C3415.79 2565.2 3366.28 2591 3314.64 2596.42L3314.95 2599.4C3367.35 2593.9 3417.45 2567.76 3455.89 2532.36L3453.85 2530.15ZM3313.44 2597.27C3312.56 2599.16 3311.69 2601.06 3310.84 2602.96L3313.57 2604.19C3314.42 2602.3 3315.28 2600.42 3316.16 2598.54L3313.44 2597.27ZM3310.84 2602.96C3301.64 2623.46 3297.44 2646.46 3293.31 2669.05L3296.27 2669.59C3300.41 2646.93 3304.55 2624.3 3313.57 2604.19L3310.84 2602.96ZM3293.33 2668.96L3293.33 2668.96L3296.24 2669.69L3296.25 2669.69L3293.33 2668.96ZM3293.33 2668.96L3293.33 2668.96L3296.24 2669.69L3296.24 2669.69L3293.33 2668.96ZM3293.33 2668.96L3293.33 2668.97L3296.24 2669.69L3296.24 2669.69L3293.33 2668.96ZM3293.33 2668.97L3293.33 2668.97L3296.24 2669.7L3296.24 2669.69L3293.33 2668.97ZM3293.33 2668.97L3293.33 2668.97L3296.24 2669.7L3296.24 2669.7L3293.33 2668.97ZM3293.33 2668.97L3293.33 2668.98L3296.24 2669.7L3296.24 2669.7L3293.33 2668.97ZM3293.33 2668.98L3293.33 2668.98L3296.24 2669.71L3296.24 2669.7L3293.33 2668.98ZM3293.33 2668.98L3293.33 2668.98L3296.24 2669.71L3296.24 2669.71L3293.33 2668.98ZM3293.33 2668.98L3293.33 2668.98L3296.24 2669.71L3296.24 2669.71L3293.33 2668.98ZM3293.33 2668.98L3293.33 2668.99L3296.24 2669.71L3296.24 2669.71L3293.33 2668.98ZM3293.33 2668.99L3293.33 2668.99L3296.24 2669.72L3296.24 2669.71L3293.33 2668.99ZM3293.33 2668.99L3293.33 2668.99L3296.24 2669.72L3296.24 2669.72L3293.33 2668.99ZM3293.33 2668.99L3293.33 2669L3296.24 2669.72L3296.24 2669.72L3293.33 2668.99ZM3293.33 2669L3293.32 2669L3296.23 2669.73L3296.24 2669.72L3293.33 2669ZM3293.32 2669L3293.32 2669L3296.23 2669.73L3296.23 2669.73L3293.32 2669ZM3293.32 2669L3293.32 2669L3296.23 2669.73L3296.23 2669.73L3293.32 2669ZM3293.32 2669L3293.32 2669.01L3296.23 2669.74L3296.23 2669.73L3293.32 2669ZM3293.32 2669.01L3293.32 2669.01L3296.23 2669.74L3296.23 2669.74L3293.32 2669.01ZM3293.32 2669.01L3293.32 2669.01L3296.23 2669.74L3296.23 2669.74L3293.32 2669.01ZM3293.32 2669.01L3293.32 2669.02L3296.23 2669.74L3296.23 2669.74L3293.32 2669.01ZM3293.32 2669.02L3293.32 2669.02L3296.23 2669.75L3296.23 2669.74L3293.32 2669.02ZM3293.32 2669.02L3293.32 2669.02L3296.23 2669.75L3296.23 2669.75L3293.32 2669.02ZM3293.3 2669.12C3290.25 2685.81 3287.24 2702.27 3282.3 2717.53L3285.15 2718.45C3290.17 2702.97 3293.21 2686.31 3296.25 2669.66L3293.3 2669.12ZM3282.24 2718.18C3282.98 2724.1 3282.97 2730.17 3282.05 2736.43L3285.02 2736.87C3285.97 2730.33 3285.98 2723.98 3285.21 2717.81L3282.24 2718.18ZM3282.05 2736.43C3278.91 2757.96 3267.6 2775.72 3252.16 2791.58C3236.7 2807.46 3217.2 2821.33 3197.8 2835.13L3199.54 2837.57C3218.89 2823.81 3238.62 2809.78 3254.31 2793.67C3270.01 2777.54 3281.76 2759.23 3285.02 2736.87L3282.05 2736.43ZM3197.8 2835.13C3184.71 2844.45 3171.66 2853.73 3160.04 2863.52L3161.98 2865.81C3173.48 2856.12 3186.42 2846.91 3199.54 2837.57L3197.8 2835.13ZM3160.04 2863.52C3142.59 2878.24 3122.58 2888.98 3102.4 2899.8L3103.82 2902.44C3123.95 2891.65 3144.24 2880.77 3161.98 2865.81L3160.04 2863.52ZM3102.4 2899.8C3082.06 2910.71 3061.56 2921.71 3043.7 2936.9L3045.64 2939.18C3063.22 2924.23 3083.43 2913.38 3103.82 2902.44L3102.4 2899.8ZM3043.7 2936.9C3039.92 2940.12 3036.35 2943.53 3032.95 2947.09L3035.12 2949.16C3038.46 2945.67 3041.95 2942.33 3045.64 2939.18L3043.7 2936.9ZM3032.76 2947.34C3024.17 2961.26 3013.69 2973.7 3002.65 2985.78L3004.86 2987.8C3015.94 2975.67 3026.58 2963.08 3035.31 2948.91L3032.76 2947.34ZM3002.53 2985.93C2988.66 3005.56 2975.03 3024.82 2956.24 3038.57L2958.02 3040.99C2977.26 3026.9 2991.16 3007.21 3004.98 2987.66L3002.53 2985.93ZM2955.92 3038.9C2952.75 3043.26 2949.74 3047.76 2946.94 3052.43L2949.52 3053.97C2952.26 3049.38 2955.22 3044.96 2958.34 3040.66L2955.92 3038.9ZM2946.94 3052.43C2935.93 3070.8 2929.82 3091.5 2923.8 3111.86L2926.68 3112.71C2932.72 3092.28 2938.74 3071.96 2949.52 3053.97L2946.94 3052.43ZM2923.8 3111.86C2916.03 3138.14 2908.4 3163.85 2890.82 3184.23L2893.09 3186.19C2911.17 3165.24 2918.94 3138.88 2926.68 3112.71L2923.8 3111.86ZM2890.82 3184.23C2856.72 3223.78 2811.28 3255.48 2760.56 3268.89L2761.33 3271.79C2812.73 3258.2 2858.67 3226.11 2893.09 3186.19L2890.82 3184.23ZM2760.56 3268.89C2744.96 3273.02 2728.82 3275.84 2712.52 3277.21L2712.77 3280.2C2729.24 3278.82 2745.57 3275.96 2761.33 3271.79L2760.56 3268.89ZM2711.8 3277.46C2690.92 3291.54 2664.26 3293.66 2636.72 3295.8L2636.95 3298.79C2664.3 3296.66 2691.82 3294.55 2713.48 3279.95L2711.8 3277.46ZM2636.72 3295.8C2616.49 3297.38 2595.81 3298.98 2577.13 3305.61L2578.13 3308.44C2596.37 3301.97 2616.64 3300.38 2636.95 3298.79L2636.72 3295.8ZM2577.13 3305.61C2543.52 3317.54 2512.69 3334.42 2483.87 3355.17L2485.63 3357.61C2514.25 3337 2544.82 3320.26 2578.13 3308.44L2577.13 3305.61ZM2483.87 3355.17C2465.53 3368.39 2450.24 3386.23 2435.22 3403.76L2437.5 3405.71C2452.56 3388.13 2467.62 3370.57 2485.63 3357.61L2483.87 3355.17ZM2435.22 3403.76C2411.17 3431.82 2387.84 3458.96 2353.46 3466.75L2354.12 3469.67C2389.64 3461.63 2413.6 3433.6 2437.5 3405.71L2435.22 3403.76ZM2353.46 3466.75C2313.82 3475.72 2271.23 3462.3 2234.35 3440.87L2232.85 3443.47C2270.03 3465.07 2313.42 3478.89 2354.12 3469.67L2353.46 3466.75ZM2232.72 3440.95C2211.78 3456.04 2189.86 3469.15 2165.28 3476.7L2166.16 3479.57C2191.19 3471.88 2213.41 3458.56 2234.48 3443.39L2232.72 3440.95ZM2165.28 3476.7C2132.39 3486.8 2097.73 3484.42 2062.77 3482L2062.57 3484.99C2097.41 3487.4 2132.65 3489.86 2166.16 3479.57L2165.28 3476.7ZM2062.77 3482C2053.14 3481.33 2043.49 3480.67 2033.88 3480.27L2033.76 3483.26C2043.32 3483.66 2052.93 3484.33 2062.57 3484.99L2062.77 3482ZM2033.88 3480.27C1992.61 3478.54 1952.11 3475.61 1912.08 3466.06L1911.38 3468.98C1951.7 3478.6 1992.44 3481.54 2033.76 3483.26L2033.88 3480.27ZM1912.08 3466.06C1906.71 3464.78 1901.31 3463.55 1895.89 3462.31L1895.22 3465.23C1900.64 3466.47 1906.03 3467.71 1911.38 3468.98L1912.08 3466.06ZM1896.12 3462.38L1896.11 3462.38L1895 3465.16L1895 3465.16L1896.12 3462.38ZM1895.89 3462.31C1859.26 3453.93 1822.35 3445.46 1793.37 3423.03L1791.54 3425.41C1821.13 3448.31 1858.72 3456.88 1895.22 3465.23L1895.89 3462.31ZM1793.37 3423.03C1789.38 3419.94 1785.59 3416.66 1781.97 3413.2L1779.9 3415.36C1783.59 3418.89 1787.46 3422.25 1791.54 3425.41L1793.37 3423.03ZM1779.98 3413.13C1757.67 3431.63 1734.3 3448.24 1707.22 3458.06L1708.25 3460.88C1735.81 3450.89 1759.5 3434.02 1781.9 3415.44L1779.98 3413.13ZM1707.22 3458.06C1674.9 3469.78 1640.15 3469.13 1605.12 3468.45L1605.06 3471.45C1639.99 3472.13 1675.31 3472.83 1708.25 3460.88L1707.22 3458.06ZM1605.09 3468.45H1605.08V3471.45H1605.09V3468.45ZM1605.08 3468.45H1605.07V3471.45H1605.08V3468.45ZM1605.07 3468.45H1605.06V3471.45H1605.07V3468.45ZM1605.09 3468.45C1595.45 3468.26 1585.79 3468.07 1576.18 3468.15L1576.2 3471.15C1585.76 3471.07 1595.39 3471.26 1605.04 3471.45L1605.09 3468.45ZM1576.18 3468.15C1534.86 3468.48 1494.27 3467.56 1453.8 3460.02L1453.25 3462.97C1494.01 3470.57 1534.85 3471.48 1576.2 3471.15L1576.18 3468.15ZM1453.8 3460.02C1448.38 3459.01 1442.92 3458.04 1437.45 3457.07L1436.92 3460.03C1442.4 3461 1447.84 3461.96 1453.25 3462.97L1453.8 3460.02ZM1437.45 3457.07C1400.43 3450.52 1363.14 3443.9 1333.05 3422.94L1331.34 3425.4C1362.06 3446.81 1400.04 3453.5 1436.92 3460.03L1437.45 3457.07ZM1333.05 3422.94C1306.26 3404.27 1287.43 3377 1271.01 3348.25L1268.4 3349.73C1284.88 3378.59 1303.98 3406.34 1331.34 3425.4L1333.05 3422.94ZM1268.74 3347.84C1259.36 3355.68 1248.9 3361.98 1236.69 3365.94L1237.61 3368.79C1250.25 3364.69 1261.05 3358.19 1270.67 3350.14L1268.74 3347.84ZM1236.69 3365.94C1185.21 3382.65 1126.06 3396.3 1076.88 3375.37L1075.7 3378.13C1126.02 3399.54 1186.17 3385.49 1237.61 3368.79L1236.69 3365.94ZM1076.88 3375.37C1050.66 3364.21 1035.43 3338.75 1019.87 3312.62L1017.29 3314.16C1032.73 3340.08 1048.42 3366.52 1075.7 3378.13L1076.88 3375.37ZM1019.87 3312.62C1004.91 3287.51 989.641 3261.78 963.756 3249.4L962.462 3252.11C987.38 3264.03 1002.22 3288.85 1017.29 3314.16L1019.87 3312.62ZM963.756 3249.4C939.079 3237.6 910.134 3242.48 882.026 3247.17L882.52 3250.13C910.874 3245.4 938.798 3240.79 962.462 3252.11L963.756 3249.4ZM882.026 3247.17C866.801 3249.71 851.791 3252.21 837.557 3252.18C823.35 3252.15 810.03 3249.59 798.172 3242.09L796.568 3244.62C809.058 3252.52 822.992 3255.15 837.55 3255.18C852.082 3255.21 867.35 3252.66 882.52 3250.13L882.026 3247.17ZM798.172 3242.09C782.503 3232.18 772.11 3217.64 764.371 3200.72C756.622 3183.78 751.581 3164.56 746.547 3145.36L743.645 3146.12C748.665 3165.27 753.766 3184.75 761.643 3201.97C769.531 3219.21 780.248 3234.3 796.568 3244.62L798.172 3242.09ZM746.547 3145.36C742.923 3131.53 739.302 3117.71 734.681 3104.89L731.859 3105.91C736.426 3118.58 740.014 3132.26 743.645 3146.12L746.547 3145.36ZM734.681 3104.89C731.462 3095.96 728.004 3087.04 724.546 3078.11L721.748 3079.2C725.209 3088.13 728.654 3097.02 731.859 3105.91L734.681 3104.89ZM724.546 3078.11C716.664 3057.77 708.787 3037.44 703.612 3016.79L700.702 3017.52C705.931 3038.38 713.879 3058.89 721.748 3079.2L724.546 3078.11ZM701.964 3015.67C686.004 3017.74 670.064 3018.09 654.197 3015.38L653.691 3018.33C669.931 3021.11 686.183 3020.74 702.35 3018.64L701.964 3015.67ZM654.197 3015.38C612.482 3008.25 576.555 2982.57 542.287 2957.27L540.505 2959.68C574.689 2984.93 611.167 3011.07 653.691 3018.33L654.197 3015.38ZM542.287 2957.27C509.62 2933.15 481.233 2904.1 458.434 2870.73L455.957 2872.42C478.954 2906.08 507.579 2935.37 540.505 2959.68L542.287 2957.27ZM458.434 2870.73C447.996 2855.45 442.149 2837.8 436.246 2819.94L433.398 2820.88C439.277 2838.67 445.24 2856.74 455.957 2872.42L458.434 2870.73ZM436.246 2819.94C429.729 2800.22 423.144 2780.25 410.103 2763.65L407.743 2765.5C420.406 2781.62 426.851 2801.08 433.398 2820.88L436.246 2819.94ZM410.103 2763.65C394.497 2743.77 371.153 2729.24 348.437 2715.08L346.85 2717.63C369.674 2731.86 392.523 2746.12 407.743 2765.5L410.103 2763.65ZM348.437 2715.08C331.708 2704.66 315.311 2694.43 302.244 2682.37C289.204 2670.33 279.577 2656.55 276.295 2639.06L273.346 2639.62C276.785 2657.94 286.868 2672.26 300.209 2684.57C313.523 2696.86 330.177 2707.24 346.85 2717.63L348.437 2715.08ZM276.295 2639.06C271.724 2614.7 284.847 2594.12 303.046 2573.84L300.813 2571.84C282.551 2592.19 268.493 2613.75 273.346 2639.62L276.295 2639.06ZM302.621 2571.51C272.713 2555.97 243.868 2539.29 217.196 2518.68L215.361 2521.05C242.236 2541.82 271.259 2558.59 301.238 2574.17L302.621 2571.51ZM217.196 2518.68C212.853 2515.32 208.455 2511.99 204.051 2508.65L202.238 2511.04C206.644 2514.38 211.032 2517.7 215.361 2521.05L217.196 2518.68ZM203.989 2508.6L203.987 2508.6L202.298 2511.08L202.3 2511.08L203.989 2508.6ZM204.091 2508.68L204.086 2508.68L202.189 2511L202.194 2511L204.091 2508.68ZM204.044 2508.64C174.222 2486.03 144.193 2463.23 127.245 2430.97L124.589 2432.37C141.902 2465.32 172.521 2488.5 202.232 2511.03L204.044 2508.64ZM127.245 2430.97C107.765 2393.89 106.743 2350.14 106.426 2307.9L103.426 2307.92C103.742 2350.05 104.719 2394.54 124.589 2432.37L127.245 2430.97ZM106.426 2307.9C106.161 2272.57 110.951 2237.54 121.001 2203.74L118.125 2202.89C107.988 2236.98 103.159 2272.31 103.426 2307.92L106.426 2307.9ZM120.474 2202.12C117.6 2199.92 114.708 2197.73 111.813 2195.54L110 2197.93C112.896 2200.12 115.783 2202.31 118.652 2204.51L120.474 2202.12ZM111.815 2195.54L111.724 2195.47L109.907 2197.86L109.998 2197.92L111.815 2195.54ZM111.719 2195.46L111.62 2195.39L109.812 2197.78L109.911 2197.86L111.719 2195.46ZM111.579 2195.36L111.577 2195.36L109.851 2197.81L109.853 2197.81L111.579 2195.36ZM111.62 2195.39C81.7981 2172.78 51.7691 2149.98 34.8214 2117.72L32.1656 2119.12C49.4784 2152.07 80.097 2175.25 109.808 2197.78L111.62 2195.39ZM34.8214 2117.72C15.3412 2080.64 14.3193 2036.89 14.0026 1994.65L11.0027 1994.67C11.3185 2036.8 12.2949 2081.29 32.1656 2119.12L34.8214 2117.72ZM14.0026 1994.65C13.7008 1954.39 19.9627 1914.51 33.0936 1876.41L30.2573 1875.43C17.0114 1913.87 10.6984 1954.09 11.0027 1994.67L14.0026 1994.65ZM33.0936 1876.41C39.1054 1858.97 49.8124 1843.69 60.6491 1828.25L58.1935 1826.52C47.401 1841.9 36.4302 1857.52 30.2573 1875.43L33.0936 1876.41ZM60.6491 1828.25C72.612 1811.2 84.7401 1793.94 90.2491 1773.65L87.3539 1772.86C82.0058 1792.56 70.2121 1809.4 58.1935 1826.52L60.6491 1828.25ZM90.2491 1773.65C96.8427 1749.36 94.4427 1722.22 92.1235 1695.8L89.135 1696.06C91.4654 1722.6 93.7814 1749.18 87.3539 1772.86L90.2491 1773.65ZM92.1235 1695.8C91.3956 1687.51 90.6736 1679.28 90.227 1671.2L87.2315 1671.36C87.6813 1679.51 88.4078 1687.78 89.135 1696.06L92.1235 1695.8ZM89.8754 1670.31C83.2291 1662.44 77.3422 1654.02 72.5199 1644.84L69.8641 1646.24C74.8032 1655.64 80.8198 1664.24 87.5831 1672.25L89.8754 1670.31ZM72.5199 1644.84C53.0397 1607.76 52.0178 1564.01 51.7011 1521.77L48.7012 1521.79C49.017 1563.92 49.9934 1608.41 69.8641 1646.24L72.5199 1644.84ZM51.7011 1521.77C51.3993 1481.51 57.6612 1441.64 70.7921 1403.53L67.9558 1402.56C54.7099 1440.99 48.3969 1481.21 48.7012 1521.79L51.7011 1521.77ZM70.7921 1403.53C76.8039 1386.09 87.5109 1370.81 98.3476 1355.37L95.892 1353.65C85.0995 1369.03 74.1287 1384.64 67.9558 1402.56L70.7921 1403.53ZM98.3476 1355.37C110.31 1338.32 122.439 1321.07 127.948 1300.77L125.052 1299.98C119.704 1319.69 107.911 1336.52 95.8919 1353.65L98.3476 1355.37ZM127.948 1300.77C134.541 1276.48 132.141 1249.34 129.822 1222.92L126.834 1223.18C129.164 1249.73 131.48 1276.3 125.052 1299.98L127.948 1300.77ZM129.822 1222.92C128.114 1203.47 126.445 1184.4 128.27 1166.84C130.092 1149.32 135.383 1133.42 147.513 1120.25L145.307 1118.22C132.606 1132 127.151 1148.59 125.286 1166.53C123.426 1184.43 125.131 1203.8 126.834 1223.18L129.822 1222.92ZM147.513 1120.25C154.883 1112.25 163.694 1107.35 173.547 1104.51L172.718 1101.63C162.412 1104.59 153.099 1109.76 145.307 1118.22L147.513 1120.25ZM174.596 1103.4C177.403 1090.88 180.904 1078.49 185.111 1066.28L182.274 1065.3C178.031 1077.62 174.499 1090.11 171.669 1102.74L174.596 1103.4ZM185.111 1066.28C191.122 1048.84 201.829 1033.56 212.666 1018.12L210.21 1016.39C199.418 1031.77 188.447 1047.39 182.274 1065.3L185.111 1066.28ZM212.666 1018.12C224.629 1001.07 236.757 983.813 242.266 963.517L239.371 962.731C234.023 982.434 222.229 999.267 210.21 1016.39L212.666 1018.12ZM242.266 963.517C248.322 941.206 248.9 920.06 249.451 900.114L246.452 900.031C245.9 920.011 245.32 940.813 239.371 962.731L242.266 963.517ZM249.451 900.114C250.376 866.624 251.247 836.567 276.975 808.644L274.769 806.611C248.193 835.454 247.375 866.621 246.452 900.031L249.451 900.114ZM276.975 808.644C296.096 787.892 320.569 780.507 347.55 776.852L347.147 773.879C319.897 777.571 294.589 785.101 274.769 806.611L276.975 808.644ZM348.848 775.342C348.441 749.865 352.214 726.647 368.855 708.586L366.649 706.553C349.218 725.471 345.438 749.659 345.849 775.389L348.848 775.342ZM368.855 708.586C375.935 700.902 384.345 696.073 393.729 693.194L392.849 690.326C383.022 693.34 374.133 698.431 366.649 706.553L368.855 708.586ZM394.736 691.366C388.308 667.752 385.887 644.179 392.699 620.203L389.813 619.383C382.798 644.075 385.333 668.243 391.841 692.154L394.736 691.366ZM392.699 620.203C406.067 573.153 439.573 552.821 479.823 528.468L478.27 525.901C438.129 550.188 403.544 571.054 389.813 619.383L392.699 620.203ZM479.823 528.468C487.789 523.648 496.015 518.671 504.374 513.305L502.753 510.781C494.433 516.122 486.241 521.079 478.27 525.901L479.823 528.468ZM504.374 513.305C523.619 500.951 544.876 492.867 566.302 484.724L565.236 481.92C543.859 490.044 522.305 498.23 502.753 510.781L504.374 513.305ZM566.243 484.745L566.244 484.745L565.295 481.899L565.295 481.899L566.243 484.745ZM566.302 484.724C587.908 476.513 609.688 468.242 629.392 455.466L627.76 452.949C608.368 465.522 586.892 473.69 565.237 481.92L566.302 484.724ZM629.392 455.466C647.464 443.749 662.176 427.816 676.663 412.138L674.459 410.102C659.927 425.829 645.463 441.471 627.76 452.949L629.392 455.466ZM676.663 412.138C695.35 391.914 713.66 372.131 738.542 361.453L737.359 358.696C711.792 369.668 693.067 389.965 674.459 410.102L676.663 412.138ZM738.542 361.453C774.08 346.202 813.252 337.433 852.018 337.859L852.051 334.859C812.82 334.428 773.236 343.3 737.359 358.696L738.542 361.453ZM852.793 337.653L854.292 336.775L852.776 334.186L851.277 335.064L852.793 337.653ZM854.292 336.775C874.203 325.116 894.276 313.368 911.54 297.522L909.512 295.312C892.523 310.906 872.733 322.5 852.776 334.186L854.292 336.775ZM911.54 297.522C927.375 282.987 939.183 264.851 950.81 247.004L948.297 245.367C936.632 263.27 925.021 281.076 909.512 295.312L911.54 297.522ZM950.81 247.004C965.81 223.983 980.511 201.46 1003.23 186.829L1001.61 184.307C978.258 199.343 963.232 222.444 948.297 245.367L950.81 247.004ZM1003.23 186.829C1032.14 168.219 1064.75 154.2 1098.59 147.135L1097.98 144.198C1063.75 151.346 1030.79 165.516 1001.61 184.307L1003.23 186.829ZM1098.87 147.047C1112.59 141.197 1128.4 137.238 1144.5 133.213L1143.77 130.303C1127.73 134.314 1111.67 138.327 1097.7 144.287L1098.87 147.047ZM1144.5 133.213C1165.6 127.934 1187.21 122.542 1204.58 112.554L1203.08 109.953C1186.14 119.693 1164.98 124.998 1143.77 130.303L1144.5 133.213ZM1204.58 112.554C1235.57 94.7339 1266.25 85.4314 1298.58 75.6385L1297.71 72.7674C1265.42 82.5502 1234.41 91.9379 1203.08 109.953L1204.58 112.554ZM1298.58 75.6385C1312.98 71.2751 1327.71 66.8131 1342.89 61.46L1341.89 58.6308C1326.78 63.9581 1312.12 68.4015 1297.71 72.7674L1298.58 75.6385ZM1342.89 61.46C1359.59 55.5708 1375.67 47.2107 1391.51 38.9763L1390.13 36.3144C1374.25 44.5668 1358.36 52.8238 1341.89 58.6308L1342.89 61.46ZM1391.51 38.9763C1424.42 21.868 1456.25 5.38324 1491.63 11.1696L1492.11 8.20891C1455.58 2.23418 1422.85 19.3067 1390.13 36.3144L1391.51 38.9763ZM1491.63 11.1696C1523.66 16.4091 1557.69 23.8889 1587.09 37.9297L1588.39 35.2226C1558.59 20.9931 1524.22 13.46 1492.11 8.20891L1491.63 11.1696ZM1588.71 37.717C1606.13 22.8471 1622.94 12.0577 1645.27 4.86924L1644.35 2.01357C1621.54 9.35561 1604.4 20.3861 1586.77 35.4353L1588.71 37.717ZM1643.51 2.68756C1615.65 50.6157 1614.38 112.323 1645.37 162.822L1647.92 161.253C1617.53 111.732 1618.78 51.2069 1646.11 4.19525L1643.51 2.68756ZM1645.37 162.822C1653.32 175.779 1662.85 187.12 1673.56 196.743L1675.57 194.512C1665.07 185.08 1655.72 173.963 1647.92 161.253L1645.37 162.822ZM1674.04 194.223C1664.44 197.824 1655.06 202.474 1646.05 208.209L1647.66 210.74C1656.5 205.117 1665.69 200.56 1675.09 197.032L1674.04 194.223ZM1646.05 208.209C1575.2 253.279 1553.67 348.27 1597.92 420.38L1600.48 418.811C1557.08 348.078 1578.21 254.92 1647.66 210.74L1646.05 208.209ZM1597.92 420.38C1605.88 433.339 1615.41 444.68 1626.12 454.304L1628.13 452.073C1617.63 442.641 1608.28 431.522 1600.48 418.811L1597.92 420.38ZM1626.6 451.784C1617.01 455.385 1607.63 460.034 1598.62 465.766L1600.23 468.298C1609.06 462.677 1618.25 458.121 1627.65 454.593L1626.6 451.784ZM1598.62 465.766C1527.77 510.837 1506.24 605.828 1550.49 677.937L1553.05 676.368C1509.65 605.636 1530.78 512.478 1600.23 468.298L1598.62 465.766ZM1550.49 677.937C1565.08 701.707 1585 720.032 1607.69 732.301L1609.12 729.662C1586.88 717.64 1567.36 699.681 1553.05 676.368L1550.49 677.937ZM1607.51 729.779C1544.2 776.992 1526.5 866.667 1568.74 935.499L1571.3 933.93C1529.87 866.416 1547.24 778.466 1609.3 732.184L1607.51 729.779ZM1568.74 935.499C1584.74 961.571 1607.15 981.091 1632.6 993.255L1633.9 990.549C1608.96 978.629 1586.99 959.499 1571.3 933.93L1568.74 935.499ZM1632.31 990.733C1572.58 1038.75 1556.68 1125.84 1597.92 1193.06L1600.48 1191.49C1560.02 1125.56 1575.64 1040.14 1634.19 993.071L1632.31 990.733ZM1597.92 1193.06C1626.98 1240.41 1677.19 1266.14 1728.31 1265.47L1728.27 1262.47C1678.18 1263.13 1628.97 1237.92 1600.48 1191.49L1597.92 1193.06ZM1727.2 1262.94C1711.49 1279.76 1700 1299.71 1693.13 1321.1L1695.99 1322.02C1702.73 1301.03 1713.99 1281.47 1729.39 1264.99L1727.2 1262.94ZM1679.35 1317.46C1684.03 1319.35 1688.92 1321.33 1694.11 1322.99L1695.02 1320.13C1689.96 1318.51 1685.17 1316.58 1680.48 1314.68L1679.35 1317.46ZM1640.12 1311.92C1653.85 1307.2 1665.65 1311.91 1679.35 1317.46L1680.48 1314.68C1666.94 1309.2 1654.09 1303.94 1639.14 1309.09L1640.12 1311.92ZM1622.96 1327.87C1625.27 1323.96 1627.13 1320.85 1629.62 1318.26C1632.08 1315.71 1635.21 1313.61 1640.12 1311.92L1639.14 1309.09C1633.84 1310.91 1630.29 1313.24 1627.46 1316.18C1624.68 1319.07 1622.66 1322.5 1620.38 1326.34L1622.96 1327.87ZM1558.27 1384.42C1581.53 1371.39 1595.89 1360.33 1605.35 1350.97C1614.84 1341.59 1619.36 1333.95 1622.96 1327.87L1620.38 1326.34C1616.82 1332.35 1612.45 1339.73 1603.24 1348.84C1594.02 1357.96 1579.89 1368.87 1556.81 1381.81L1558.27 1384.42ZM1490.65 1410.45C1490.19 1411.09 1489.67 1411.99 1489.71 1412.94C1489.73 1413.5 1489.94 1414.06 1490.4 1414.5C1490.83 1414.91 1491.36 1415.11 1491.84 1415.2C1492.77 1415.39 1493.98 1415.27 1495.42 1414.96C1496.9 1414.64 1498.78 1414.07 1501.13 1413.21C1510.5 1409.77 1527.87 1401.47 1558.27 1384.42L1556.81 1381.81C1526.41 1398.85 1509.22 1407.05 1500.09 1410.39C1497.82 1411.23 1496.08 1411.75 1494.78 1412.03C1493.44 1412.32 1492.73 1412.32 1492.41 1412.26C1492.27 1412.23 1492.35 1412.22 1492.48 1412.34C1492.64 1412.49 1492.7 1412.69 1492.71 1412.83C1492.71 1412.94 1492.69 1412.75 1493.09 1412.2L1490.65 1410.45ZM1477.71 1460.78C1477.2 1454.36 1476.73 1448.27 1478.5 1440.78C1480.28 1433.29 1484.34 1424.29 1493.08 1412.2L1490.65 1410.44C1481.75 1422.74 1477.48 1432.1 1475.58 1440.09C1473.69 1448.09 1474.21 1454.6 1474.72 1461.02L1477.71 1460.78ZM1467.02 1506.29C1473.26 1495.54 1476.19 1487.09 1477.42 1479.81C1478.65 1472.54 1478.17 1466.53 1477.71 1460.78L1474.72 1461.02C1475.18 1466.77 1475.62 1472.45 1474.46 1479.31C1473.3 1486.16 1470.53 1494.28 1464.42 1504.78L1467.02 1506.29ZM1422.73 1529.23C1429.81 1529.38 1437.52 1529.56 1445.13 1526.72C1452.81 1523.84 1460.24 1517.95 1467.02 1506.29L1464.42 1504.78C1457.93 1515.96 1451 1521.32 1444.08 1523.91C1437.09 1526.52 1429.95 1526.38 1422.8 1526.23L1422.73 1529.23ZM1389.28 1548.7C1393.37 1538.47 1398.39 1533.65 1403.87 1531.33C1409.47 1528.96 1415.75 1529.08 1422.73 1529.23L1422.8 1526.23C1415.96 1526.08 1408.99 1525.91 1402.7 1528.57C1396.3 1531.29 1390.79 1536.83 1386.49 1547.59L1389.28 1548.7ZM1393.96 1603.06C1390.12 1594.64 1386.63 1586.96 1385.25 1578.41C1383.87 1569.92 1384.56 1560.51 1389.28 1548.7L1386.49 1547.59C1381.59 1559.86 1380.82 1569.82 1382.29 1578.89C1383.75 1587.9 1387.42 1595.95 1391.23 1604.3L1393.96 1603.06ZM1406.41 1651.36C1406.41 1630.39 1399.84 1615.99 1393.96 1603.06L1391.23 1604.3C1397.1 1617.2 1403.41 1631.09 1403.41 1651.36H1406.41ZM1381.43 1701.03C1393.57 1688.99 1406.41 1676.28 1406.41 1651.36H1403.41C1403.41 1674.95 1391.43 1686.88 1379.32 1698.9L1381.43 1701.03ZM1358.98 1743.78C1358.98 1723.35 1369.84 1712.52 1381.43 1701.03L1379.32 1698.9C1367.75 1710.37 1355.98 1721.99 1355.98 1743.78H1358.98ZM1374.67 1775.41C1370.02 1771.98 1366.19 1769.14 1363.45 1764.67C1360.72 1760.23 1358.98 1754.03 1358.98 1743.78H1355.98C1355.98 1754.36 1357.78 1761.17 1360.89 1766.24C1363.99 1771.29 1368.31 1774.45 1372.89 1777.82L1374.67 1775.41ZM1406.36 1825C1401.91 1808.7 1396.54 1798.15 1390.95 1790.72C1385.37 1783.29 1379.63 1779.07 1374.67 1775.41L1372.89 1777.82C1377.83 1781.47 1383.26 1785.47 1388.56 1792.52C1393.86 1799.58 1399.09 1809.76 1403.47 1825.78L1406.36 1825ZM1400.4 1875.29C1404.27 1871.4 1408.27 1867.42 1409.96 1859.96C1411.63 1852.61 1411.01 1842.05 1406.36 1825L1403.47 1825.78C1408.08 1842.68 1408.54 1852.66 1407.03 1859.3C1405.55 1865.84 1402.13 1869.3 1398.27 1873.17L1400.4 1875.29ZM1389.38 1911.08C1388.42 1899.46 1389.66 1892.1 1391.84 1886.91C1394.01 1881.72 1397.16 1878.54 1400.4 1875.29L1398.27 1873.17C1395.03 1876.42 1391.49 1879.96 1389.07 1885.75C1386.65 1891.53 1385.41 1899.41 1386.39 1911.33L1389.38 1911.08ZM1426.58 1949.26C1417.09 1946.68 1408.45 1944.3 1401.82 1939.01C1395.31 1933.81 1390.58 1925.65 1389.38 1911.08L1386.39 1911.33C1387.64 1926.51 1392.64 1935.53 1399.95 1941.36C1407.15 1947.1 1416.44 1949.61 1425.79 1952.16L1426.58 1949.26ZM1466.92 1972.12C1455.76 1957.16 1440.4 1953.02 1426.58 1949.26L1425.79 1952.16C1439.69 1955.94 1454.04 1959.88 1464.52 1973.91L1466.92 1972.12ZM1472.7 2016.43C1474.35 2009.88 1476.09 2003.01 1475.81 1995.69C1475.53 1988.31 1473.22 1980.55 1466.92 1972.12L1464.52 1973.91C1470.46 1981.87 1472.56 1989.05 1472.81 1995.8C1473.07 2002.62 1471.46 2009.08 1469.79 2015.7L1472.7 2016.43ZM1481.99 2060.17C1473.79 2051.93 1470.66 2044.53 1469.93 2037.54C1469.19 2030.45 1470.89 2023.64 1472.7 2016.43L1469.79 2015.7C1468 2022.82 1466.14 2030.15 1466.94 2037.85C1467.76 2045.63 1471.26 2053.64 1479.86 2062.29L1481.99 2060.17ZM1531.58 2074.56C1522.99 2075.21 1514.82 2075.82 1506.66 2074.17C1498.57 2072.53 1490.42 2068.65 1481.99 2060.17L1479.86 2062.29C1488.69 2071.17 1497.37 2075.35 1506.07 2077.11C1514.7 2078.85 1523.28 2078.19 1531.8 2077.55L1531.58 2074.56ZM1579.63 2083.37C1562.23 2072.21 1546.41 2073.43 1531.58 2074.56L1531.8 2077.55C1546.63 2076.43 1561.53 2075.32 1578.01 2085.89L1579.63 2083.37ZM1606.95 2121.61C1602.13 2108.56 1596.95 2094.48 1579.63 2083.37L1578.01 2085.89C1594.43 2096.43 1599.33 2109.64 1604.14 2122.65L1606.95 2121.61ZM1640.12 2158.23C1628.77 2154.28 1621.9 2148.85 1617.17 2142.63C1612.41 2136.36 1609.76 2129.21 1606.95 2121.61L1604.14 2122.65C1606.92 2130.18 1609.71 2137.76 1614.78 2144.45C1619.9 2151.18 1627.28 2156.94 1639.14 2161.06L1640.12 2158.23ZM1682.36 2150.75C1676.35 2154.54 1670.73 2158.08 1664.13 2159.86C1657.6 2161.62 1650.01 2161.66 1640.12 2158.23L1639.14 2161.06C1649.54 2164.68 1657.74 2164.68 1664.91 2162.75C1672.02 2160.84 1678.02 2157.04 1683.96 2153.28L1682.36 2150.75ZM1740.46 2143.23C1725.74 2138.06 1714.61 2137.73 1705.4 2139.86C1696.23 2141.98 1689.08 2146.5 1682.36 2150.75L1683.96 2153.28C1690.72 2149.02 1697.47 2144.77 1706.08 2142.78C1714.64 2140.8 1725.18 2141.04 1739.46 2146.06L1740.46 2143.23ZM1779.73 2173.19C1776.87 2168.49 1773.71 2163.29 1767.9 2158.12C1762.09 2152.95 1753.71 2147.88 1740.46 2143.23L1739.46 2146.06C1752.45 2150.61 1760.46 2155.51 1765.91 2160.36C1771.35 2165.2 1774.31 2170.06 1777.17 2174.75L1779.73 2173.19ZM1818.58 2194.76C1804.46 2193.06 1796.29 2190.08 1790.92 2186.41C1785.57 2182.75 1782.85 2178.31 1779.73 2173.19L1777.17 2174.75C1780.27 2179.84 1783.28 2184.82 1789.23 2188.89C1795.16 2192.94 1803.86 2196.01 1818.22 2197.74L1818.58 2194.76ZM1870.81 2167.64C1865.14 2175.27 1859.45 2182.89 1851.49 2188.21C1843.61 2193.48 1833.4 2196.55 1818.58 2194.76L1818.22 2197.74C1833.68 2199.6 1844.63 2196.41 1853.16 2190.7C1861.61 2185.05 1867.59 2176.99 1873.22 2169.43L1870.81 2167.64ZM1907.18 2143.14C1888.94 2143.14 1879.88 2155.46 1870.81 2167.64L1873.22 2169.43C1882.41 2157.07 1890.64 2146.14 1907.18 2146.14V2143.14ZM1954.04 2152.88C1939.91 2148.22 1924.58 2143.14 1907.18 2143.14V2146.14C1924.02 2146.14 1938.92 2151.05 1953.1 2155.73L1954.04 2152.88ZM2004.58 2158.23C1988.11 2164.08 1972.17 2158.87 1954.04 2152.88L1953.1 2155.73C1971.02 2161.65 1987.99 2167.31 2005.58 2161.06L2004.58 2158.23ZM2025.79 2128.38C2021.69 2142.17 2018.29 2153.36 2004.58 2158.23L2005.58 2161.06C2020.91 2155.61 2024.63 2142.81 2028.67 2129.24L2025.79 2128.38ZM2056.61 2083.34C2035.42 2095.89 2030.25 2113.39 2025.79 2128.38L2028.67 2129.24C2033.11 2114.29 2038.02 2097.83 2058.14 2085.92L2056.61 2083.34ZM2103.39 2071.61C2088.27 2072.16 2071.76 2074.37 2056.61 2083.34L2058.14 2085.92C2072.65 2077.33 2088.55 2075.15 2103.5 2074.61L2103.39 2071.61ZM2101.98 2073.45C2105.69 2089.26 2111.94 2104.74 2120.87 2119.28L2123.42 2117.71C2114.67 2103.45 2108.54 2088.27 2104.9 2072.77L2101.98 2073.45ZM2120.87 2119.28C2165.13 2191.41 2258.45 2213.36 2329.32 2168.28L2327.71 2165.75C2258.28 2209.92 2166.82 2188.43 2123.42 2117.71L2120.87 2119.28ZM2329.32 2168.28C2342.45 2159.92 2353.89 2149.85 2363.53 2138.53L2361.25 2136.58C2351.8 2147.68 2340.58 2157.56 2327.71 2165.75L2329.32 2168.28ZM2360.99 2137.02C2344.48 2180.64 2347.62 2231.36 2373.82 2274.06L2376.38 2272.49C2350.68 2230.62 2347.6 2180.88 2363.79 2138.08L2360.99 2137.02ZM2373.82 2274.06C2418.08 2346.19 2511.41 2368.14 2582.27 2323.06L2580.66 2320.53C2511.23 2364.7 2419.78 2343.21 2376.38 2272.49L2373.82 2274.06ZM2582.27 2323.06C2602.16 2310.41 2618.16 2293.82 2629.92 2274.91L2627.37 2273.33C2615.85 2291.87 2600.16 2308.13 2580.66 2320.53L2582.27 2323.06ZM2627.16 2273.91C2621.91 2312.01 2630.6 2352.15 2654.57 2385.75L2657.01 2384C2633.51 2351.06 2624.99 2311.7 2630.13 2274.32L2627.16 2273.91ZM2654.57 2385.75C2703.66 2454.56 2798.27 2469.83 2865.87 2419.83L2864.09 2417.42C2797.85 2466.41 2705.14 2451.46 2657.01 2384L2654.57 2385.75ZM2865.87 2419.83C2872.75 2414.74 2879.08 2409.18 2884.86 2403.21L2882.71 2401.12C2877.04 2406.97 2870.83 2412.43 2864.09 2417.42L2865.87 2419.83ZM2882.28 2402.16C2882.33 2429.94 2889.76 2458.04 2905.28 2483.33L2907.84 2481.76C2892.62 2456.96 2885.33 2429.4 2885.28 2402.16L2882.28 2402.16ZM2905.28 2483.33C2949.54 2555.46 3042.87 2577.41 3113.73 2532.33L3112.12 2529.8C3042.69 2573.97 2951.23 2552.48 2907.84 2481.76L2905.28 2483.33ZM3113.73 2532.33C3139.4 2516 3158.59 2493.11 3170.53 2467.14L3167.81 2465.89C3156.1 2491.36 3137.28 2513.79 3112.12 2529.8L3113.73 2532.33ZM3167.81 2467.14C3170.35 2472.64 3173.24 2478.05 3176.48 2483.33L3179.04 2481.76C3175.86 2476.58 3173.02 2471.28 3170.53 2465.89L3167.81 2467.14ZM3176.48 2483.33C3220.74 2555.46 3314.07 2577.41 3384.93 2532.33L3383.32 2529.8C3313.89 2573.97 3222.43 2552.48 3179.04 2481.76L3176.48 2483.33ZM3384.93 2532.33C3418.8 2510.78 3441.39 2477.83 3450.92 2441.43L3448.02 2440.67C3438.67 2476.37 3416.51 2508.68 3383.32 2529.8L3384.93 2532.33ZM3448.02 2441.43C3451.81 2455.87 3457.74 2469.99 3465.93 2483.33L3468.49 2481.76C3460.46 2468.68 3454.64 2454.83 3450.92 2440.67L3448.02 2441.43ZM3465.93 2483.33C3470.26 2490.38 3475.06 2496.96 3480.26 2503.04L3482.54 2501.09C3477.44 2495.13 3472.73 2488.68 3468.49 2481.76L3465.93 2483.33Z" fill="#FF85BC"/>
<rect x="0.306725" y="1.39291" width="86.2009" height="304.014" rx="34" transform="matrix(0.83798 0.5457 -0.531255 0.847212 1247.64 1132.69)" fill="white" stroke="#F2B5D4" stroke-width="2"/>
<rect x="-0.887847" y="1.10447" width="87.366" height="286.785" rx="34" transform="matrix(0.106073 0.994358 -0.99392 0.110109 812.441 1664.62)" fill="white" stroke="#F2B5D4" stroke-width="2"/>
<rect x="-1.33846" y="0.421379" width="87.0308" height="336.116" rx="34" transform="matrix(-0.455252 0.890363 -0.883207 -0.468983 2068.89 3025.04)" fill="white" stroke="#F2B5D4" stroke-width="2"/>
<rect x="-1.18581" y="-0.760322" width="85.7895" height="340.866" rx="34" transform="matrix(-0.976074 0.217436 -0.209735 -0.977758 1302.72 2826.04)" fill="white" stroke="#F2B5D4" stroke-width="2"/>
<rect x="1.38241" y="-0.230697" width="86.8242" height="288.591" rx="34" transform="matrix(0.573775 -0.819013 0.808631 0.588316 782.928 1042.56)" fill="#00C3B0" stroke="#00A0C3" stroke-width="2"/>
<rect x="0.837536" y="1.14454" width="85.7521" height="292.099" rx="34" transform="matrix(0.987775 0.155886 -0.150239 0.98865 1486.38 583.226)" fill="#00C3B0" stroke="#00A0C3" stroke-width="2"/>
<rect x="0.333186" y="-1.38659" width="86.9322" height="288.233" rx="34" transform="matrix(-0.515134 -0.85711 0.84832 -0.529484 772.716 2545.57)" fill="#00C3B0" stroke="#00A0C3" stroke-width="2"/>
<rect x="0.418161" y="1.3625" width="86.0824" height="291.027" rx="34" transform="matrix(0.879761 0.475416 -0.4616 0.887088 2300.79 2525.52)" fill="#00C3B0" stroke="#00A0C3" stroke-width="2"/>
<rect x="0.578454" y="-0.402631" width="88.3338" height="287.893" rx="34.5" transform="matrix(0.173173 -0.984891 0.983734 0.17963 752.57 720.56)" fill="#87CFF7" stroke="#5EAFF2"/>
<rect x="0.452222" y="-0.545198" width="88.3711" height="287.768" rx="34.5" transform="matrix(-0.0910759 -0.995844 0.99552 -0.0945522 193.439 1531.95)" fill="#87CFF7" stroke="#5EAFF2"/>
<rect x="0.399802" y="0.586179" width="86.7708" height="341.433" rx="34.5" transform="matrix(0.981953 0.189123 -0.182348 0.983234 513.641 2146.78)" fill="#87CFF7" stroke="#5EAFF2"/>
<rect x="0.597653" y="0.372354" width="95.7993" height="320.722" rx="34.5" transform="matrix(0.973121 -0.230295 0.222185 0.975004 2503.45 2391.99)" fill="#87CFF7" stroke="#5EAFF2"/>
<rect x="-1.00972" y="0.989803" width="87.3852" height="286.721" rx="34" transform="matrix(-0.00977314 0.999952 -0.999948 -0.0101494 1378.7 2171.73)" fill="#EF3B36" stroke="#FF0101" stroke-width="2"/>
<rect x="-1.28892" y="0.559347" width="87.1618" height="287.469" rx="34" transform="matrix(-0.361156 0.932505 -0.927768 -0.373158 1182.68 1951.97)" fill="#EF3B36" stroke="#FF0101" stroke-width="2"/>
<rect x="0.646264" y="1.2667" width="85.8731" height="291.707" rx="34" transform="matrix(0.949496 0.313779 -0.303232 0.952917 1853.46 2418.27)" fill="#EF3B36" stroke="#FF0101" stroke-width="2"/>
<rect x="1.21946" y="0.702835" width="85.8262" height="291.859" rx="34" transform="matrix(0.964491 -0.264114 0.254969 0.966949 1559.25 3007.21)" fill="#EF3B36" stroke="#FF0101" stroke-width="2"/>
<rect x="-0.133999" y="-0.700587" width="87.2437" height="291.501" rx="34.5" transform="matrix(-0.822392 -0.568921 0.554394 -0.832254 922.265 2973.24)" fill="#FEE449" stroke="#FFD600"/>
<rect x="0.357423" y="-0.613932" width="88.2774" height="288.083" rx="34.5" transform="matrix(-0.25081 -0.968036 0.965655 -0.259827 324.063 2053.46)" fill="#FEE449" stroke="#FFD600"/>
<rect x="0.626349" y="0.319599" width="86.873" height="292.708" rx="34.5" transform="matrix(0.949511 -0.313732 0.303187 0.952931 1147.42 761.924)" fill="#FEE449" stroke="#FFD600"/>
</svg>
