<svg width="3648" height="3664" viewBox="0 0 3648 3664" fill="none" xmlns="http://www.w3.org/2000/svg">
<mask id="path-1-inside-1_4751_1065" fill="white">
<path fill-rule="evenodd" clip-rule="evenodd" d="M1823.69 3664C2830.89 3664 3647.38 2858.43 3647.38 1864.72C3647.38 871.009 2830.89 65.4463 1823.69 65.4463C816.494 65.4463 0 871.009 0 1864.72C0 2858.43 816.494 3664 1823.69 3664ZM1823.69 2283.71C2073.3 2283.71 2275.65 2107.38 2275.65 1889.86C2275.65 1672.34 2073.3 1496.01 1823.69 1496.01C1574.08 1496.01 1371.73 1672.34 1371.73 1889.86C1371.73 2107.38 1574.08 2283.71 1823.69 2283.71Z"/>
</mask>
<path fill-rule="evenodd" clip-rule="evenodd" d="M1823.69 3664C2830.89 3664 3647.38 2858.43 3647.38 1864.72C3647.38 871.009 2830.89 65.4463 1823.69 65.4463C816.494 65.4463 0 871.009 0 1864.72C0 2858.43 816.494 3664 1823.69 3664ZM1823.69 2283.71C2073.3 2283.71 2275.65 2107.38 2275.65 1889.86C2275.65 1672.34 2073.3 1496.01 1823.69 1496.01C1574.08 1496.01 1371.73 1672.34 1371.73 1889.86C1371.73 2107.38 1574.08 2283.71 1823.69 2283.71Z" fill="#CFA849"/>
<path d="M3645.38 1864.72C3645.38 2857.3 2829.81 3662 1823.69 3662V3666C2831.97 3666 3649.38 2859.56 3649.38 1864.72H3645.38ZM1823.69 67.4463C2829.81 67.4463 3645.38 872.139 3645.38 1864.72H3649.38C3649.38 869.88 2831.97 63.4463 1823.69 63.4463V67.4463ZM2 1864.72C2 872.139 817.573 67.4463 1823.69 67.4463V63.4463C815.415 63.4463 -2 869.88 -2 1864.72H2ZM1823.69 3662C817.573 3662 2 2857.3 2 1864.72H-2C-2 2859.56 815.415 3666 1823.69 3666V3662ZM2273.65 1889.86C2273.65 2106.03 2072.47 2281.71 1823.69 2281.71V2285.71C2074.14 2285.71 2277.65 2108.73 2277.65 1889.86H2273.65ZM1823.69 1498.01C2072.47 1498.01 2273.65 1673.7 2273.65 1889.86H2277.65C2277.65 1670.99 2074.14 1494.01 1823.69 1494.01V1498.01ZM1373.73 1889.86C1373.73 1673.7 1574.91 1498.01 1823.69 1498.01V1494.01C1573.24 1494.01 1369.73 1670.99 1369.73 1889.86H1373.73ZM1823.69 2281.71C1574.91 2281.71 1373.73 2106.03 1373.73 1889.86H1369.73C1369.73 2108.73 1573.24 2285.71 1823.69 2285.71V2281.71Z" fill="#B28A59" mask="url(#path-1-inside-1_4751_1065)"/>
<path fill-rule="evenodd" clip-rule="evenodd" d="M1587.69 53.3823C1610.96 33.6072 1633.26 20.9268 1668.91 14.4008C1711.77 6.55544 1753.06 15.7246 1795.12 25.0652C1803.89 27.0124 1812.69 28.967 1821.55 30.7764C1858.47 38.32 1895.75 39.859 1933.45 36.7969C1957.32 34.8589 1981.12 27.0797 2004.72 19.3671C2042.33 7.07561 2079.43 -5.04695 2115.43 6.91124C2153.03 19.3996 2181.98 50.22 2202.72 85.6444C2227.49 78.3277 2255 77.4952 2282.42 76.6655C2298.23 76.187 2314.01 75.7095 2329.22 73.9905C2379.05 68.3583 2410.69 66.5704 2454.86 89.1869C2493.53 108.98 2520.28 141.218 2547.53 174.058C2551.27 178.558 2555.01 183.068 2558.79 187.56C2577.59 192.601 2597.68 197.025 2617.67 201.425C2654.54 209.544 2691.05 217.584 2718.42 229.279C2739.73 238.388 2756.46 255.181 2773.19 271.971C2790.02 288.855 2806.84 305.737 2828.32 314.801C2840.16 319.799 2848.76 323.185 2855.76 325.938C2875.36 333.65 2882.35 336.401 2912.61 355.748C2943.38 375.416 2971.06 395.595 2991.87 422.152C3057.28 468.862 3108.15 533.046 3149.72 606.042C3161.03 616.522 3171.99 625.524 3182.85 634.447C3203.66 651.548 3224.12 668.359 3246.06 694.724C3258.04 709.122 3270.23 723.08 3282.36 736.98C3310.98 769.781 3339.32 802.254 3364.07 839.386C3396.74 888.391 3427.84 943.886 3428.41 1002.4C3428.56 1017.36 3431.9 1031.24 3436.38 1044.5C3471.38 1067.46 3483.01 1111.91 3494.37 1155.32C3498.4 1170.72 3502.4 1185.99 3507.39 1200.13C3515 1221.65 3517.86 1244.05 3520.73 1266.45C3523.63 1289.09 3526.52 1311.72 3534.31 1333.44C3541.43 1353.31 3553.48 1371.03 3565.46 1388.66C3580.86 1411.31 3596.15 1433.8 3600.75 1460.5C3606.5 1493.89 3606.56 1528.8 3599.74 1562.1C3606.45 1566.27 3612.53 1571.46 3617.79 1577.97C3645.78 1612.61 3639.32 1660.38 3633.03 1706.98C3630.9 1722.75 3628.78 1738.38 3628.03 1753.33C3626.88 1776.08 3621 1797.9 3615.12 1819.73C3609.18 1841.79 3603.25 1863.84 3602.19 1886.84C3601.23 1907.89 3605.65 1928.75 3610.04 1949.5C3615.69 1976.17 3621.3 2002.66 3615.39 2029.1C3604.03 2079.93 3578.85 2129.15 3540.13 2164.65C3536.93 2167.59 3533.64 2170.47 3530.28 2173.27C3530.91 2190.56 3534.54 2207.74 3538.16 2224.84C3543.81 2251.51 3549.42 2277.99 3543.51 2304.44C3532.61 2353.25 3508.95 2400.57 3472.81 2435.69C3461.45 2457.91 3439.4 2472.82 3417.06 2487.91C3400.27 2499.26 3383.32 2510.71 3370.63 2525.46C3347.63 2552.18 3329.53 2581.81 3315.11 2613.81C3305.99 2634.06 3301.81 2656.82 3297.67 2679.39L3297.66 2679.4V2679.4C3294.61 2696.04 3291.57 2712.58 3286.58 2727.93C3287.34 2733.97 3287.33 2740.16 3286.39 2746.54C3279.98 2790.32 3240.19 2818.5 3201.38 2845.99L3201.38 2846L3201.38 2846C3188.25 2855.29 3175.23 2864.51 3163.66 2874.23C3146.03 2889.03 3125.84 2899.81 3105.66 2910.59C3085.26 2921.49 3064.86 2932.39 3047.12 2947.42C3043.38 2950.59 3039.84 2953.96 3036.46 2957.48C3027.79 2971.49 3017.22 2983.96 3006.14 2996.04L3006.14 2996.04C2992.26 3015.59 2978.47 3035.02 2959.42 3048.9C2956.28 3053.22 2953.29 3057.67 2950.51 3062.28C2939.6 3080.42 2933.52 3100.87 2927.48 3121.22C2919.71 3147.37 2912 3173.34 2894.14 3193.96C2859.82 3233.59 2814.05 3265.4 2762.9 3278.87C2747.2 3283.01 2730.93 3285.84 2714.52 3287.21C2693.21 3301.52 2666.08 3303.62 2638.58 3305.76C2618.28 3307.33 2597.77 3308.93 2579.28 3315.46C2545.76 3327.3 2515.01 3344.07 2486.24 3364.7C2468.03 3377.75 2452.83 3395.41 2437.76 3412.92C2413.75 3440.82 2390.07 3468.34 2355.05 3476.23C2314.82 3485.3 2271.75 3471.72 2234.66 3450.26C2213.62 3465.35 2191.51 3478.53 2166.66 3486.13C2133.41 3496.3 2098.4 3493.89 2063.44 3491.48C2053.79 3490.81 2044.14 3490.15 2034.54 3489.75C1993.17 3488.03 1952.48 3485.1 1912.24 3475.55C1906.87 3474.27 1901.47 3473.04 1896.04 3471.8C1859.41 3463.46 1822.09 3454.96 1792.76 3432.35C1788.72 3429.24 1784.88 3425.92 1781.22 3422.44C1758.83 3440.94 1735.26 3457.64 1707.89 3467.52C1675.2 3479.32 1640.11 3478.64 1605.07 3477.97H1605.07H1605.06H1605.06H1605.05C1595.38 3477.78 1585.72 3477.59 1576.12 3477.67C1534.72 3478 1493.93 3477.08 1453.25 3469.53C1447.83 3468.52 1442.36 3467.56 1436.88 3466.6C1399.87 3460.08 1362.16 3453.43 1331.71 3432.3C1304.59 3413.49 1285.59 3386.05 1269.12 3357.32C1259.6 3365.24 1248.95 3371.63 1236.5 3375.65C1184.95 3392.31 1125.2 3406.12 1075.37 3385.01C1048.57 3373.65 1033.09 3347.77 1017.56 3321.81C1002.52 3296.67 987.438 3271.45 961.993 3259.34C937.781 3247.81 909.298 3252.54 881.019 3257.24C850.571 3262.3 820.36 3267.32 795.97 3251.96C763.927 3231.78 753.677 3192.84 743.607 3154.59C739.973 3140.78 736.363 3127.07 731.76 3114.35C728.544 3105.47 725.087 3096.59 721.623 3087.69L721.623 3087.68L721.622 3087.68L721.621 3087.68L721.62 3087.68C713.731 3067.4 705.804 3047.03 700.594 3026.33C684.501 3028.41 668.377 3028.77 652.295 3026.03C610.103 3018.85 573.839 2993.01 539.554 2967.8C506.702 2943.65 478.147 2914.56 455.21 2881.12C444.614 2865.68 438.699 2847.87 432.798 2830.09C426.255 2810.38 419.728 2790.72 406.854 2774.4C391.415 2754.82 368.279 2740.46 345.47 2726.3C312.011 2705.54 279.254 2685.21 272.522 2649.48C267.802 2624.43 281.417 2603.41 299.68 2583.15C269.686 2567.63 240.703 2550.95 213.885 2530.31C209.539 2526.97 205.136 2523.64 200.721 2520.31C170.904 2497.8 140.528 2474.87 123.369 2442.34C103.66 2404.99 102.659 2360.98 102.342 2318.9C102.076 2283.52 106.892 2248.43 117.003 2214.58C114.062 2212.34 111.102 2210.1 108.136 2207.86C78.3187 2185.35 47.9429 2162.42 30.7834 2129.9C11.0742 2092.54 10.0734 2048.53 9.75656 2006.46C9.45298 1966.14 15.7512 1926.19 28.9622 1888.02C35.065 1870.39 45.9224 1854.98 56.7556 1839.61C68.7668 1822.57 80.7482 1805.56 86.186 1785.62C92.7078 1761.69 90.3457 1734.9 88.0169 1708.49C87.2881 1700.22 86.5625 1691.99 86.1135 1683.9C79.3982 1675.98 73.437 1667.49 68.5485 1658.23C48.8393 1620.87 47.8385 1576.86 47.5217 1534.79C47.2181 1494.47 53.5164 1454.53 66.7273 1416.35C72.8301 1398.72 83.6876 1383.31 94.5207 1367.94C106.532 1350.9 118.513 1333.9 123.951 1313.95C130.473 1290.02 128.111 1263.24 125.782 1236.82C122.366 1198.08 119.022 1160.15 143.895 1133.27C151.489 1125.06 160.566 1120.04 170.662 1117.15C173.486 1104.6 177.009 1092.19 181.241 1079.96C187.344 1062.33 198.201 1046.92 209.034 1031.55C221.046 1014.51 233.027 997.507 238.465 977.558C244.478 955.5 245.058 934.58 245.61 914.668C246.535 881.304 247.382 850.77 273.578 822.46C293.081 801.383 318.013 793.945 345.175 790.281C344.765 764.743 348.548 741.1 365.613 722.658C372.909 714.774 381.574 709.827 391.196 706.888C384.718 683.187 382.235 659.378 389.16 635.107C402.733 587.539 436.837 566.993 477.102 542.735C485.083 537.927 493.307 532.972 501.661 527.633C521.092 515.212 542.534 507.098 563.973 498.985C585.641 490.785 607.305 482.587 626.886 469.945C644.805 458.377 659.418 442.63 673.952 426.968C692.632 406.839 711.181 386.851 736.449 376.053C772.217 360.769 811.662 351.971 850.728 352.398L852.228 351.524C872.196 339.881 892.161 328.239 909.317 312.56C925.016 298.211 936.745 280.286 948.411 262.457L948.412 262.457C963.405 239.544 978.294 216.79 1001.37 201.994C1030.46 183.344 1063.3 169.286 1097.39 162.197C1111.26 156.306 1127.23 152.33 1143.33 148.32C1164.52 143.042 1185.94 137.707 1203.12 127.869C1234.34 109.997 1265.24 100.676 1297.6 90.9128C1312.03 86.5593 1326.75 82.118 1341.92 76.7916C1358.53 70.9584 1374.54 62.6711 1390.43 54.4489C1423.3 37.4346 1455.64 20.6988 1491.65 26.5643C1523.78 31.7962 1558.04 39.2833 1587.69 53.3823ZM1491.66 1424.61C1488.21 1429.4 1496.53 1430.48 1557.44 1396.48C1603.86 1370.57 1614.51 1352.67 1621.68 1340.61C1626.28 1332.89 1629.45 1327.56 1639.67 1324.05C1654.03 1319.13 1666.38 1324.1 1680.03 1329.6C1691.27 1334.13 1703.39 1339.02 1718.25 1339.02C1737.04 1339.02 1749.27 1330.42 1761.98 1321.49C1771.52 1314.79 1781.33 1307.89 1794.39 1304.3C1813.57 1299.02 1831.06 1309.18 1850.66 1320.56C1862.18 1327.25 1874.44 1334.36 1888.19 1339.02C1906.13 1345.09 1920.38 1338.31 1934.99 1331.37C1950.63 1323.94 1966.67 1316.31 1988.08 1324.05C2010.1 1332 2013.7 1344.01 2017.82 1357.74C2021.46 1369.85 2025.49 1383.3 2042.9 1396.48C2059.8 1409.27 2079.71 1406.96 2097.84 1404.86C2119.59 1402.35 2138.76 1400.13 2147.06 1424.61C2153.34 1443.13 2154.44 1456.86 2155.41 1468.87C2156.78 1485.98 2157.87 1499.6 2173.25 1518.59C2186.53 1534.96 2203.24 1538.43 2218.16 1541.53C2232.69 1544.54 2245.52 1547.21 2251.83 1561.08C2257.6 1573.77 2250.24 1587.67 2242.2 1602.85C2232.42 1621.33 2221.64 1641.69 2232.34 1664.04C2240.68 1681.46 2254.5 1687.81 2267.09 1693.59C2283.91 1701.32 2298.56 1708.05 2295.08 1738.86C2291.95 1766.54 2275.46 1776.52 2260.18 1785.77C2245.72 1794.53 2232.34 1802.63 2232.34 1824.45C2232.34 1848.84 2238.09 1866.52 2243.35 1882.66C2247.77 1896.23 2251.83 1908.72 2251.83 1923.21C2251.83 1941.31 2234.78 1949.08 2215.28 1957.98C2200.59 1964.68 2184.51 1972.01 2173.25 1984.87C2157.57 2002.79 2159.14 2022.42 2160.57 2040.31C2161.53 2052.29 2162.43 2063.49 2158.03 2072.85C2152.54 2084.53 2137.47 2084.53 2118.82 2084.53C2100.16 2084.53 2077.93 2084.53 2058.13 2096.2C2037.44 2108.4 2032.39 2125.33 2027.93 2140.26C2023.86 2153.91 2020.29 2165.87 2005.75 2171.02C1988.69 2177.05 1972.2 2171.63 1954.15 2165.7C1939.97 2161.03 1924.83 2156.05 1907.68 2156.05C1890.26 2156.05 1881.6 2167.65 1872.45 2179.88C1861.13 2195.03 1849.07 2211.17 1818.75 2207.53C1790.22 2204.1 1784.95 2195.49 1778.73 2185.31C1773 2175.94 1766.46 2165.24 1740.17 2156.05C1711.12 2145.9 1696.78 2154.92 1683.28 2163.41C1671.31 2170.94 1659.99 2178.05 1639.67 2171.02C1616.42 2162.97 1611.13 2148.7 1605.52 2133.59C1600.71 2120.6 1595.66 2106.99 1578.76 2096.2C1561.79 2085.36 1546.4 2086.52 1531.55 2087.64C1514.41 2088.93 1497.99 2090.17 1480.69 2072.85C1463.87 2056.02 1467.39 2042.1 1471 2027.81C1474.32 2014.67 1477.72 2001.21 1465.46 1984.87C1454.63 1970.41 1439.74 1966.38 1425.86 1962.62C1406.98 1957.5 1389.95 1952.88 1387.5 1923.21C1385.55 1899.74 1392.48 1892.82 1398.97 1886.33C1406.71 1878.6 1413.83 1871.48 1404.55 1837.62C1395.72 1805.38 1383.29 1796.26 1373.36 1788.97C1364.12 1782.19 1357.04 1776.99 1357.04 1756.21C1357.04 1735.17 1368.37 1723.97 1379.97 1712.51C1392.12 1700.51 1404.55 1688.23 1404.55 1664.04C1404.55 1643.47 1398.1 1629.36 1392.21 1616.48C1384.56 1599.75 1377.86 1585.1 1387.5 1561.08C1395.9 1540.15 1408.59 1540.42 1422.43 1540.72C1436.69 1541.03 1452.17 1541.36 1465.46 1518.59C1477.83 1497.38 1476.89 1485.53 1475.98 1474.06C1474.96 1461.25 1473.98 1448.93 1491.66 1424.61Z" fill="#F3A3C8"/>
<path d="M1668.91 14.4008L1668.64 12.9254L1668.91 14.4008ZM1587.69 53.3823L1587.04 54.7369L1587.92 55.1536L1588.66 54.5252L1587.69 53.3823ZM1795.12 25.0652L1794.8 26.5296L1795.12 25.0652ZM1821.55 30.7764L1821.25 32.2461L1821.55 30.7764ZM1933.45 36.7969L1933.57 38.292L1933.45 36.7969ZM2004.72 19.3671L2005.19 20.7929L2004.72 19.3671ZM2115.43 6.91124L2115.9 5.48771V5.4877L2115.43 6.91124ZM2202.72 85.6444L2201.43 86.4023L2202.02 87.4157L2203.15 87.0829L2202.72 85.6444ZM2282.42 76.6655L2282.38 75.1661L2282.42 76.6655ZM2329.22 73.9905L2329.05 72.5L2329.22 73.9905ZM2454.86 89.1869L2455.55 87.8516L2454.86 89.1869ZM2547.53 174.058L2548.69 173.1V173.1L2547.53 174.058ZM2558.79 187.56L2557.65 188.526L2557.95 188.887L2558.41 189.009L2558.79 187.56ZM2617.67 201.425L2617.34 202.89L2617.67 201.425ZM2718.42 229.279L2719.01 227.9L2718.42 229.279ZM2773.19 271.971L2774.26 270.912L2773.19 271.971ZM2828.32 314.801L2828.9 313.419L2828.32 314.801ZM2855.76 325.938L2856.31 324.542L2855.76 325.938ZM2912.61 355.748L2913.42 354.484L2912.61 355.748ZM2991.87 422.152L2990.69 423.077L2990.82 423.247L2990.99 423.372L2991.87 422.152ZM3149.72 606.042L3148.42 606.785L3148.53 606.986L3148.7 607.143L3149.72 606.042ZM3182.85 634.447L3183.8 633.288L3182.85 634.447ZM3246.06 694.724L3244.91 695.684L3246.06 694.724ZM3282.36 736.98L3283.49 735.994L3282.36 736.98ZM3364.07 839.386L3362.83 840.218L3364.07 839.386ZM3428.41 1002.4L3426.91 1002.42L3428.41 1002.4ZM3436.38 1044.5L3434.96 1044.98L3435.12 1045.47L3435.56 1045.76L3436.38 1044.5ZM3494.37 1155.32L3495.82 1154.94V1154.94L3494.37 1155.32ZM3507.39 1200.13L3508.81 1199.63L3507.39 1200.13ZM3520.73 1266.45L3522.22 1266.26L3520.73 1266.45ZM3534.31 1333.44L3532.9 1333.95L3534.31 1333.44ZM3565.46 1388.66L3566.7 1387.81L3565.46 1388.66ZM3600.75 1460.5L3599.27 1460.75L3600.75 1460.5ZM3599.74 1562.1L3598.27 1561.8L3598.06 1562.83L3598.95 1563.38L3599.74 1562.1ZM3617.79 1577.97L3618.96 1577.03L3617.79 1577.97ZM3633.03 1706.98L3631.54 1706.78L3633.03 1706.98ZM3628.03 1753.33L3629.53 1753.4V1753.4L3628.03 1753.33ZM3615.12 1819.73L3613.68 1819.34L3615.12 1819.73ZM3602.19 1886.84L3600.69 1886.77L3602.19 1886.84ZM3610.04 1949.5L3611.51 1949.19L3610.04 1949.5ZM3615.39 2029.1L3616.85 2029.43L3615.39 2029.1ZM3540.13 2164.65L3541.15 2165.76L3540.13 2164.65ZM3530.28 2173.27L3529.32 2172.12L3528.75 2172.59L3528.78 2173.33L3530.28 2173.27ZM3538.16 2224.84L3539.63 2224.53L3538.16 2224.84ZM3543.51 2304.44L3544.98 2304.77L3543.51 2304.44ZM3472.81 2435.69L3471.76 2434.62L3471.59 2434.79L3471.47 2435.01L3472.81 2435.69ZM3417.06 2487.91L3416.22 2486.67L3417.06 2487.91ZM3370.63 2525.46L3369.49 2524.48L3370.63 2525.46ZM3315.11 2613.81L3316.48 2614.43L3315.11 2613.81ZM3297.67 2679.39L3296.19 2679.12L3296.19 2679.13L3296.19 2679.14L3297.67 2679.39ZM3297.66 2679.4L3296.19 2679.15L3296.16 2679.27V2679.4H3297.66ZM3297.66 2679.4L3299.14 2679.67L3299.16 2679.54V2679.4H3297.66ZM3286.58 2727.93L3285.16 2727.47L3285.05 2727.79L3285.1 2728.12L3286.58 2727.93ZM3286.39 2746.54L3287.88 2746.76L3286.39 2746.54ZM3201.38 2845.99L3202.22 2847.24L3202.23 2847.23L3202.25 2847.21L3201.38 2845.99ZM3201.38 2846L3200.54 2844.75L3200.53 2844.76L3200.51 2844.77L3201.38 2846ZM3163.66 2874.23L3164.62 2875.38L3163.66 2874.23ZM3105.66 2910.59L3106.37 2911.92L3105.66 2910.59ZM3047.12 2947.42L3046.15 2946.28L3047.12 2947.42ZM3036.46 2957.48L3035.37 2956.44L3035.26 2956.56L3035.18 2956.69L3036.46 2957.48ZM3006.14 2996.04L3005.04 2995.02L3004.97 2995.09L3004.91 2995.18L3006.14 2996.04ZM3006.14 2996.04L3007.36 2996.91L3007.37 2996.9L3006.14 2996.04ZM2959.42 3048.9L2958.54 3047.69L2958.35 3047.83L2958.21 3048.02L2959.42 3048.9ZM2950.51 3062.28L2951.8 3063.06L2950.51 3062.28ZM2927.48 3121.22L2928.92 3121.65L2927.48 3121.22ZM2894.14 3193.96L2895.28 3194.94L2894.14 3193.96ZM2762.9 3278.87L2763.28 3280.32L2762.9 3278.87ZM2714.52 3287.21L2714.4 3285.72L2714.01 3285.75L2713.68 3285.97L2714.52 3287.21ZM2638.58 3305.76L2638.7 3307.25L2638.58 3305.76ZM2579.28 3315.46L2579.77 3316.87L2579.28 3315.46ZM2486.24 3364.7L2485.36 3363.48L2486.24 3364.7ZM2437.76 3412.92L2438.9 3413.9L2437.76 3412.92ZM2355.05 3476.23L2354.72 3474.77L2355.05 3476.23ZM2234.66 3450.26L2235.41 3448.96L2234.57 3448.48L2233.79 3449.04L2234.66 3450.26ZM2166.66 3486.13L2167.1 3487.56L2166.66 3486.13ZM2063.44 3491.48L2063.34 3492.98L2063.44 3491.48ZM2034.54 3489.75L2034.48 3491.25L2034.54 3489.75ZM1912.24 3475.55L1912.59 3474.09L1912.24 3475.55ZM1896.04 3471.8L1896.38 3470.34L1896.04 3471.8ZM1792.76 3432.35L1793.68 3431.17L1792.76 3432.35ZM1781.22 3422.44L1782.26 3421.35L1781.29 3420.43L1780.27 3421.28L1781.22 3422.44ZM1707.89 3467.52L1708.4 3468.93L1707.89 3467.52ZM1605.07 3477.97L1605.1 3476.47L1605.09 3476.47H1605.07V3477.97ZM1605.05 3477.97L1605.02 3479.46L1605.03 3479.47H1605.05V3477.97ZM1576.12 3477.67L1576.13 3479.17L1576.12 3477.67ZM1453.25 3469.53L1453.52 3468.06L1453.25 3469.53ZM1436.88 3466.6L1436.62 3468.07L1436.88 3466.6ZM1331.71 3432.3L1332.56 3431.07L1331.71 3432.3ZM1269.12 3357.32L1270.42 3356.57L1269.53 3355.02L1268.16 3356.17L1269.12 3357.32ZM1236.5 3375.65L1236.04 3374.22L1236.5 3375.65ZM1075.37 3385.01L1074.78 3386.39L1075.37 3385.01ZM1017.56 3321.81L1016.27 3322.58L1017.56 3321.81ZM961.993 3259.34L961.348 3260.69L961.993 3259.34ZM881.019 3257.24L880.773 3255.76L881.019 3257.24ZM795.97 3251.96L796.769 3250.69L795.97 3251.96ZM743.607 3154.59L742.156 3154.97L743.607 3154.59ZM731.76 3114.35L733.171 3113.84L731.76 3114.35ZM721.623 3087.69L720.2 3088.16L720.212 3088.2L720.226 3088.23L721.623 3087.69ZM721.62 3087.68L723.044 3087.2L723.032 3087.17L723.018 3087.13L721.62 3087.68ZM700.594 3026.33L702.048 3025.96L701.723 3024.67L700.401 3024.84L700.594 3026.33ZM652.295 3026.03L652.043 3027.51H652.043L652.295 3026.03ZM539.554 2967.8L540.443 2966.6L539.554 2967.8ZM455.21 2881.12L453.973 2881.97L455.21 2881.12ZM432.798 2830.09L434.222 2829.62L432.798 2830.09ZM406.854 2774.4L408.032 2773.47L406.854 2774.4ZM345.47 2726.3L344.679 2727.58L345.47 2726.3ZM272.522 2649.48L273.996 2649.2L272.522 2649.48ZM299.68 2583.15L300.794 2584.16L302.095 2582.71L300.369 2581.82L299.68 2583.15ZM213.885 2530.31L212.97 2531.5H212.97L213.885 2530.31ZM200.721 2520.31L199.817 2521.51H199.817L200.721 2520.31ZM123.369 2442.34L124.695 2441.64H124.695L123.369 2442.34ZM102.342 2318.9L103.842 2318.89L102.342 2318.9ZM117.003 2214.58L118.44 2215.01L118.737 2214.01L117.911 2213.38L117.003 2214.58ZM108.136 2207.86L107.233 2209.06H107.233L108.136 2207.86ZM30.7834 2129.9L32.11 2129.2L30.7834 2129.9ZM9.75656 2006.46L11.2565 2006.44L9.75656 2006.46ZM28.9622 1888.02L30.3797 1888.51L28.9622 1888.02ZM56.7556 1839.61L55.5294 1838.74L56.7556 1839.61ZM86.186 1785.62L87.6332 1786.01L86.186 1785.62ZM88.0169 1708.49L86.5227 1708.62L88.0169 1708.49ZM86.1135 1683.9L87.6112 1683.82L87.5833 1683.32L87.2577 1682.93L86.1135 1683.9ZM68.5485 1658.23L69.8751 1657.53L68.5485 1658.23ZM47.5217 1534.79L46.0217 1534.8L47.5217 1534.79ZM66.7273 1416.35L68.1448 1416.84L66.7273 1416.35ZM94.5207 1367.94L93.2946 1367.08L94.5207 1367.94ZM123.951 1313.95L125.398 1314.34L123.951 1313.95ZM125.782 1236.82L127.276 1236.69L125.782 1236.82ZM143.895 1133.27L144.996 1134.29L143.895 1133.27ZM170.662 1117.15L171.075 1118.59L171.93 1118.35L172.126 1117.48L170.662 1117.15ZM181.241 1079.96L182.658 1080.45L181.241 1079.96ZM209.034 1031.55L210.26 1032.42L209.034 1031.55ZM238.465 977.558L237.018 977.164L238.465 977.558ZM245.61 914.668L247.109 914.71L245.61 914.668ZM273.578 822.46L272.477 821.441L273.578 822.46ZM345.175 790.281L345.375 791.767L346.696 791.589L346.674 790.257L345.175 790.281ZM365.613 722.658L364.512 721.639L365.613 722.658ZM391.196 706.888L391.634 708.322L393.027 707.897L392.643 706.492L391.196 706.888ZM389.16 635.107L387.718 634.695L389.16 635.107ZM477.102 542.735L476.327 541.451L477.102 542.735ZM501.661 527.633L500.853 526.369L501.661 527.633ZM563.973 498.985L563.442 497.582H563.442L563.973 498.985ZM626.886 469.945L626.073 468.685L626.886 469.945ZM673.952 426.968L672.853 425.948L673.952 426.968ZM736.449 376.053L737.038 377.433L736.449 376.053ZM850.728 352.398L850.712 353.898L851.126 353.902L851.484 353.694L850.728 352.398ZM852.228 351.524L851.472 350.228L851.472 350.228L852.228 351.524ZM909.317 312.56L908.305 311.452L909.317 312.56ZM948.411 262.457L947.24 261.52L947.195 261.576L947.156 261.636L948.411 262.457ZM948.412 262.457L949.583 263.394L949.628 263.338L949.667 263.278L948.412 262.457ZM1001.37 201.994L1002.18 203.257H1002.18L1001.37 201.994ZM1097.39 162.197L1097.7 163.666L1097.84 163.636L1097.98 163.578L1097.39 162.197ZM1143.33 148.32L1142.96 146.865L1143.33 148.32ZM1203.12 127.869L1203.87 129.171L1203.12 127.869ZM1297.6 90.9128L1297.16 89.4767L1297.6 90.9128ZM1341.92 76.7916L1342.42 78.2069L1341.92 76.7916ZM1390.43 54.4489L1391.12 55.7811L1390.43 54.4489ZM1491.65 26.5643L1491.9 25.0838L1491.65 26.5643ZM1557.44 1396.48L1556.71 1395.17L1557.44 1396.48ZM1491.66 1424.61L1492.87 1425.49L1490.44 1423.73L1491.66 1424.61ZM1621.68 1340.61L1620.39 1339.84L1621.68 1340.61ZM1639.67 1324.05L1639.18 1322.63L1639.67 1324.05ZM1680.03 1329.6L1680.59 1328.21L1680.03 1329.6ZM1761.98 1321.49L1762.84 1322.72L1761.98 1321.49ZM1794.39 1304.3L1794.78 1305.75V1305.75L1794.39 1304.3ZM1850.66 1320.56L1849.91 1321.86V1321.86L1850.66 1320.56ZM1888.19 1339.02L1888.67 1337.59L1888.19 1339.02ZM1934.99 1331.37L1935.63 1332.73L1934.99 1331.37ZM1988.08 1324.05L1987.57 1325.46L1988.08 1324.05ZM2017.82 1357.74L2016.39 1358.17L2017.82 1357.74ZM2042.9 1396.48L2042 1397.67L2042.9 1396.48ZM2097.84 1404.86L2097.67 1403.37L2097.84 1404.86ZM2147.06 1424.61L2145.64 1425.09L2147.06 1424.61ZM2155.41 1468.87L2156.9 1468.75L2155.41 1468.87ZM2173.25 1518.59L2174.42 1517.64L2173.25 1518.59ZM2218.16 1541.53L2218.47 1540.06L2218.16 1541.53ZM2251.83 1561.08L2250.47 1561.7L2251.83 1561.08ZM2242.2 1602.85L2243.53 1603.55L2242.2 1602.85ZM2232.34 1664.04L2233.69 1663.39L2232.34 1664.04ZM2267.09 1693.59L2266.46 1694.95L2267.09 1693.59ZM2295.08 1738.86L2293.59 1738.69L2295.08 1738.86ZM2260.18 1785.77L2259.4 1784.49L2260.18 1785.77ZM2243.35 1882.66L2241.92 1883.13L2243.35 1882.66ZM2215.28 1957.98L2214.65 1956.61L2215.28 1957.98ZM2173.25 1984.87L2174.38 1985.85L2173.25 1984.87ZM2160.57 2040.31L2162.07 2040.19L2160.57 2040.31ZM2158.03 2072.85L2159.38 2073.49L2158.03 2072.85ZM2058.13 2096.2L2058.89 2097.49L2058.13 2096.2ZM2027.93 2140.26L2026.5 2139.83L2027.93 2140.26ZM2005.75 2171.02L2006.25 2172.43L2005.75 2171.02ZM1954.15 2165.7L1954.62 2164.27L1954.15 2165.7ZM1872.45 2179.88L1871.25 2178.99H1871.25L1872.45 2179.88ZM1818.75 2207.53L1818.57 2209.02L1818.75 2207.53ZM1778.73 2185.31L1780.01 2184.53L1778.73 2185.31ZM1740.17 2156.05L1739.68 2157.47L1740.17 2156.05ZM1683.28 2163.41L1684.07 2164.68L1683.28 2163.41ZM1639.67 2171.02L1639.18 2172.44L1639.67 2171.02ZM1605.52 2133.59L1606.93 2133.07L1605.52 2133.59ZM1578.76 2096.2L1579.57 2094.93H1579.57L1578.76 2096.2ZM1531.55 2087.64L1531.43 2086.14L1531.55 2087.64ZM1480.69 2072.85L1479.63 2073.91L1480.69 2072.85ZM1471 2027.81L1472.45 2028.18L1471 2027.81ZM1465.46 1984.87L1466.66 1983.97L1465.46 1984.87ZM1425.86 1962.62L1425.47 1964.06L1425.86 1962.62ZM1387.5 1923.21L1388.99 1923.09L1387.5 1923.21ZM1398.97 1886.33L1397.9 1885.27L1398.97 1886.33ZM1404.55 1837.62L1403.11 1838.02L1404.55 1837.62ZM1373.36 1788.97L1374.25 1787.76L1373.36 1788.97ZM1379.97 1712.51L1378.92 1711.45L1379.97 1712.51ZM1392.21 1616.48L1390.84 1617.1L1392.21 1616.48ZM1387.5 1561.08L1388.89 1561.64L1387.5 1561.08ZM1422.43 1540.72L1422.4 1542.22L1422.43 1540.72ZM1465.46 1518.59L1464.17 1517.83L1465.46 1518.59ZM1475.98 1474.06L1474.48 1474.18L1475.98 1474.06ZM1668.64 12.9254C1632.69 19.5059 1610.15 32.3218 1586.72 52.2393L1588.66 54.5252C1611.76 34.8926 1633.83 22.3477 1669.18 15.8763L1668.64 12.9254ZM1795.45 23.6009C1753.43 14.2713 1711.84 5.01641 1668.64 12.9254L1669.18 15.8763C1711.69 8.09447 1752.68 17.1779 1794.8 26.5296L1795.45 23.6009ZM1821.85 29.3068C1813.01 27.5003 1804.22 25.5485 1795.45 23.6009L1794.8 26.5296C1803.56 28.4763 1812.38 30.4336 1821.25 32.2461L1821.85 29.3068ZM1933.33 35.3018C1895.75 38.3541 1858.61 36.8183 1821.85 29.3068L1821.25 32.2461C1858.33 39.8217 1895.75 41.3639 1933.57 38.292L1933.33 35.3018ZM2004.26 17.9413C1980.62 25.6652 1956.99 33.3807 1933.33 35.3018L1933.57 38.292C1957.65 36.3371 1981.62 28.4943 2005.19 20.7929L2004.26 17.9413ZM2115.9 5.4877C2079.35 -6.65403 2041.75 5.68664 2004.26 17.9413L2005.19 20.7929C2042.91 8.46457 2079.5 -3.43987 2114.96 8.33477L2115.9 5.4877ZM2204.02 84.8865C2183.18 49.2994 2153.98 18.1362 2115.9 5.48771L2114.96 8.33477C2152.07 20.663 2180.78 51.1405 2201.43 86.4023L2204.02 84.8865ZM2282.38 75.1661C2255 75.9946 2227.28 76.8243 2202.3 84.2059L2203.15 87.0829C2227.69 79.8312 2255 78.9959 2282.47 78.1648L2282.38 75.1661ZM2329.05 72.5C2313.92 74.2108 2298.2 74.6873 2282.38 75.1661L2282.47 78.1648C2298.27 77.6867 2314.11 77.2081 2329.39 75.481L2329.05 72.5ZM2455.55 87.8516C2410.96 65.0246 2378.95 66.8605 2329.05 72.5L2329.39 75.481C2379.15 69.8561 2410.41 68.1162 2454.18 90.5221L2455.55 87.8516ZM2548.69 173.1C2521.47 140.299 2494.53 107.808 2455.55 87.8516L2454.18 90.5221C2492.53 110.153 2519.09 142.137 2546.38 175.016L2548.69 173.1ZM2559.94 186.593C2556.16 182.107 2552.42 177.6 2548.69 173.1L2546.38 175.016C2550.11 179.515 2553.86 184.03 2557.65 188.526L2559.94 186.593ZM2617.99 199.96C2598 195.559 2577.94 191.142 2559.18 186.111L2558.41 189.009C2577.24 194.061 2597.37 198.492 2617.34 202.89L2617.99 199.96ZM2719.01 227.9C2691.48 216.137 2654.82 208.069 2617.99 199.96L2617.34 202.89C2654.26 211.019 2690.62 219.031 2717.83 230.659L2719.01 227.9ZM2774.26 270.912C2757.57 254.163 2740.63 237.143 2719.01 227.9L2717.83 230.659C2738.82 239.633 2755.36 256.198 2772.13 273.03L2774.26 270.912ZM2828.9 313.419C2807.74 304.49 2791.12 287.838 2774.26 270.912L2772.13 273.03C2788.92 289.872 2805.94 306.985 2827.73 316.183L2828.9 313.419ZM2856.31 324.542C2849.32 321.79 2840.73 318.41 2828.9 313.419L2827.73 316.183C2839.59 321.189 2848.21 324.58 2855.21 327.334L2856.31 324.542ZM2913.42 354.484C2883.08 335.085 2876 332.29 2856.31 324.542L2855.21 327.334C2874.72 335.01 2881.63 337.718 2911.81 357.012L2913.42 354.484ZM2993.05 421.227C2972.08 394.461 2944.22 374.171 2913.42 354.484L2911.81 357.012C2942.54 376.661 2970.05 396.729 2990.69 423.077L2993.05 421.227ZM3151.02 605.3C3109.39 532.182 3058.38 467.805 2992.74 420.931L2990.99 423.372C3056.17 469.918 3106.92 533.911 3148.42 606.785L3151.02 605.3ZM3183.8 633.288C3172.94 624.362 3162.01 615.387 3150.74 604.942L3148.7 607.143C3160.05 617.657 3171.04 626.686 3181.9 635.606L3183.8 633.288ZM3247.22 693.765C3225.17 667.28 3204.61 650.391 3183.8 633.288L3181.9 635.606C3202.71 652.705 3223.07 669.438 3244.91 695.684L3247.22 693.765ZM3283.49 735.994C3271.36 722.092 3259.18 708.146 3247.22 693.765L3244.91 695.684C3256.9 710.097 3269.1 724.069 3281.23 737.966L3283.49 735.994ZM3365.32 838.554C3340.51 801.328 3312.1 768.784 3283.49 735.994L3281.23 737.966C3309.86 770.778 3338.14 803.179 3362.83 840.218L3365.32 838.554ZM3429.91 1002.39C3429.34 943.39 3398 887.568 3365.32 838.554L3362.83 840.218C3395.49 889.213 3426.34 944.382 3426.91 1002.42L3429.91 1002.39ZM3437.8 1044.02C3433.35 1030.84 3430.06 1017.13 3429.91 1002.39L3426.91 1002.42C3427.06 1017.59 3430.45 1031.64 3434.96 1044.98L3437.8 1044.02ZM3495.82 1154.94C3490.15 1133.26 3484.37 1111.17 3475.61 1091.62C3466.83 1072.06 3455.02 1054.94 3437.2 1043.25L3435.56 1045.76C3452.73 1057.02 3464.23 1073.6 3472.87 1092.85C3481.51 1112.13 3487.23 1133.97 3492.92 1155.7L3495.82 1154.94ZM3508.81 1199.63C3503.84 1185.57 3499.86 1170.35 3495.82 1154.94L3492.92 1155.7C3496.95 1171.09 3500.96 1186.42 3505.98 1200.63L3508.81 1199.63ZM3522.22 1266.26C3519.36 1243.89 3516.47 1221.33 3508.81 1199.63L3505.98 1200.63C3513.52 1221.97 3516.37 1244.22 3519.24 1266.64L3522.22 1266.26ZM3535.72 1332.93C3528 1311.4 3525.12 1288.93 3522.22 1266.26L3519.24 1266.64C3522.14 1289.25 3525.05 1312.05 3532.9 1333.95L3535.72 1332.93ZM3566.7 1387.81C3554.7 1370.16 3542.77 1352.59 3535.72 1332.93L3532.9 1333.95C3540.1 1354.03 3552.26 1371.9 3564.22 1389.5L3566.7 1387.81ZM3602.23 1460.25C3597.57 1433.17 3582.07 1410.41 3566.7 1387.81L3564.22 1389.5C3579.66 1412.2 3594.74 1434.43 3599.27 1460.75L3602.23 1460.25ZM3601.21 1562.41C3608.07 1528.9 3608.01 1493.8 3602.23 1460.25L3599.27 1460.75C3605 1493.98 3605.05 1528.69 3598.27 1561.8L3601.21 1562.41ZM3618.96 1577.03C3613.58 1570.38 3607.38 1565.08 3600.53 1560.83L3598.95 1563.38C3605.53 1567.47 3611.48 1572.54 3616.62 1578.91L3618.96 1577.03ZM3634.51 1707.18C3637.66 1683.91 3640.87 1660.17 3639.76 1637.91C3638.66 1615.62 3633.22 1594.67 3618.96 1577.03L3616.62 1578.91C3630.35 1595.9 3635.68 1616.16 3636.77 1638.06C3637.86 1660 3634.69 1683.45 3631.54 1706.78L3634.51 1707.18ZM3629.53 1753.4C3630.28 1738.53 3632.38 1722.96 3634.51 1707.18L3631.54 1706.78C3629.41 1722.53 3627.29 1738.23 3626.53 1753.25L3629.53 1753.4ZM3616.57 1820.12C3622.44 1798.32 3628.37 1776.34 3629.53 1753.4L3626.53 1753.25C3625.39 1775.82 3619.56 1797.49 3613.68 1819.34L3616.57 1820.12ZM3603.69 1886.91C3604.74 1864.1 3610.63 1842.2 3616.57 1820.12L3613.68 1819.34C3607.74 1841.37 3601.76 1863.58 3600.69 1886.77L3603.69 1886.91ZM3611.51 1949.19C3607.11 1928.41 3602.74 1907.73 3603.69 1886.91L3600.69 1886.77C3599.72 1908.04 3604.19 1929.1 3608.57 1949.81L3611.51 1949.19ZM3616.85 2029.43C3622.84 2002.61 3617.14 1975.8 3611.51 1949.19L3608.57 1949.81C3614.23 1976.54 3619.75 2002.7 3613.92 2028.78L3616.85 2029.43ZM3541.15 2165.76C3580.13 2130.01 3605.44 2080.5 3616.85 2029.43L3613.92 2028.78C3602.62 2079.36 3577.57 2128.28 3539.12 2163.55L3541.15 2165.76ZM3531.24 2174.42C3534.62 2171.6 3537.92 2168.71 3541.15 2165.76L3539.12 2163.55C3535.93 2166.47 3532.66 2169.33 3529.32 2172.12L3531.24 2174.42ZM3539.63 2224.53C3536.01 2207.41 3532.4 2190.36 3531.78 2173.22L3528.78 2173.33C3529.41 2190.77 3533.08 2208.07 3536.7 2225.15L3539.63 2224.53ZM3544.98 2304.77C3550.97 2277.95 3545.27 2251.14 3539.63 2224.53L3536.7 2225.15C3542.36 2251.88 3547.87 2278.04 3542.05 2304.11L3544.98 2304.77ZM3473.85 2436.77C3510.24 2401.41 3534.02 2353.81 3544.98 2304.77L3542.05 2304.11C3531.2 2352.69 3507.66 2399.73 3471.76 2434.62L3473.85 2436.77ZM3417.9 2489.16C3440.16 2474.11 3462.58 2459 3474.14 2436.37L3471.47 2435.01C3460.33 2456.82 3438.64 2471.52 3416.22 2486.67L3417.9 2489.16ZM3371.77 2526.44C3384.31 2511.87 3401.08 2500.52 3417.9 2489.16L3416.22 2486.67C3399.47 2497.99 3382.34 2509.55 3369.49 2524.48L3371.77 2526.44ZM3316.48 2614.43C3330.85 2582.54 3348.87 2553.03 3371.77 2526.44L3369.49 2524.48C3346.39 2551.32 3328.21 2581.08 3313.74 2613.19L3316.48 2614.43ZM3299.14 2679.66C3303.29 2657.06 3307.44 2634.48 3316.48 2614.43L3313.74 2613.19C3304.53 2633.64 3300.33 2656.59 3296.19 2679.12L3299.14 2679.66ZM3299.14 2679.64L3299.15 2679.64L3296.19 2679.14L3296.19 2679.15L3299.14 2679.64ZM3299.16 2679.4V2679.4H3296.16V2679.4H3299.16ZM3288.01 2728.4C3293.04 2712.94 3296.09 2696.3 3299.14 2679.67L3296.19 2679.13C3293.13 2695.79 3290.11 2712.23 3285.16 2727.47L3288.01 2728.4ZM3287.88 2746.76C3288.83 2740.24 3288.84 2733.91 3288.07 2727.75L3285.1 2728.12C3285.83 2734.02 3285.83 2740.08 3284.91 2746.33L3287.88 2746.76ZM3202.25 2847.21C3221.63 2833.49 3241.4 2819.49 3257.11 2803.42C3272.84 2787.34 3284.61 2769.07 3287.88 2746.76L3284.91 2746.33C3281.76 2767.8 3270.43 2785.51 3254.96 2801.33C3239.48 2817.17 3219.95 2831 3200.52 2844.77L3202.25 2847.21ZM3202.21 2847.24L3202.22 2847.24L3200.55 2844.74L3200.55 2844.75L3202.21 2847.24ZM3202.21 2847.24L3202.21 2847.24L3200.55 2844.75L3200.54 2844.75L3202.21 2847.24ZM3164.62 2875.38C3176.14 2865.71 3189.1 2856.53 3202.24 2847.22L3200.51 2844.77C3187.39 2854.06 3174.32 2863.32 3162.69 2873.08L3164.62 2875.38ZM3106.37 2911.92C3126.53 2901.15 3146.86 2890.29 3164.62 2875.38L3162.69 2873.08C3145.21 2887.76 3125.16 2898.48 3104.95 2909.27L3106.37 2911.92ZM3048.09 2948.56C3065.69 2933.65 3085.94 2922.83 3106.37 2911.92L3104.95 2909.27C3084.58 2920.15 3064.04 2931.12 3046.15 2946.28L3048.09 2948.56ZM3037.54 2958.52C3040.89 2955.03 3044.39 2951.7 3048.09 2948.56L3046.15 2946.28C3042.36 2949.48 3038.79 2952.89 3035.37 2956.44L3037.54 2958.52ZM3007.25 2997.05C3018.34 2984.95 3028.99 2972.4 3037.73 2958.27L3035.18 2956.69C3026.58 2970.58 3016.09 2982.97 3005.04 2995.02L3007.25 2997.05ZM3007.37 2996.9L3007.37 2996.9L3004.91 2995.18L3004.91 2995.18L3007.37 2996.9ZM2960.31 3050.11C2979.59 3036.06 2993.51 3016.42 3007.36 2996.91L3004.91 2995.18C2991.01 3014.76 2977.36 3033.97 2958.54 3047.69L2960.31 3050.11ZM2951.8 3063.06C2954.55 3058.48 2957.51 3054.07 2960.64 3049.78L2958.21 3048.02C2955.04 3052.37 2952.03 3056.85 2949.23 3061.51L2951.8 3063.06ZM2928.92 3121.65C2934.97 3101.27 2941 3081 2951.8 3063.06L2949.23 3061.51C2938.2 3079.83 2932.07 3100.48 2926.04 3120.8L2928.92 3121.65ZM2895.28 3194.94C2913.38 3174.04 2921.17 3147.74 2928.92 3121.65L2926.04 3120.8C2918.26 3147 2910.62 3172.64 2893.01 3192.98L2895.28 3194.94ZM2763.28 3280.32C2814.78 3266.76 2860.79 3234.75 2895.28 3194.94L2893.01 3192.98C2858.84 3232.42 2813.33 3264.04 2762.52 3277.42L2763.28 3280.32ZM2714.65 3288.71C2731.15 3287.33 2747.5 3284.48 2763.28 3280.32L2762.52 3277.42C2746.9 3281.53 2730.72 3284.35 2714.4 3285.72L2714.65 3288.71ZM2638.7 3307.25C2666.1 3305.13 2693.66 3303.02 2715.36 3288.46L2713.68 3285.97C2692.77 3300.01 2666.06 3302.12 2638.47 3304.26L2638.7 3307.25ZM2579.77 3316.87C2598.05 3310.42 2618.35 3308.83 2638.7 3307.25L2638.47 3304.26C2618.2 3305.84 2597.49 3307.43 2578.78 3314.05L2579.77 3316.87ZM2487.11 3365.92C2515.78 3345.36 2546.41 3328.66 2579.77 3316.87L2578.78 3314.05C2545.11 3325.94 2514.23 3342.78 2485.36 3363.48L2487.11 3365.92ZM2438.9 3413.9C2453.99 3396.36 2469.08 3378.85 2487.11 3365.92L2485.36 3363.48C2466.98 3376.66 2451.67 3394.46 2436.63 3411.94L2438.9 3413.9ZM2355.38 3477.69C2390.96 3469.67 2414.96 3441.71 2438.9 3413.9L2436.63 3411.94C2412.54 3439.93 2389.17 3467 2354.72 3474.77L2355.38 3477.69ZM2233.91 3451.56C2271.15 3473.1 2314.62 3486.88 2355.38 3477.69L2354.72 3474.77C2315.02 3483.72 2272.35 3470.33 2235.41 3448.96L2233.91 3451.56ZM2167.1 3487.56C2192.17 3479.89 2214.43 3466.62 2235.53 3451.48L2233.79 3449.04C2212.81 3464.09 2190.85 3477.16 2166.22 3484.69L2167.1 3487.56ZM2063.34 3492.98C2098.24 3495.38 2133.54 3497.83 2167.1 3487.56L2166.22 3484.69C2133.28 3494.77 2098.55 3492.39 2063.54 3489.98L2063.34 3492.98ZM2034.48 3491.25C2044.06 3491.65 2053.68 3492.31 2063.34 3492.98L2063.54 3489.98C2053.89 3489.32 2044.23 3488.65 2034.6 3488.25L2034.48 3491.25ZM1911.89 3477.01C1952.28 3486.59 1993.09 3489.53 2034.48 3491.25L2034.6 3488.25C1993.25 3486.53 1952.68 3483.61 1912.59 3474.09L1911.89 3477.01ZM1895.71 3473.27C1901.13 3474.5 1906.54 3475.73 1911.89 3477.01L1912.59 3474.09C1907.21 3472.81 1901.8 3471.58 1896.38 3470.34L1895.71 3473.27ZM1791.85 3433.54C1821.49 3456.39 1859.15 3464.94 1895.71 3473.27L1896.38 3470.34C1859.68 3461.98 1822.7 3453.54 1793.68 3431.17L1791.85 3433.54ZM1780.19 3423.52C1783.88 3427.04 1787.76 3430.39 1791.85 3433.54L1793.68 3431.17C1789.68 3428.08 1785.88 3424.8 1782.26 3421.35L1780.19 3423.52ZM1708.4 3468.93C1736.01 3458.96 1759.74 3442.13 1782.18 3423.59L1780.27 3421.28C1757.92 3439.74 1734.5 3456.31 1707.38 3466.1L1708.4 3468.93ZM1605.04 3479.46C1640.03 3480.14 1675.41 3480.84 1708.4 3468.93L1707.38 3466.1C1675 3477.8 1640.19 3477.14 1605.1 3476.47L1605.04 3479.46ZM1605.07 3479.47H1605.07V3476.47H1605.07V3479.47ZM1605.06 3479.47H1605.07V3476.47H1605.06V3479.47ZM1605.06 3479.47H1605.06V3476.47H1605.06V3479.47ZM1605.05 3479.47H1605.06V3476.47H1605.05V3479.47ZM1576.13 3479.17C1585.71 3479.09 1595.35 3479.28 1605.02 3479.46L1605.08 3476.47C1595.42 3476.28 1585.74 3476.09 1576.11 3476.17L1576.13 3479.17ZM1452.97 3471.01C1493.81 3478.58 1534.71 3479.5 1576.13 3479.17L1576.11 3476.17C1534.73 3476.5 1494.06 3475.58 1453.52 3468.06L1452.97 3471.01ZM1436.62 3468.07C1442.1 3469.04 1447.56 3470 1452.98 3471.01L1453.52 3468.06C1448.09 3467.05 1442.62 3466.08 1437.14 3465.12L1436.62 3468.07ZM1330.85 3433.54C1361.63 3454.89 1399.68 3461.56 1436.62 3468.07L1437.14 3465.12C1400.06 3458.59 1362.7 3451.98 1332.56 3431.07L1330.85 3433.54ZM1267.81 3358.07C1284.32 3386.84 1303.46 3414.53 1330.85 3433.54L1332.56 3431.07C1305.73 3412.45 1286.86 3385.25 1270.42 3356.57L1267.81 3358.07ZM1236.96 3377.08C1249.62 3372.99 1260.44 3366.5 1270.08 3358.47L1268.16 3356.17C1258.76 3363.99 1248.27 3370.27 1236.04 3374.22L1236.96 3377.08ZM1074.78 3386.39C1125.18 3407.74 1185.43 3393.73 1236.96 3377.08L1236.04 3374.22C1184.47 3390.89 1125.22 3404.5 1075.95 3383.63L1074.78 3386.39ZM1016.27 3322.58C1031.74 3348.43 1047.45 3374.81 1074.78 3386.39L1075.95 3383.63C1049.69 3372.5 1034.43 3347.1 1018.85 3321.04L1016.27 3322.58ZM961.348 3260.69C986.31 3272.58 1001.18 3297.34 1016.27 3322.58L1018.85 3321.04C1003.86 3295.99 988.566 3270.33 962.638 3257.98L961.348 3260.69ZM881.264 3258.72C909.667 3254 937.641 3249.4 961.348 3260.69L962.638 3257.98C937.921 3246.21 908.929 3251.08 880.773 3255.76L881.264 3258.72ZM795.171 3253.23C807.681 3261.1 821.637 3263.72 836.219 3263.75C850.775 3263.79 866.068 3261.24 881.264 3258.72L880.773 3255.76C865.522 3258.29 850.485 3260.79 836.226 3260.75C821.993 3260.72 808.649 3258.17 796.769 3250.69L795.171 3253.23ZM742.156 3154.97C747.184 3174.07 752.295 3193.5 760.185 3210.68C768.088 3227.88 778.824 3242.93 795.171 3253.23L796.769 3250.69C781.073 3240.8 770.663 3226.3 762.912 3209.42C755.149 3192.53 750.1 3173.36 745.057 3154.2L742.156 3154.97ZM730.35 3114.86C734.925 3127.5 738.519 3141.15 742.156 3154.97L745.057 3154.2C741.427 3140.41 737.8 3126.63 733.171 3113.84L730.35 3114.86ZM720.226 3088.23C723.691 3097.13 727.141 3106 730.35 3114.86L733.171 3113.84C729.947 3104.94 726.484 3096.04 723.021 3087.14L720.226 3088.23ZM720.2 3088.16L720.2 3088.16L723.046 3087.21L723.046 3087.21L720.2 3088.16ZM720.199 3088.16L720.2 3088.16L723.046 3087.21L723.045 3087.21L720.199 3088.16ZM720.198 3088.15L720.199 3088.16L723.045 3087.21L723.044 3087.2L720.198 3088.15ZM720.197 3088.15L720.198 3088.15L723.044 3087.2L723.044 3087.2L720.197 3088.15ZM699.139 3026.7C704.376 3047.5 712.34 3067.96 720.223 3088.22L723.018 3087.13C715.123 3066.84 707.232 3046.56 702.048 3025.96L699.139 3026.7ZM652.043 3027.51C668.31 3030.28 684.591 3029.91 700.786 3027.82L700.401 3024.84C684.412 3026.91 668.443 3027.26 652.547 3024.55L652.043 3027.51ZM538.665 2969.01C572.909 2994.19 609.448 3020.26 652.043 3027.51L652.547 3024.55C610.759 3017.44 574.769 2991.83 540.443 2966.6L538.665 2969.01ZM453.973 2881.97C477.01 2915.55 505.684 2944.76 538.665 2969.01L540.443 2966.6C507.719 2942.54 479.284 2913.56 456.447 2880.28L453.973 2881.97ZM431.374 2830.56C437.264 2848.3 443.237 2866.33 453.973 2881.97L456.447 2880.28C445.991 2865.04 440.135 2847.43 434.222 2829.62L431.374 2830.56ZM405.677 2775.33C418.36 2791.41 424.816 2810.81 431.374 2830.56L434.222 2829.62C427.693 2809.95 421.096 2790.03 408.032 2773.47L405.677 2775.33ZM344.679 2727.58C367.543 2741.77 390.431 2755.99 405.677 2775.33L408.032 2773.47C392.399 2753.65 369.016 2739.15 346.261 2725.03L344.679 2727.58ZM271.048 2649.76C274.493 2668.04 284.595 2682.32 297.959 2694.61C311.295 2706.86 327.978 2717.21 344.679 2727.58L346.261 2725.03C329.503 2714.63 313.078 2704.43 299.989 2692.4C286.926 2680.39 277.284 2666.65 273.996 2649.2L271.048 2649.76ZM298.566 2582.15C280.272 2602.44 266.185 2623.95 271.048 2649.76L273.996 2649.2C269.419 2624.91 282.562 2604.38 300.794 2584.16L298.566 2582.15ZM212.97 2531.5C239.89 2552.22 268.962 2568.95 298.991 2584.49L300.369 2581.82C270.411 2566.32 241.517 2549.69 214.8 2529.12L212.97 2531.5ZM199.817 2521.51C204.233 2524.84 208.631 2528.16 212.97 2531.5L214.8 2529.12C210.448 2525.77 206.039 2522.45 201.625 2519.11L199.817 2521.51ZM122.042 2443.04C139.385 2475.91 170.056 2499.04 199.817 2521.51L201.625 2519.11C171.751 2496.56 141.672 2473.82 124.695 2441.64L122.042 2443.04ZM100.842 2318.91C101.158 2360.94 102.136 2405.32 122.042 2443.04L124.695 2441.64C105.183 2404.66 104.159 2361.02 103.842 2318.89L100.842 2318.91ZM115.565 2214.15C105.411 2248.15 100.575 2283.39 100.842 2318.91L103.842 2318.89C103.577 2283.66 108.374 2248.72 118.44 2215.01L115.565 2214.15ZM107.233 2209.06C110.198 2211.3 113.156 2213.53 116.094 2215.77L117.911 2213.38C114.968 2211.14 112.005 2208.9 109.04 2206.67L107.233 2209.06ZM29.4567 2130.6C46.7996 2163.47 77.4711 2186.59 107.233 2209.06L109.04 2206.67C79.1663 2184.11 49.0862 2161.37 32.11 2129.2L29.4567 2130.6ZM8.2566 2006.47C8.57301 2048.49 9.55093 2092.87 29.4567 2130.6L32.11 2129.2C12.5975 2092.21 11.5737 2048.57 11.2565 2006.44L8.2566 2006.47ZM27.5447 1887.53C14.2758 1925.87 7.95179 1965.98 8.2566 2006.47L11.2565 2006.44C10.9542 1966.29 17.2267 1926.52 30.3797 1888.51L27.5447 1887.53ZM55.5294 1838.74C44.7186 1854.09 33.7286 1869.66 27.5447 1887.53L30.3797 1888.51C36.4015 1871.11 47.1262 1855.88 57.9817 1840.47L55.5294 1838.74ZM84.7388 1785.22C79.3821 1804.87 67.569 1821.66 55.5294 1838.74L57.9817 1840.47C69.9647 1823.47 82.1144 1806.26 87.6332 1786.01L84.7388 1785.22ZM86.5227 1708.62C88.8571 1735.1 91.1769 1761.6 84.7388 1785.22L87.6332 1786.01C94.2387 1761.78 91.8343 1734.71 89.5111 1708.36L86.5227 1708.62ZM84.6158 1683.99C85.0664 1692.11 85.7943 1700.36 86.5227 1708.62L89.5111 1708.36C88.7819 1700.09 88.0586 1691.88 87.6112 1683.82L84.6158 1683.99ZM67.2218 1658.93C72.1691 1668.31 78.1954 1676.88 84.9694 1684.87L87.2577 1682.93C80.601 1675.08 74.705 1666.68 69.8751 1657.53L67.2218 1658.93ZM46.0217 1534.8C46.3381 1576.82 47.3161 1621.2 67.2218 1658.93L69.8751 1657.53C50.3626 1620.55 49.3389 1576.91 49.0216 1534.78L46.0217 1534.8ZM65.3098 1415.86C52.0409 1454.2 45.7169 1494.32 46.0217 1534.8L49.0216 1534.78C48.7193 1494.62 54.9918 1454.85 68.1448 1416.84L65.3098 1415.86ZM93.2946 1367.08C82.4838 1382.42 71.4937 1398 65.3098 1415.86L68.1448 1416.84C74.1666 1399.45 84.8913 1384.21 95.7468 1368.81L93.2946 1367.08ZM122.504 1313.55C117.147 1333.21 105.334 1349.99 93.2946 1367.08L95.7468 1368.81C107.73 1351.8 119.88 1334.59 125.398 1314.34L122.504 1313.55ZM124.288 1236.96C126.622 1263.43 128.942 1289.94 122.504 1313.55L125.398 1314.34C132.004 1290.11 129.599 1263.04 127.276 1236.69L124.288 1236.96ZM142.794 1132.25C130.071 1146 124.606 1162.55 122.738 1180.44C120.874 1198.3 122.583 1217.62 124.288 1236.96L127.276 1236.69C125.565 1217.29 123.894 1198.27 125.722 1180.75C127.546 1163.28 132.845 1147.42 144.996 1134.29L142.794 1132.25ZM170.249 1115.71C159.927 1118.66 150.599 1123.82 142.794 1132.25L144.996 1134.29C152.378 1126.31 161.204 1121.42 171.075 1118.59L170.249 1115.71ZM179.823 1079.47C175.573 1091.76 172.035 1104.22 169.199 1116.82L172.126 1117.48C174.937 1104.99 178.445 1092.63 182.658 1080.45L179.823 1079.47ZM207.808 1030.69C196.997 1046.03 186.007 1061.6 179.823 1079.47L182.658 1080.45C188.68 1063.05 199.405 1047.82 210.26 1032.42L207.808 1030.69ZM237.018 977.164C231.661 996.815 219.848 1013.6 207.808 1030.69L210.26 1032.42C222.243 1015.41 234.393 998.198 239.912 977.953L237.018 977.164ZM244.111 914.627C243.558 934.555 242.977 955.303 237.018 977.164L239.912 977.953C245.979 955.698 246.558 934.605 247.109 914.71L244.111 914.627ZM272.477 821.441C245.855 850.212 245.035 881.301 244.111 914.627L247.109 914.71C248.036 881.306 248.909 851.329 274.679 823.479L272.477 821.441ZM344.974 788.794C317.68 792.476 292.33 799.987 272.477 821.441L274.679 823.479C293.832 802.78 318.347 795.414 345.375 791.767L344.974 788.794ZM364.512 721.639C347.051 740.51 343.263 764.639 343.675 790.305L346.674 790.257C346.267 764.847 350.045 741.69 366.714 723.677L364.512 721.639ZM390.758 705.453C380.915 708.46 372.01 713.536 364.512 721.639L366.714 723.677C373.807 716.012 382.232 711.194 391.634 708.322L390.758 705.453ZM387.718 634.695C380.69 659.325 383.23 683.434 389.749 707.283L392.643 706.492C386.205 682.94 383.78 659.43 390.603 635.518L387.718 634.695ZM476.327 541.451C436.119 565.674 401.474 586.487 387.718 634.695L390.603 635.518C403.993 588.591 437.555 568.312 477.876 544.02L476.327 541.451ZM500.853 526.369C492.518 531.696 484.311 536.641 476.327 541.451L477.876 544.02C485.855 539.213 494.095 534.249 502.468 528.897L500.853 526.369ZM563.442 497.582C542.028 505.686 520.438 513.85 500.853 526.369L502.468 528.897C521.747 516.574 543.041 508.51 564.504 500.388L563.442 497.582ZM626.073 468.685C606.647 481.226 585.135 489.373 563.442 497.582L564.504 500.388C586.147 492.198 607.963 483.948 627.7 471.205L626.073 468.685ZM672.853 425.948C658.296 441.634 643.807 457.236 626.073 468.685L627.7 471.205C645.803 459.518 660.54 443.626 675.052 427.988L672.853 425.948ZM735.859 374.674C710.249 385.618 691.492 405.862 672.853 425.948L675.052 427.988C693.771 407.817 712.112 388.084 737.038 377.433L735.859 374.674ZM850.744 350.898C811.448 350.469 771.797 359.317 735.859 374.674L737.038 377.433C772.638 362.22 811.877 353.474 850.712 353.898L850.744 350.898ZM851.472 350.228L849.972 351.102L851.484 353.694L852.983 352.819L851.472 350.228ZM908.305 311.452C891.287 327.006 871.464 338.571 851.472 350.228L852.983 352.819C872.929 341.19 893.036 329.473 910.329 313.667L908.305 311.452ZM947.156 261.636C935.472 279.493 923.841 297.253 908.305 311.452L910.329 313.667C926.191 299.17 938.019 281.079 949.667 263.279L947.156 261.636ZM947.24 261.52L947.24 261.52L949.583 263.394L949.583 263.394L947.24 261.52ZM1000.56 200.732C977.169 215.729 962.117 238.771 947.157 261.636L949.667 263.278C964.692 240.316 979.418 217.851 1002.18 203.257L1000.56 200.732ZM1097.09 160.729C1062.8 167.858 1029.79 181.991 1000.56 200.732L1002.18 203.257C1031.13 184.696 1063.8 170.714 1097.7 163.666L1097.09 160.729ZM1142.96 146.865C1126.89 150.867 1110.81 154.87 1096.8 160.817L1097.98 163.578C1111.72 157.741 1127.56 153.792 1143.69 149.776L1142.96 146.865ZM1202.38 126.567C1185.41 136.282 1164.21 141.574 1142.96 146.865L1143.69 149.776C1164.83 144.511 1186.47 139.132 1203.87 129.171L1202.38 126.567ZM1297.16 89.4767C1264.82 99.2345 1233.76 108.598 1202.38 126.567L1203.87 129.171C1234.91 111.396 1265.65 102.117 1298.03 92.3488L1297.16 89.4767ZM1341.42 75.3763C1326.29 80.6899 1311.6 85.122 1297.16 89.4767L1298.03 92.3488C1312.46 87.9966 1327.21 83.5461 1342.42 78.2069L1341.42 75.3763ZM1389.74 53.1168C1373.84 61.3479 1357.92 69.584 1341.42 75.3763L1342.42 78.2069C1359.15 72.3329 1375.25 63.9944 1391.12 55.7811L1389.74 53.1168ZM1491.9 25.0838C1455.31 19.1249 1422.52 36.1522 1389.74 53.1168L1391.12 55.7811C1424.09 38.717 1455.97 22.2727 1491.41 28.0448L1491.9 25.0838ZM1588.33 52.0276C1558.48 37.835 1524.06 30.3214 1491.9 25.0838L1491.41 28.0448C1523.5 33.2709 1557.59 40.7317 1587.04 54.7369L1588.33 52.0276ZM1556.71 1395.17C1526.26 1412.16 1509.04 1420.34 1499.9 1423.68C1497.62 1424.51 1495.88 1425.03 1494.58 1425.31C1493.24 1425.6 1492.52 1425.6 1492.2 1425.54C1492.06 1425.52 1492.14 1425.5 1492.26 1425.62C1492.42 1425.77 1492.49 1425.98 1492.49 1426.11C1492.5 1426.23 1492.47 1426.05 1492.87 1425.49L1490.44 1423.73C1489.98 1424.37 1489.46 1425.27 1489.5 1426.23C1489.52 1426.79 1489.73 1427.35 1490.19 1427.79C1490.62 1428.2 1491.15 1428.39 1491.63 1428.49C1492.56 1428.67 1493.77 1428.55 1495.21 1428.24C1496.69 1427.92 1498.58 1427.36 1500.93 1426.5C1510.31 1423.07 1527.71 1414.79 1558.17 1397.79L1556.71 1395.17ZM1620.39 1339.84C1616.83 1345.84 1612.45 1353.2 1603.23 1362.28C1593.99 1371.38 1579.84 1382.26 1556.71 1395.17L1558.17 1397.79C1581.46 1384.79 1595.85 1373.76 1605.33 1364.42C1614.83 1355.06 1619.36 1347.44 1622.97 1341.37L1620.39 1339.84ZM1639.18 1322.63C1633.88 1324.45 1630.32 1326.78 1627.49 1329.71C1624.7 1332.59 1622.67 1336.01 1620.39 1339.84L1622.97 1341.37C1625.29 1337.48 1627.14 1334.38 1629.64 1331.79C1632.1 1329.25 1635.24 1327.16 1640.16 1325.47L1639.18 1322.63ZM1680.59 1328.21C1667.02 1322.74 1654.15 1317.5 1639.18 1322.63L1640.16 1325.47C1653.91 1320.75 1665.74 1325.46 1679.47 1330.99L1680.59 1328.21ZM1718.25 1337.52C1703.72 1337.52 1691.85 1332.75 1680.59 1328.21L1679.47 1330.99C1690.69 1335.52 1703.06 1340.52 1718.25 1340.52V1337.52ZM1761.11 1320.26C1748.39 1329.21 1736.51 1337.52 1718.25 1337.52V1340.52C1737.56 1340.52 1750.14 1331.64 1762.84 1322.72L1761.11 1320.26ZM1793.99 1302.85C1780.64 1306.52 1770.64 1313.57 1761.11 1320.26L1762.84 1322.72C1772.4 1316 1782.01 1309.26 1794.78 1305.75L1793.99 1302.85ZM1851.42 1319.26C1841.64 1313.59 1832.25 1308.13 1822.87 1304.77C1813.46 1301.4 1803.96 1300.11 1793.99 1302.85L1794.78 1305.75C1803.99 1303.21 1812.83 1304.36 1821.86 1307.59C1830.93 1310.84 1840.08 1316.15 1849.91 1321.86L1851.42 1319.26ZM1888.67 1337.59C1875.08 1333 1862.95 1325.96 1851.42 1319.26L1849.91 1321.86C1861.41 1328.54 1873.79 1335.73 1887.71 1340.44L1888.67 1337.59ZM1934.35 1330.02C1919.68 1336.98 1905.97 1343.45 1888.67 1337.59L1887.71 1340.44C1906.3 1346.73 1921.08 1339.64 1935.63 1332.73L1934.35 1330.02ZM1988.59 1322.64C1966.53 1314.67 1949.96 1322.59 1934.35 1330.02L1935.63 1332.73C1951.29 1325.28 1966.8 1317.96 1987.57 1325.46L1988.59 1322.64ZM2019.26 1357.31C2017.21 1350.49 2015.22 1343.8 2010.87 1337.85C2006.49 1331.84 1999.82 1326.7 1988.59 1322.64L1987.57 1325.46C1998.36 1329.36 2004.49 1334.19 2008.45 1339.61C2012.44 1345.09 2014.31 1351.27 2016.39 1358.17L2019.26 1357.31ZM2043.81 1395.28C2026.79 1382.4 2022.87 1369.34 2019.26 1357.31L2016.39 1358.17C2020.04 1370.36 2024.19 1384.19 2042 1397.67L2043.81 1395.28ZM2097.67 1403.37C2079.44 1405.48 2060.15 1407.66 2043.81 1395.28L2042 1397.67C2059.44 1410.88 2079.99 1408.44 2098.02 1406.35L2097.67 1403.37ZM2148.48 1424.13C2146.35 1417.83 2143.48 1413.16 2139.97 1409.76C2136.45 1406.36 2132.35 1404.31 2127.86 1403.16C2118.99 1400.89 2108.46 1402.13 2097.67 1403.37L2098.02 1406.35C2108.97 1405.09 2118.9 1403.96 2127.12 1406.07C2131.18 1407.11 2134.79 1408.93 2137.88 1411.92C2140.98 1414.92 2143.63 1419.14 2145.64 1425.09L2148.48 1424.13ZM2156.9 1468.75C2155.94 1456.71 2154.83 1442.83 2148.48 1424.13L2145.64 1425.09C2151.86 1443.42 2152.95 1457 2153.91 1468.99L2156.9 1468.75ZM2174.42 1517.64C2166.83 1508.28 2162.82 1500.3 2160.51 1492.59C2158.2 1484.85 2157.59 1477.33 2156.9 1468.75L2153.91 1468.99C2154.59 1477.52 2155.22 1485.36 2157.64 1493.45C2160.07 1501.58 2164.29 1509.9 2172.09 1519.53L2174.42 1517.64ZM2218.47 1540.06C2203.53 1536.96 2187.32 1533.56 2174.42 1517.64L2172.09 1519.53C2185.73 1536.36 2202.95 1539.9 2217.86 1543L2218.47 1540.06ZM2253.2 1560.46C2246.53 1545.79 2232.85 1543.05 2218.47 1540.06L2217.86 1543C2232.53 1546.04 2244.52 1548.62 2250.47 1561.7L2253.2 1560.46ZM2243.53 1603.55C2247.53 1596 2251.45 1588.59 2253.63 1581.47C2255.81 1574.31 2256.29 1567.26 2253.2 1560.46L2250.47 1561.7C2253.14 1567.6 2252.82 1573.84 2250.76 1580.59C2248.68 1587.39 2244.91 1594.52 2240.88 1602.15L2243.53 1603.55ZM2233.69 1663.39C2223.36 1641.82 2233.68 1622.16 2243.53 1603.55L2240.88 1602.15C2231.16 1620.5 2219.91 1641.56 2230.99 1664.68L2233.69 1663.39ZM2267.72 1692.23C2255.12 1686.44 2241.78 1680.28 2233.69 1663.39L2230.99 1664.68C2239.59 1682.64 2253.88 1689.17 2266.46 1694.95L2267.72 1692.23ZM2296.57 1739.02C2298.34 1723.37 2295.53 1713.53 2289.86 1706.62C2284.27 1699.8 2276.06 1696.06 2267.72 1692.23L2266.46 1694.95C2274.95 1698.85 2282.47 1702.34 2287.54 1708.52C2292.53 1714.6 2295.3 1723.53 2293.59 1738.69L2296.57 1739.02ZM2260.96 1787.06C2268.57 1782.45 2276.71 1777.53 2283.3 1770.23C2289.94 1762.88 2294.97 1753.17 2296.57 1739.02L2293.59 1738.69C2292.06 1752.23 2287.28 1761.35 2281.07 1768.22C2274.82 1775.14 2267.07 1779.85 2259.4 1784.49L2260.96 1787.06ZM2233.84 1824.45C2233.84 1813.9 2237.06 1806.77 2241.96 1801.2C2246.94 1795.56 2253.69 1791.46 2260.96 1787.06L2259.4 1784.49C2252.22 1788.84 2245.05 1793.17 2239.71 1799.22C2234.31 1805.35 2230.84 1813.18 2230.84 1824.45H2233.84ZM2244.77 1882.2C2239.52 1866.06 2233.84 1848.58 2233.84 1824.45H2230.84C2230.84 1849.1 2236.66 1866.97 2241.92 1883.13L2244.77 1882.2ZM2253.33 1923.21C2253.33 1908.45 2249.18 1895.74 2244.77 1882.2L2241.92 1883.13C2246.35 1896.73 2250.33 1909 2250.33 1923.21H2253.33ZM2215.9 1959.34C2225.6 1954.92 2234.93 1950.68 2241.8 1945.22C2248.75 1939.71 2253.33 1932.84 2253.33 1923.21H2250.33C2250.33 1931.68 2246.39 1937.75 2239.94 1942.87C2233.41 1948.05 2224.46 1952.14 2214.65 1956.61L2215.9 1959.34ZM2174.38 1985.85C2185.39 1973.28 2201.15 1966.07 2215.9 1959.34L2214.65 1956.61C2200.02 1963.29 2183.62 1970.74 2172.13 1983.88L2174.38 1985.85ZM2162.07 2040.19C2160.63 2022.26 2159.16 2003.25 2174.38 1985.85L2172.13 1983.88C2155.98 2002.33 2157.65 2022.59 2159.08 2040.43L2162.07 2040.19ZM2159.38 2073.49C2163.99 2063.7 2163.02 2052.06 2162.07 2040.19L2159.08 2040.43C2160.04 2052.52 2160.87 2063.28 2156.67 2072.22L2159.38 2073.49ZM2118.82 2086.03C2128.09 2086.03 2136.7 2086.03 2143.68 2084.53C2150.72 2083.02 2156.37 2079.91 2159.38 2073.49L2156.67 2072.22C2154.2 2077.47 2149.58 2080.2 2143.05 2081.6C2136.45 2083.02 2128.2 2083.03 2118.82 2083.03V2086.03ZM2058.89 2097.49C2078.29 2086.06 2100.11 2086.03 2118.82 2086.03V2083.03C2100.22 2083.03 2077.57 2083 2057.37 2094.91L2058.89 2097.49ZM2029.37 2140.69C2033.82 2125.79 2038.74 2109.37 2058.89 2097.49L2057.37 2094.91C2036.14 2107.42 2030.96 2124.88 2026.5 2139.83L2029.37 2140.69ZM2006.25 2172.43C2021.6 2167 2025.33 2154.23 2029.37 2140.69L2026.5 2139.83C2022.39 2153.58 2018.98 2164.75 2005.25 2169.6L2006.25 2172.43ZM1953.68 2167.12C1971.63 2173.02 1988.63 2178.67 2006.25 2172.43L2005.25 2169.6C1988.75 2175.44 1972.77 2170.24 1954.62 2164.27L1953.68 2167.12ZM1907.68 2157.55C1924.55 2157.55 1939.48 2162.45 1953.68 2167.12L1954.62 2164.27C1940.46 2159.62 1925.1 2154.55 1907.68 2154.55V2157.55ZM1873.66 2180.78C1882.86 2168.46 1891.11 2157.55 1907.68 2157.55V2154.55C1889.41 2154.55 1880.33 2166.83 1871.25 2178.99L1873.66 2180.78ZM1818.57 2209.02C1834.05 2210.88 1845.02 2207.69 1853.56 2202C1862.03 2196.36 1868.02 2188.32 1873.66 2180.78L1871.25 2178.99C1865.57 2186.6 1859.87 2194.2 1851.9 2199.51C1844 2204.76 1833.77 2207.82 1818.93 2206.04L1818.57 2209.02ZM1777.45 2186.09C1780.55 2191.17 1783.57 2196.13 1789.53 2200.19C1795.47 2204.24 1804.19 2207.29 1818.57 2209.02L1818.93 2206.04C1804.78 2204.34 1796.6 2201.38 1791.22 2197.71C1785.85 2194.06 1783.13 2189.63 1780.01 2184.53L1777.45 2186.09ZM1739.68 2157.47C1752.69 2162.01 1760.71 2166.9 1766.17 2171.73C1771.62 2176.57 1774.59 2181.41 1777.45 2186.09L1780.01 2184.53C1777.14 2179.84 1773.98 2174.65 1768.16 2169.49C1762.34 2164.33 1753.95 2159.28 1740.67 2154.64L1739.68 2157.47ZM1684.07 2164.68C1690.84 2160.42 1697.6 2156.18 1706.23 2154.2C1714.81 2152.23 1725.37 2152.47 1739.68 2157.47L1740.67 2154.64C1725.92 2149.49 1714.78 2149.16 1705.56 2151.28C1696.37 2153.39 1689.21 2157.91 1682.48 2162.14L1684.07 2164.68ZM1639.18 2172.44C1649.6 2176.04 1657.81 2176.05 1664.99 2174.12C1672.11 2172.21 1678.12 2168.42 1684.07 2164.68L1682.48 2162.14C1676.46 2165.92 1670.83 2169.45 1664.22 2171.22C1657.67 2172.98 1650.07 2173.03 1640.16 2169.6L1639.18 2172.44ZM1604.12 2134.12C1606.91 2141.64 1609.7 2149.2 1614.79 2155.86C1619.91 2162.58 1627.3 2168.33 1639.18 2172.44L1640.16 2169.6C1628.79 2165.66 1621.91 2160.25 1617.17 2154.04C1612.4 2147.79 1609.74 2140.66 1606.93 2133.07L1604.12 2134.12ZM1577.95 2097.46C1594.4 2107.97 1599.31 2121.15 1604.12 2134.12L1606.93 2133.07C1602.1 2120.06 1596.92 2106.02 1579.57 2094.93L1577.95 2097.46ZM1531.66 2089.14C1546.51 2088.02 1561.44 2086.92 1577.95 2097.46L1579.57 2094.93C1562.14 2083.8 1546.29 2085.02 1531.43 2086.14L1531.66 2089.14ZM1479.63 2073.91C1488.48 2082.77 1497.17 2086.94 1505.88 2088.7C1514.53 2090.44 1523.12 2089.78 1531.66 2089.14L1531.43 2086.14C1522.83 2086.79 1514.65 2087.4 1506.47 2085.75C1498.36 2084.12 1490.2 2080.25 1481.75 2071.79L1479.63 2073.91ZM1469.54 2027.44C1467.75 2034.54 1465.89 2041.85 1466.69 2049.53C1467.51 2057.3 1471.02 2065.29 1479.63 2073.91L1481.75 2071.79C1473.55 2063.58 1470.41 2056.2 1469.68 2049.22C1468.94 2042.16 1470.64 2035.37 1472.45 2028.18L1469.54 2027.44ZM1464.26 1985.77C1470.21 1993.7 1472.32 2000.86 1472.57 2007.6C1472.83 2014.4 1471.21 2020.84 1469.54 2027.44L1472.45 2028.18C1474.1 2021.64 1475.85 2014.78 1475.57 2007.48C1475.29 2000.12 1472.97 1992.37 1466.66 1983.97L1464.26 1985.77ZM1425.47 1964.06C1439.39 1967.84 1453.77 1971.77 1464.26 1985.77L1466.66 1983.97C1455.48 1969.05 1440.1 1964.92 1426.26 1961.17L1425.47 1964.06ZM1386 1923.34C1387.26 1938.48 1392.27 1947.48 1399.59 1953.3C1406.8 1959.03 1416.1 1961.52 1425.47 1964.06L1426.26 1961.17C1416.74 1958.59 1408.09 1956.22 1401.45 1950.95C1394.93 1945.76 1390.19 1937.62 1388.99 1923.09L1386 1923.34ZM1397.9 1885.27C1394.66 1888.51 1391.11 1892.05 1388.69 1897.82C1386.26 1903.59 1385.02 1911.45 1386 1923.34L1388.99 1923.09C1388.03 1911.5 1389.28 1904.17 1391.45 1898.98C1393.62 1893.81 1396.78 1890.64 1400.03 1887.39L1397.9 1885.27ZM1403.11 1838.02C1407.72 1854.87 1408.18 1864.82 1406.68 1871.44C1405.19 1877.96 1401.77 1881.41 1397.9 1885.27L1400.03 1887.39C1403.9 1883.52 1407.91 1879.54 1409.6 1872.11C1411.27 1864.76 1410.66 1854.23 1406 1837.22L1403.11 1838.02ZM1372.48 1790.18C1377.43 1793.82 1382.86 1797.81 1388.17 1804.84C1393.48 1811.88 1398.73 1822.04 1403.11 1838.02L1406 1837.22C1401.54 1820.96 1396.16 1810.44 1390.57 1803.03C1384.97 1795.62 1379.23 1791.41 1374.25 1787.76L1372.48 1790.18ZM1355.54 1756.21C1355.54 1766.77 1357.34 1773.57 1360.46 1778.63C1363.56 1783.66 1367.89 1786.81 1372.48 1790.18L1374.25 1787.76C1369.59 1784.34 1365.76 1781.51 1363.01 1777.05C1360.28 1772.63 1358.54 1766.44 1358.54 1756.21H1355.54ZM1378.92 1711.45C1367.33 1722.89 1355.54 1734.48 1355.54 1756.21H1358.54C1358.54 1735.85 1369.42 1725.05 1381.02 1713.58L1378.92 1711.45ZM1403.05 1664.04C1403.05 1687.56 1391.05 1699.46 1378.92 1711.45L1381.02 1713.58C1393.18 1701.57 1406.05 1688.9 1406.05 1664.04H1403.05ZM1390.84 1617.1C1396.73 1629.96 1403.05 1643.82 1403.05 1664.04H1406.05C1406.05 1643.12 1399.47 1628.75 1393.57 1615.85L1390.84 1617.1ZM1386.1 1560.52C1381.19 1572.76 1380.42 1582.71 1381.89 1591.75C1383.35 1600.74 1387.03 1608.77 1390.84 1617.1L1393.57 1615.85C1389.73 1607.46 1386.24 1599.79 1384.85 1591.27C1383.47 1582.81 1384.16 1573.42 1388.89 1561.64L1386.1 1560.52ZM1422.47 1539.22C1415.61 1539.07 1408.64 1538.9 1402.34 1541.56C1395.92 1544.26 1390.41 1549.79 1386.1 1560.52L1388.89 1561.64C1392.98 1551.44 1398.02 1546.64 1403.51 1544.32C1409.11 1541.96 1415.41 1542.07 1422.4 1542.22L1422.47 1539.22ZM1464.17 1517.83C1457.66 1528.97 1450.72 1534.32 1443.79 1536.9C1436.78 1539.51 1429.63 1539.37 1422.47 1539.22L1422.4 1542.22C1429.49 1542.37 1437.21 1542.55 1444.84 1539.71C1452.53 1536.85 1459.97 1530.97 1466.76 1519.34L1464.17 1517.83ZM1474.48 1474.18C1474.94 1479.92 1475.38 1485.58 1474.22 1492.42C1473.06 1499.26 1470.28 1507.35 1464.17 1517.83L1466.76 1519.34C1473.02 1508.62 1475.95 1500.18 1477.18 1492.92C1478.41 1485.67 1477.93 1479.67 1477.47 1473.94L1474.48 1474.18ZM1490.44 1423.73C1481.53 1435.99 1477.24 1445.33 1475.35 1453.31C1473.45 1461.28 1473.97 1467.78 1474.48 1474.18L1477.47 1473.94C1476.96 1467.54 1476.49 1461.47 1478.27 1454C1480.04 1446.53 1484.11 1437.55 1492.87 1425.49L1490.44 1423.73Z" fill="#FF85BC"/>
<rect x="1237.09" y="1181.42" width="85.7125" height="299.914" rx="34" transform="rotate(32.5795 1237.09 1181.42)" fill="white" stroke="#F2B5D4" stroke-width="2"/>
<rect x="801.192" y="1701.32" width="85.7126" height="286.72" rx="34" transform="rotate(83.7958 801.192 1701.32)" fill="white" stroke="#F2B5D4" stroke-width="2"/>
<rect x="2302.38" y="761.291" width="85.7126" height="286.72" rx="34" transform="rotate(-36.7677 2302.38 761.291)" fill="white" stroke="#F2B5D4" stroke-width="2"/>
<rect x="2865.73" y="1829.82" width="85.7126" height="286.72" rx="34" transform="rotate(45.5953 2865.73 1829.82)" fill="white" stroke="#F2B5D4" stroke-width="2"/>
<rect x="2059.06" y="3035.66" width="85.7126" height="334.734" rx="34" transform="rotate(117.522 2059.06 3035.66)" fill="white" stroke="#F2B5D4" stroke-width="2"/>
<rect x="1293.98" y="2842.2" width="85.7126" height="334.734" rx="34" transform="rotate(167.669 1293.98 2842.2)" fill="white" stroke="#F2B5D4" stroke-width="2"/>
<rect x="1580.94" y="534.667" width="85.7126" height="286.72" rx="34" transform="rotate(-80.0138 1580.94 534.667)" fill="white" stroke="#F2B5D4" stroke-width="2"/>
<rect x="2044.03" y="169.924" width="87.7126" height="288.72" rx="35" transform="rotate(-34.5583 2044.03 169.924)" fill="#EF3B36"/>
<path d="M2169.35 956.033C2179.82 940.443 2200.95 936.291 2216.54 946.759L2231.24 956.633C2246.83 967.1 2250.98 988.224 2240.51 1003.81L2118.59 1185.4C2108.12 1200.99 2087 1205.14 2071.41 1194.67L2056.7 1184.8C2041.11 1174.33 2036.96 1153.21 2047.43 1137.62L2169.35 956.033Z" fill="#00C3B0" stroke="#00A0C3" stroke-width="2"/>
<rect x="773.489" y="1090.38" width="85.7126" height="286.72" rx="34" transform="rotate(-54.4758 773.489 1090.38)" fill="#00C3B0" stroke="#00A0C3" stroke-width="2"/>
<rect x="1476.98" y="642.158" width="85.7126" height="286.72" rx="34" transform="rotate(8.80302 1476.98 642.158)" fill="#00C3B0" stroke="#00A0C3" stroke-width="2"/>
<rect x="2475.29" y="1588.48" width="85.7126" height="286.72" rx="34" transform="rotate(-65.8163 2475.29 1588.48)" fill="#00C3B0" stroke="#00A0C3" stroke-width="2"/>
<rect x="761.307" y="2566.94" width="85.7126" height="286.72" rx="34" transform="rotate(-121.486 761.307 2566.94)" fill="#00C3B0" stroke="#00A0C3" stroke-width="2"/>
<rect x="2290.47" y="2548.24" width="85.7126" height="286.72" rx="34" transform="rotate(27.9361 2290.47 2548.24)" fill="#00C3B0" stroke="#00A0C3" stroke-width="2"/>
<rect x="1820.14" y="927.688" width="86.7125" height="287.72" rx="34.5" transform="rotate(22.602 1820.14 927.688)" fill="#87CFF7" stroke="#5EAFF2"/>
<rect x="742.221" y="775.025" width="86.7125" height="287.72" rx="34.5" transform="rotate(-79.8414 742.221 775.025)" fill="#87CFF7" stroke="#5EAFF2"/>
<rect x="182.795" y="1571.47" width="86.7125" height="287.72" rx="34.5" transform="rotate(-95.3246 182.795 1571.47)" fill="#87CFF7" stroke="#5EAFF2"/>
<rect x="2477.34" y="1245.6" width="86.7125" height="287.72" rx="34.5" transform="rotate(-86.9636 2477.34 1245.6)" fill="#87CFF7" stroke="#5EAFF2"/>
<rect x="503.867" y="2175.84" width="86.7125" height="335.239" rx="34.5" transform="rotate(10.7024 503.867 2175.84)" fill="#87CFF7" stroke="#5EAFF2"/>
<rect x="2494.06" y="2416.05" width="95.7041" height="315.001" rx="34.5" transform="rotate(-13.0739 2494.06 2416.05)" fill="#87CFF7" stroke="#5EAFF2"/>
<rect x="2892.61" y="750.669" width="85.7125" height="286.72" rx="34" transform="rotate(14.2522 2892.61 750.669)" fill="#EF3B36" stroke="#FF0101" stroke-width="2"/>
<rect x="1367.66" y="2198.69" width="85.7125" height="286.72" rx="34" transform="rotate(90.5706 1367.66 2198.69)" fill="#EF3B36" stroke="#FF0101" stroke-width="2"/>
<rect x="1172.56" y="1792.63" width="85.7125" height="286.72" rx="34" transform="rotate(111.538 1172.56 1792.63)" fill="#EF3B36" stroke="#FF0101" stroke-width="2"/>
<rect x="1843.63" y="2443.01" width="85.7125" height="286.72" rx="34" transform="rotate(17.967 1843.63 2443.01)" fill="#EF3B36" stroke="#FF0101" stroke-width="2"/>
<rect x="2928.48" y="2170.98" width="85.7125" height="286.72" rx="34" transform="rotate(-64.1706 2928.48 2170.98)" fill="#EF3B36" stroke="#FF0101" stroke-width="2"/>
<rect x="1550.55" y="3019.89" width="85.7125" height="286.72" rx="34" transform="rotate(-15.0408 1550.55 3019.89)" fill="#EF3B36" stroke="#FF0101" stroke-width="2"/>
<rect x="3039.05" y="1197.49" width="86.7126" height="287.72" rx="34.5" transform="rotate(22.6645 3039.05 1197.49)" fill="#FEE449" stroke="#FFD600"/>
<rect x="2344.2" y="2242.84" width="86.7126" height="287.72" rx="34.5" transform="rotate(-79.2835 2344.2 2242.84)" fill="#FEE449" stroke="#FFD600"/>
<rect x="911.93" y="2986.83" width="86.7126" height="287.72" rx="34.5" transform="rotate(-145.83 911.93 2986.83)" fill="#FEE449" stroke="#FFD600"/>
<rect x="313.321" y="2083.43" width="86.7125" height="287.72" rx="34.5" transform="rotate(-104.79 313.321 2083.43)" fill="#FEE449" stroke="#FFD600"/>
<rect x="2545.15" y="405.543" width="86.7126" height="287.72" rx="34.5" transform="rotate(-2.27381 2545.15 405.543)" fill="#FEE449" stroke="#FFD600"/>
<rect x="1138.06" y="816.366" width="86.7126" height="287.72" rx="34.5" transform="rotate(-17.9643 1138.06 816.366)" fill="#FEE449" stroke="#FFD600"/>
</svg>
