<svg width="2509" height="3249" viewBox="0 0 2509 3249" fill="none" xmlns="http://www.w3.org/2000/svg">
<path d="M2506.76 1995.61C2506.76 2686.32 1946.06 3246.25 1254.38 3246.25C562.708 3246.25 2 2686.32 2 1995.61C2 1560.91 142.296 1062.47 369.128 672.744C596.028 282.898 909.103 2.47266 1254.38 2.47266C1599.67 2.47266 1912.74 280.918 2139.64 669.764C2366.47 1058.5 2506.76 1556.94 2506.76 1995.61Z" fill="#FFF9E7" stroke="#FEE7BB" stroke-width="4"/>
<path d="M1923.83 2306.29C1923.83 2687.47 1619.73 2996.44 1244.66 2996.44C869.583 2996.44 565.484 2687.47 565.484 2306.29C565.484 1925.11 869.583 1616.14 1244.66 1616.14C1619.73 1616.14 1923.83 1925.11 1923.83 2306.29Z" fill="url(#paint0_linear_4734_783)" stroke="#FE8C00" stroke-width="3"/>
<defs>
<linearGradient id="paint0_linear_4734_783" x1="1293.28" y1="1643.87" x2="1227.19" y2="2741.62" gradientUnits="userSpaceOnUse">
<stop stop-color="#FCB004"/>
<stop offset="1" stop-color="#EF6C19"/>
</linearGradient>
</defs>
</svg>
